<svg id="onepulse" xmlns="http://www.w3.org/2000/svg" viewBox="0 0 328.42 315.5"><title>Artboard 1</title><g id="logo-main"><path d="M92.05,60.59H244.5c18.26,0,34.05,6,46.92,17.75A67.71,67.71,0,0,1,297.76,85c1.84-14.14,0-27.91-6.06-40.39-23.34-48.08-100.32-59-171.93-24.34S9,121.94,32.36,170C43,191.92,64.75,206.1,92.05,211.79Z"/><path d="M124.39,183.95v30.62c25.3-.6,53-7.18,79.9-20.2a214.8,214.8,0,0,0,19-10.42Z"/><path d="M278.78,122.27c0-8.49-3.12-15.3-9.81-21.43s-14.82-9.27-24.47-9.27H124.39V153H244.5c9.66,0,17.66-3,24.47-9.27s9.81-12.93,9.81-21.42"/></g><g id="text"><path d="M-.49,302.81H4.34V287.13H17.46v-4.29H4.34v-9.37H17.46v-4.29H-.49Zm26.73-29.19a16.61,16.61,0,0,0-5.08,12.47,16.22,16.22,0,0,0,5.08,12.23,17.45,17.45,0,0,0,12.62,4.88,18.63,18.63,0,0,0,13.21-4.88A16.06,16.06,0,0,0,57.3,286a16.45,16.45,0,0,0-5.18-12.38,18,18,0,0,0-13-4.93,17.74,17.74,0,0,0-12.92,4.93Zm22.33,3.3a12,12,0,0,1,3.75,9,12.16,12.16,0,0,1-3.75,9.17,12.83,12.83,0,0,1-9.37,3.7,12.75,12.75,0,0,1-9.32-3.6,12,12,0,0,1-3.75-9.07,12.33,12.33,0,0,1,3.7-9.22,13,13,0,0,1,9.47-3.6,12.92,12.92,0,0,1,9.27,3.65Zm38.07,11.34a16.65,16.65,0,0,1-.64,5.62,7.09,7.09,0,0,1-2,2.86A10.73,10.73,0,0,1,77,299a11.51,11.51,0,0,1-5.23-1.13,7.77,7.77,0,0,1-3.3-3c-.74-1.23-1.08-3.45-1.08-6.61V269.18H62.53v19a24.32,24.32,0,0,0,.54,6,12.43,12.43,0,0,0,1.38,3.25,12.88,12.88,0,0,0,2,2.37c2.66,2.27,6.16,3.4,10.55,3.4s7.79-1.13,10.45-3.45a11.19,11.19,0,0,0,2-2.32,13.83,13.83,0,0,0,1.43-3.3,24.53,24.53,0,0,0,.54-5.87V269.18H86.64Zm38.22,7.05-22.68-26.13H98.28v33.63h4.54V276.92l22.48,25.88h4.14V269.18h-4.59Zm22.44,7.49a50.76,50.76,0,0,0,6.06-.25,18,18,0,0,0,3.5-1,16.9,16.9,0,0,0,9.47-9.07,17.14,17.14,0,0,0,1.28-6.46,16.81,16.81,0,0,0-2.37-8.73,15.67,15.67,0,0,0-6.36-6.06c-2.66-1.38-6.31-2.07-10.9-2.07H136.65v33.63Zm5.28-29.09a14.31,14.31,0,0,1,3.3,1.08,13.33,13.33,0,0,1,3.11,2.12,11.6,11.6,0,0,1,3.65,8.83,12.57,12.57,0,0,1-3.55,9.17,13,13,0,0,1-2.47,1.87,14.54,14.54,0,0,1-3.35,1.23,23.81,23.81,0,0,1-5.62.49h-6.16v-25h6a40.22,40.22,0,0,1,5.08.25Zm17.36,29.09h4.93l4.24-10h14.3l4.49,10h4.93L187.73,269h-3.35Zm11-14.25,5.13-12.18,5.42,12.18Zm22.73-15.09H215.2v29.34H220V273.47h11.73v-4.29h-28.1Zm32.69,29.34h4.83V269.18h-4.83Zm15.88-29.19a16.61,16.61,0,0,0-5.08,12.47,16.22,16.22,0,0,0,5.08,12.23,17.45,17.45,0,0,0,12.62,4.88,18.63,18.63,0,0,0,13.21-4.88A16.06,16.06,0,0,0,283.3,286a16.45,16.45,0,0,0-5.18-12.38,18,18,0,0,0-13-4.93,17.74,17.74,0,0,0-12.92,4.93Zm22.33,3.3a12,12,0,0,1,3.75,9,12.16,12.16,0,0,1-3.75,9.17,13.79,13.79,0,0,1-18.69.1,12,12,0,0,1-3.75-9.07,12.33,12.33,0,0,1,3.7-9.22,13.92,13.92,0,0,1,18.74,0Zm41.37,18.39-22.68-26.13h-3.89v33.63h4.54V276.92l22.48,25.88h4.14V269.18h-4.59Z"/><path d="M288.35,310a2,2,0,0,1,.78-.1,1.78,1.78,0,0,1,1.12.35,1.12,1.12,0,0,1,.44.9,1.1,1.1,0,0,1-.41.87,1.5,1.5,0,0,1-1,.35,2.66,2.66,0,0,1-1.42-.46v1a3.41,3.41,0,0,0,1.59.39,2.25,2.25,0,0,0,1.62-.59,2.06,2.06,0,0,0,.62-1.55,2,2,0,0,0-.63-1.52,2.26,2.26,0,0,0-1.61-.59h-.21v-1.7h2.11v-.86h-3Zm4.85-2.63a5.47,5.47,0,0,0,0,5,1.77,1.77,0,0,0,3.13,0,4.63,4.63,0,0,0,.6-2.49,4.56,4.56,0,0,0-.6-2.46,1.78,1.78,0,0,0-1.53-1,1.83,1.83,0,0,0-1.59,1Zm2.43.64a4.67,4.67,0,0,1,.31,1.87,4.32,4.32,0,0,1-.33,1.84,1,1,0,0,1-.88.68,1,1,0,0,1-.88-.68,4.58,4.58,0,0,1-.32-1.87,4.37,4.37,0,0,1,.33-1.85,1,1,0,0,1,.88-.68h0c.34,0,.63.23.84.69Zm3.57,5.21h1v-6.72h-1Zm4-4.47a6,6,0,0,0,0,4.39,8.24,8.24,0,0,0,.52,1.09,10.8,10.8,0,0,0,.81,1.07l.15.18h.54a7.25,7.25,0,0,1-1.42-4.5,9.87,9.87,0,0,1,.14-1.59,6.39,6.39,0,0,1,.4-1.46,10.29,10.29,0,0,1,.88-1.54h-.54a9.63,9.63,0,0,0-1.48,2.36Zm4.92,3.73a1.55,1.55,0,0,1-1.11-.4,1.43,1.43,0,0,1-.41-1.08,1.54,1.54,0,0,1,.38-1.06,1.28,1.28,0,0,1,1-.41,2.34,2.34,0,0,1,1.24.42V309a3.53,3.53,0,0,0-.68-.24,2.32,2.32,0,0,0-.61-.07,2.11,2.11,0,0,0-1.6.64,2.38,2.38,0,0,0-.61,1.69,2.21,2.21,0,0,0,.62,1.66,2.26,2.26,0,0,0,1.67.62,3.66,3.66,0,0,0,1.3-.25v-.87a2.93,2.93,0,0,1-1.17.3Zm3.24,1.56a5.38,5.38,0,0,0,.47-1,5.94,5.94,0,0,0,0-4.31,5.7,5.7,0,0,0-.52-1.09,9.51,9.51,0,0,0-.8-1.06l-.15-.18h-.54a7.14,7.14,0,0,1,.82,1.41,7.92,7.92,0,0,1,.45,1.49,8.76,8.76,0,0,1,.15,1.63,9,9,0,0,1-.13,1.51,6.75,6.75,0,0,1-.39,1.45,9.69,9.69,0,0,1-.9,1.61h.54a12.08,12.08,0,0,0,1-1.45Zm2.53-5.28a6,6,0,0,0,0,4.39,8.24,8.24,0,0,0,.52,1.09,10.8,10.8,0,0,0,.81,1.07l.15.18h.54a7.25,7.25,0,0,1-1.42-4.5,9.87,9.87,0,0,1,.14-1.59,6.39,6.39,0,0,1,.4-1.46,10.29,10.29,0,0,1,.88-1.54h-.54a9.63,9.63,0,0,0-1.48,2.36Zm3.91,1.44h.09a3.68,3.68,0,0,1,.76.15,1,1,0,0,1,.56.95,1,1,0,0,1-.3.77,1.08,1.08,0,0,1-.78.29,2.78,2.78,0,0,1-1.48-.47v1a3.17,3.17,0,0,0,1.48.37,2,2,0,0,0,1.48-.57,2,2,0,0,0,.59-1.46,2.12,2.12,0,0,0-.1-.67,1.66,1.66,0,0,0-.29-.54,1.49,1.49,0,0,0-.58-.38,1.63,1.63,0,0,0,.66-.59,1.69,1.69,0,0,0,.21-.87,1.72,1.72,0,0,0-.53-1.33,2.11,2.11,0,0,0-1.47-.48,2.82,2.82,0,0,0-1.28.3v.92a2.61,2.61,0,0,1,1.16-.33,1.25,1.25,0,0,1,.85.28,1,1,0,0,1,.32.73.9.9,0,0,1-.34.76,1.54,1.54,0,0,1-1,.26h-.06Zm4.85,3.84a5.38,5.38,0,0,0,.47-1,5.94,5.94,0,0,0,0-4.31,5.7,5.7,0,0,0-.52-1.09,9.51,9.51,0,0,0-.8-1.06l-.15-.18h-.54a7.14,7.14,0,0,1,.82,1.41,7.92,7.92,0,0,1,.45,1.49,8.76,8.76,0,0,1,.15,1.63,9,9,0,0,1-.13,1.51,6.75,6.75,0,0,1-.39,1.45,9.69,9.69,0,0,1-.9,1.61h.54a12.08,12.08,0,0,0,1-1.45Z"/><path d="M119.43,245.29H92.53v-14h26.9a7,7,0,0,1,0,14m0-19.86H86.65v32.72a2.94,2.94,0,0,0,5.87,0v-7h26.9a12.86,12.86,0,1,0,0-25.72"/><path d="M176.13,225.73a2.74,2.74,0,0,0-2.91,2.93v19.26c0,3.21-2,5.46-6,6.88a32.41,32.41,0,0,1-10.6,1.5,32.44,32.44,0,0,1-10.6-1.5c-4-1.43-6-3.68-6-6.89V228.67a2.91,2.91,0,1,0-5.82,0v19.26c0,5.27,2.7,9.18,8,11.63,3.76,1.74,8.6,2.63,14.39,2.63s10.68-.88,14.44-2.63c5.28-2.45,8-6.36,8-11.63V228.67a2.74,2.74,0,0,0-2.91-2.93"/><path d="M224.43,255.52H188.35V228.67a2.91,2.91,0,1,0-5.82,0v32.67h41.9a2.91,2.91,0,1,0,0-5.82"/><path d="M236,232.07a42.56,42.56,0,0,1,12.85-1.61,27.09,27.09,0,0,1,12.3,2.61c3.08,1.56,4.65,3.32,4.65,5.23a2.94,2.94,0,0,0,5.88,0c0-4-2.34-7.34-6.95-10-4.33-2.45-9.67-3.7-15.88-3.7a47.13,47.13,0,0,0-15,2c-5.18,1.79-7.8,4.58-7.8,8.31,0,2.65,1.22,6.24,7.06,8.31,2,.7,6.28,1.53,13,2.55l4.89.7a75.14,75.14,0,0,1,11.79,2.21c3,1,3,2.37,3,2.81,0,1-1.5,2.05-4.11,2.9a42.57,42.57,0,0,1-12.85,1.61,27.09,27.09,0,0,1-12.31-2.61c-3.08-1.56-4.65-3.32-4.65-5.23a2.94,2.94,0,0,0-5.87,0c0,4,2.34,7.34,6.95,10,4.33,2.46,9.67,3.7,15.88,3.7a47.14,47.14,0,0,0,15-2c5.18-1.79,7.8-4.58,7.8-8.31,0-2.65-1.18-6.22-6.79-8.25-2.31-.84-6.6-1.68-13.09-2.56l-4.92-.69a81.34,81.34,0,0,1-11.66-2.22c-2.21-.75-3.33-1.71-3.33-2.86,0-1,1.5-2.05,4.11-2.9"/><path d="M317.35,246.19a2.93,2.93,0,1,0,0-5.86H280.51v-9h36.85a2.93,2.93,0,1,0,0-5.86H274.63v35.65h42.72a2.93,2.93,0,1,0,0-5.87H280.51v-9Z"/><path d="M32.18,260.8A1.66,1.66,0,0,0,34,259V247.38c0-1.94,1.2-3.3,3.67-4.16a20.07,20.07,0,0,1,6.5-.91,20.09,20.09,0,0,1,6.49.91c2.47.86,3.67,2.22,3.67,4.16V259a1.78,1.78,0,0,0,3.57,0V247.38c0-3.18-1.65-5.55-4.91-7a21.35,21.35,0,0,0-8.82-1.59,21.44,21.44,0,0,0-8.85,1.59c-3.24,1.48-4.88,3.84-4.88,7V259a1.66,1.66,0,0,0,1.78,1.77"/><path d="M82.94,252.16a1.61,1.61,0,0,0,0-3.23H62.77v-5H82.94a1.61,1.61,0,0,0,0-3.23H59.55v19.61H82.94a1.61,1.61,0,0,0,0-3.23H62.77v-5Z"/><path d="M24.84,241.38a11.35,11.35,0,0,0-1.36-.81,20.53,20.53,0,0,0-9.17-1.8,20.44,20.44,0,0,0-9.14,1.8,11.4,11.4,0,0,0-1.39.83,8.21,8.21,0,0,0-3.69,7.16v3.59a7.21,7.21,0,0,0,3.69,6.44,11.73,11.73,0,0,0,1.39.75,22.4,22.4,0,0,0,9.14,1.62,22.5,22.5,0,0,0,9.17-1.62,11.68,11.68,0,0,0,1.36-.73,7.22,7.22,0,0,0,3.69-6.45v-3.59A8.23,8.23,0,0,0,24.84,241.38Zm0,10.76c0,2-1.24,3.38-3.8,4.26a21.11,21.11,0,0,1-6.73.93,21.13,21.13,0,0,1-6.73-.93c-2.56-.88-3.8-2.27-3.8-4.26v-3.59c0-2.2,1.24-3.75,3.8-4.73a19.16,19.16,0,0,1,6.73-1,19.15,19.15,0,0,1,6.73,1c2.56,1,3.8,2.52,3.8,4.73Z"/><path d="M325.7,274.63a2.71,2.71,0,1,1,2.72-2.72A2.69,2.69,0,0,1,325.7,274.63Zm0-5.15a2.44,2.44,0,1,0,2.42,2.43A2.42,2.42,0,0,0,325.72,269.47Zm.6,2.71.76,1.07h-.64l-.69-1h-.59v1h-.54v-2.84h1.27c.66,0,1.09.34,1.09.91A.85.85,0,0,1,326.32,272.19Zm-.46-1.28h-.7v.9h.7c.35,0,.56-.17.56-.45S326.21,270.9,325.86,270.9Z"/></g></svg>