<?xml version="1.0" encoding="utf-8"?>
<!-- Generator: Adobe Illustrator 21.1.0, SVG Export Plug-In . SVG Version: 6.00 Build 0)  -->
<svg version="1.1" id="Layer_1" xmlns="http://www.w3.org/2000/svg" xmlns:xlink="http://www.w3.org/1999/xlink" x="0px" y="0px"
	 width="100px" height="100px" viewBox="0 0 100 100" enable-background="new 0 0 100 100" xml:space="preserve">
<g>
	<linearGradient id="SVGID_1_" gradientUnits="userSpaceOnUse" x1="3.719335e-04" y1="-3.719470e-04" x2="100.0004" y2="99.9996">
		<stop  offset="0" style="stop-color:#00A8DE"/>
		<stop  offset="0.5" style="stop-color:#333390"/>
		<stop  offset="1" style="stop-color:#E81387"/>
	</linearGradient>
	<path fill="url(#SVGID_1_)" d="M50,4C24.688,4,4,24.684,4,50c0,25.312,20.688,46,46,46s46-20.688,46-46C96,24.684,75.312,4,50,4z
		 M72.625,69.797l-2.828,2.832L50,52.828L30.199,72.629l-2.828-2.832L47.172,50L27.371,30.199l2.828-2.828L50,47.172l19.797-19.801
		l2.828,2.828L52.828,50L72.625,69.797z"/>
	<polygon fill="#FFFFFF" points="69.797,27.371 50,47.172 30.199,27.371 27.371,30.199 47.172,50 27.371,69.797 30.199,72.629 
		50,52.828 69.797,72.629 72.625,69.797 52.828,50 72.625,30.199 	"/>
</g>
</svg>
