<svg width="226" height="23" viewBox="0 0 226 23" fill="none" xmlns="http://www.w3.org/2000/svg">
<path d="M7.50175 1.72199C5.67575 1.72199 3.18975 1.89799 2.08975 1.89799H1.36375C1.03375 1.89799 0.81375 2.02999 0.81375 2.20599C0.81375 2.35999 1.07775 2.49199 1.31975 2.53599C2.63975 2.73399 2.66175 3.06399 2.70575 4.47199C2.79375 6.20999 2.81575 8.76199 2.81575 10.016C2.81575 11.226 2.79375 11.952 2.74975 13.008C2.68375 14.812 2.57375 15.208 1.09975 15.384C0.81375 15.406 0.59375 15.538 0.59375 15.714C0.59375 15.89 0.81375 16.044 1.29775 16.044C1.64975 16.044 2.06775 16.044 2.52975 16.066C3.95975 16.154 5.96175 16.22 6.86375 16.22C8.93175 16.22 10.7798 15.758 12.0778 15.01C13.5958 14.152 15.5758 11.864 15.5758 8.67399C15.5758 6.93599 14.7398 4.97799 13.5518 3.83399C12.6718 3.01999 10.5818 1.72199 7.50175 1.72199ZM6.53375 2.40399C8.16175 2.40399 9.96575 2.90999 11.0218 3.74599C12.3858 4.84599 13.2658 6.86999 13.2658 8.69599C13.2658 11.072 12.3638 13.03 11.0438 14.152C9.81175 15.186 8.07375 15.56 7.10575 15.56C6.64375 15.56 5.76375 15.274 5.36775 14.988C5.27975 14.9 4.94975 14.592 4.88375 13.976C4.81775 13.008 4.79575 11.71 4.79575 10.192V7.00199C4.79575 5.04399 4.83975 3.21799 4.88375 2.88799C4.90575 2.77799 4.94975 2.71199 5.10375 2.60199C5.30175 2.46999 5.80775 2.40399 6.53375 2.40399Z" fill="white"/>
<path d="M22.323 7.08999C20.827 7.08999 19.683 7.72799 19.023 8.32199C18.187 9.02599 17.483 10.104 17.483 11.754C17.483 12.876 18.165 14.35 19.111 15.12C19.925 15.802 21.047 16.264 22.059 16.264C23.049 16.264 23.973 16.022 24.875 15.384C25.689 14.856 26.789 13.448 26.789 11.6C26.789 8.80599 24.501 7.08999 22.323 7.08999ZM21.905 7.77199C22.499 7.77199 23.247 8.12399 23.709 8.62999C24.501 9.59799 24.743 10.896 24.743 11.996C24.743 12.986 24.347 14.328 23.797 14.922C23.247 15.472 22.785 15.604 22.543 15.604C21.509 15.604 20.321 14.812 19.793 13.206C19.595 12.656 19.529 11.952 19.529 11.226C19.529 9.99399 19.991 8.89399 20.541 8.36599C21.003 7.99199 21.465 7.77199 21.905 7.77199Z" fill="white"/>
<path d="M27.3018 7.52999C27.3018 7.68399 27.4118 7.77199 27.7418 7.90399C28.2918 8.05799 28.5117 8.34399 28.6877 8.65199C29.2597 9.64199 30.4037 12.348 30.9317 13.756C31.4377 15.032 31.5258 15.34 31.7458 16.022C31.8118 16.264 31.9438 16.418 32.0538 16.418C32.2298 16.418 32.4718 16.176 32.5818 15.846C32.9558 14.702 32.9778 14.482 33.5938 12.92C34.2538 11.38 35.0237 9.37799 35.3977 8.78399C35.7497 8.34399 35.9917 8.07999 36.4977 7.88199C36.8497 7.74999 36.9818 7.66199 36.9818 7.52999C36.9818 7.39799 36.7397 7.28799 36.5417 7.28799C36.1237 7.28799 35.4417 7.39799 35.0457 7.39799C34.5177 7.39799 34.2317 7.33199 33.8357 7.33199C33.5497 7.33199 33.3957 7.44199 33.3957 7.57399C33.3957 7.72799 33.5717 7.81599 33.7697 7.88199C34.4297 8.12399 34.6277 8.27799 34.4517 8.82799C34.2317 9.50999 33.0878 12.502 32.8018 13.118C32.7578 13.228 32.6917 13.272 32.6257 13.206C32.4717 13.052 31.3497 10.522 30.7337 8.69599C30.6237 8.40999 30.5798 8.12399 31.1958 7.94799C31.4818 7.85999 31.6798 7.74999 31.6798 7.59599C31.6798 7.44199 31.5037 7.35399 31.1737 7.35399C30.9097 7.35399 30.3378 7.39799 29.7658 7.39799C29.5238 7.39799 28.2257 7.28799 27.8517 7.28799C27.6317 7.28799 27.3018 7.39799 27.3018 7.52999Z" fill="white"/>
<path d="M41.7346 7.13399C41.3166 7.13399 40.5906 7.24399 40.0186 7.50799C38.2806 8.32199 37.3566 10.082 37.3566 11.842C37.3566 14.394 38.9186 16.22 41.3166 16.22C42.7026 16.22 43.8466 15.626 44.5946 14.526C44.6606 14.394 44.7706 14.152 44.7706 13.976C44.7706 13.888 44.7046 13.712 44.5726 13.712C44.4846 13.712 44.3746 13.866 44.2866 13.976C43.9126 14.526 43.2526 14.768 42.3066 14.768C41.2506 14.768 40.3266 14.24 39.8206 13.58C39.3586 12.964 39.0286 11.952 39.0286 11.182C39.0286 10.94 39.0506 10.588 39.1166 10.412C39.1386 10.324 39.2486 10.236 39.3146 10.236C40.3486 10.258 44.0446 10.258 44.2866 10.258C44.5286 10.258 44.7266 9.97199 44.7266 9.83999C44.7266 9.06999 44.4186 8.43199 43.9566 7.96999C43.3846 7.41999 42.5266 7.13399 41.7346 7.13399ZM41.5146 7.68399C42.2846 7.68399 42.9226 8.40999 42.9226 9.02599C42.9226 9.48799 42.6586 9.61999 42.1746 9.61999C41.0746 9.64199 40.0186 9.64199 39.4466 9.61999C39.3806 9.61999 39.2926 9.48799 39.3366 9.37799C39.7106 8.36599 40.5466 7.68399 41.5146 7.68399Z" fill="white"/>
<path d="M49.1147 7.39799C49.0268 7.39799 48.9167 7.28799 48.9167 7.22199C48.9167 6.58399 48.9167 6.25399 48.9167 6.16599C48.9167 6.09999 48.6967 5.90199 48.5868 5.90199C48.4987 5.90199 48.3447 6.09999 48.0807 6.38599C47.7507 6.80399 47.0467 7.30999 46.2107 7.94799C46.1227 8.01399 46.0787 8.10199 46.0787 8.18999C46.0787 8.27799 46.1887 8.40999 46.3647 8.47599C46.8267 8.58599 47.2227 8.73999 47.2227 8.89399C47.2227 9.66399 47.1347 12.964 47.1347 13.778C47.1347 14.438 47.1787 14.878 47.4207 15.252C47.7287 15.736 48.4987 16.264 49.4007 16.264C50.3907 16.264 51.1827 15.868 51.7767 15.274C51.9307 15.12 52.0847 14.9 52.0847 14.702C52.0847 14.504 51.9747 14.46 51.9747 14.46C51.8867 14.46 51.8207 14.482 51.6227 14.592C51.2927 14.79 50.8307 14.922 50.5667 14.922C50.1267 14.922 49.6647 14.834 49.2907 14.504C49.0487 14.262 48.8947 13.976 48.8947 13.426C48.8947 12.326 48.9167 9.33399 48.9607 8.76199C48.9607 8.71799 49.0487 8.60799 49.1367 8.60799C49.3787 8.60799 51.4027 8.60799 51.4907 8.60799C51.6447 8.60799 52.0627 8.56399 52.0627 8.34399C52.0627 8.07999 51.9967 7.44199 51.9967 7.50799C51.9747 7.41999 51.7768 7.30999 51.7327 7.30999C51.6448 7.30999 49.5987 7.39799 49.1147 7.39799Z" fill="white"/>
<path d="M56.9557 7.08999C56.5597 7.08999 55.5697 7.44199 54.8877 7.92599C53.7877 8.65199 53.1937 9.26799 53.1937 9.88399C53.1937 10.016 53.3257 10.192 53.4577 10.192C53.5677 10.192 54.7777 9.59799 54.9977 9.42199C55.0417 9.37799 55.1077 9.26799 55.1077 9.20199C55.0857 8.69599 55.1517 8.34399 55.2617 8.27799C55.4157 8.16799 55.7017 8.05799 56.1197 8.05799C57.1977 8.05799 57.7917 8.95999 57.7917 9.50999C57.8137 9.77399 57.7697 11.094 57.7477 11.292C57.7477 11.424 57.6157 11.534 57.1537 11.688C56.6697 11.842 54.8657 12.326 54.5137 12.48C54.2057 12.612 53.8537 12.722 53.6337 13.008C53.3917 13.316 53.2157 13.756 53.2157 14.152C53.2157 15.274 53.9857 16.22 54.7777 16.22C54.9317 16.22 55.4377 16.176 55.6797 16.088C55.9217 16 56.8457 15.626 57.6157 15.098C57.6597 15.076 57.7477 15.142 57.7697 15.186C58.0337 16 58.6717 16.264 59.1997 16.264C60.2557 16.264 61.2457 15.296 61.2457 14.878C61.2457 14.856 61.2457 14.702 61.2017 14.636C61.1577 14.57 61.1357 14.548 61.0697 14.57C60.8057 14.724 60.3217 14.9 60.2337 14.9C60.0137 14.9 59.3757 14.768 59.3757 13.844C59.3757 13.602 59.4637 10.874 59.4637 10.016C59.4637 9.06999 59.3097 8.60799 59.0017 8.16799C58.6717 7.68399 58.0997 7.08999 56.9557 7.08999ZM56.2957 15.032C55.8557 15.032 54.9757 14.68 54.9757 13.712C54.9757 13.162 55.1517 13.008 55.3937 12.876C55.9437 12.568 56.9997 12.216 57.5717 12.216C57.6377 12.216 57.7257 12.326 57.7257 12.392C57.7257 12.898 57.7037 13.69 57.6817 14.152C57.6597 14.218 57.5497 14.614 57.4177 14.68C57.0437 14.9 56.6037 15.032 56.2957 15.032Z" fill="white"/>
<path d="M64.4821 16C64.9441 16 66.0441 16.066 66.1981 16.066C66.4621 16.066 66.7481 15.978 66.7481 15.824C66.7481 15.692 66.6161 15.56 66.2641 15.45C65.7141 15.274 65.2741 15.208 65.2521 14.526C65.2301 13.756 65.2081 12.876 65.2081 11.754C65.2081 10.5 65.3181 7.59599 65.3401 7.26599C65.3401 7.22199 65.2301 7.02399 65.1201 7.02399C64.7901 7.11199 63.6901 7.59599 62.8321 7.77199C62.5901 7.83799 62.3701 8.01399 62.3701 8.16799C62.3701 8.23399 62.4361 8.32199 62.5681 8.43199C63.1841 8.87199 63.4261 9.06999 63.4481 9.22399C63.4921 9.48799 63.4701 11.688 63.4701 12.348C63.4701 13.184 63.4481 14.548 63.3821 14.856C63.3161 15.076 63.0081 15.34 62.5021 15.494C62.1281 15.582 61.9741 15.692 61.9741 15.824C61.9741 15.978 62.2161 16.088 62.5461 16.088C62.9421 16.088 63.7561 16 64.4821 16ZM64.4601 2.60199C64.1301 2.60199 63.7781 2.71199 63.5361 2.93199C63.3381 3.15199 63.2501 3.52599 63.2501 3.74599C63.2501 4.14199 63.4261 4.38399 63.6021 4.58199C63.8221 4.77999 64.1961 4.86799 64.3501 4.86799C64.8121 4.86799 65.4501 4.36199 65.4501 3.74599C65.4501 3.32799 65.0981 2.60199 64.4601 2.60199Z" fill="white"/>
<path d="M67.9105 1.54599C67.9105 1.63399 67.9985 1.72199 68.3505 1.96399C68.8345 2.29399 68.8785 2.42599 68.8785 2.60199C68.9445 3.21799 68.9445 5.52799 68.9445 7.04599C68.9445 10.522 68.8785 12.876 68.8125 13.8C68.7245 14.9 68.6585 15.274 67.7125 15.494C67.4705 15.538 67.2285 15.67 67.2285 15.824C67.2285 15.978 67.3825 16.066 67.8445 16.066C68.3065 16.066 69.2965 16 69.8025 16C70.1985 16 71.2105 16.066 71.7385 16.066C72.0025 16.066 72.3105 16 72.3105 15.824C72.3105 15.692 72.1345 15.582 71.8265 15.472C70.8805 15.23 70.7925 14.966 70.7265 14.504C70.6165 13.888 70.6605 9.97199 70.6605 7.06799C70.6605 4.05399 70.7925 1.14999 70.8585 0.555987C70.8585 0.467987 70.7045 0.291986 70.6385 0.335986C70.0005 0.731987 69.2305 0.885987 68.2405 1.21599C68.0205 1.30399 67.9105 1.45799 67.9105 1.54599Z" fill="white"/>
<path d="M84.3943 1.72199C82.5683 1.72199 80.0823 1.89799 78.9823 1.89799H78.2563C77.9263 1.89799 77.7063 2.02999 77.7063 2.20599C77.7063 2.35999 77.9703 2.49199 78.2123 2.53599C79.5323 2.73399 79.5543 3.06399 79.5983 4.47199C79.6863 6.20999 79.7083 8.76199 79.7083 10.016C79.7083 11.226 79.6863 11.952 79.6423 13.008C79.5763 14.812 79.4663 15.208 77.9923 15.384C77.7063 15.406 77.4863 15.538 77.4863 15.714C77.4863 15.89 77.7063 16.044 78.1903 16.044C78.5423 16.044 78.9603 16.044 79.4223 16.066C80.8523 16.154 82.8543 16.22 83.7563 16.22C85.8243 16.22 87.6723 15.758 88.9703 15.01C90.4883 14.152 92.4683 11.864 92.4683 8.67399C92.4683 6.93599 91.6323 4.97799 90.4443 3.83399C89.5643 3.01999 87.4743 1.72199 84.3943 1.72199ZM83.4263 2.40399C85.0543 2.40399 86.8583 2.90999 87.9143 3.74599C89.2783 4.84599 90.1583 6.86999 90.1583 8.69599C90.1583 11.072 89.2563 13.03 87.9363 14.152C86.7043 15.186 84.9663 15.56 83.9983 15.56C83.5363 15.56 82.6563 15.274 82.2603 14.988C82.1723 14.9 81.8423 14.592 81.7763 13.976C81.7103 13.008 81.6883 11.71 81.6883 10.192V7.00199C81.6883 5.04399 81.7323 3.21799 81.7763 2.88799C81.7983 2.77799 81.8423 2.71199 81.9963 2.60199C82.1943 2.46999 82.7003 2.40399 83.4263 2.40399Z" fill="white"/>
<path d="M98.7756 7.13399C98.3576 7.13399 97.6316 7.24399 97.0596 7.50799C95.3216 8.32199 94.3976 10.082 94.3976 11.842C94.3976 14.394 95.9596 16.22 98.3576 16.22C99.7436 16.22 100.888 15.626 101.636 14.526C101.702 14.394 101.812 14.152 101.812 13.976C101.812 13.888 101.746 13.712 101.614 13.712C101.526 13.712 101.416 13.866 101.328 13.976C100.954 14.526 100.294 14.768 99.3476 14.768C98.2916 14.768 97.3676 14.24 96.8616 13.58C96.3996 12.964 96.0696 11.952 96.0696 11.182C96.0696 10.94 96.0916 10.588 96.1576 10.412C96.1796 10.324 96.2896 10.236 96.3556 10.236C97.3896 10.258 101.086 10.258 101.328 10.258C101.57 10.258 101.768 9.97199 101.768 9.83999C101.768 9.06999 101.46 8.43199 100.998 7.96999C100.426 7.41999 99.5676 7.13399 98.7756 7.13399ZM98.5556 7.68399C99.3256 7.68399 99.9636 8.40999 99.9636 9.02599C99.9636 9.48799 99.6996 9.61999 99.2156 9.61999C98.1156 9.64199 97.0596 9.64199 96.4876 9.61999C96.4216 9.61999 96.3336 9.48799 96.3776 9.37799C96.7516 8.36599 97.5876 7.68399 98.5556 7.68399Z" fill="white"/>
<path d="M106.552 7.08999C105.782 7.08999 105.166 7.28799 104.726 7.55199C103.89 8.05799 103.494 8.80599 103.494 9.59799C103.494 10.632 104.198 11.424 104.88 11.864C105.584 12.282 105.738 12.414 106.288 12.788C106.97 13.228 107.256 13.668 107.256 14.196C107.256 14.614 107.08 15.098 106.75 15.362C106.53 15.56 106.156 15.692 105.87 15.692C105.122 15.692 104.484 15.274 103.846 14.108C103.714 13.866 103.56 13.602 103.362 13.602C103.252 13.602 103.186 13.8 103.186 14.086C103.186 14.746 103.472 15.67 103.538 15.78C103.912 16.088 105.012 16.264 105.694 16.264C106.354 16.264 107.19 16.022 107.608 15.736C108.202 15.34 108.906 14.614 108.906 13.58C108.906 12.59 108.466 11.842 107.102 11.05C105.716 10.28 104.99 9.72999 104.99 8.95999C104.99 8.47599 105.43 7.66199 106.244 7.66199C106.97 7.66199 107.542 8.10199 108.026 9.11399C108.136 9.35599 108.29 9.53199 108.4 9.53199C108.554 9.53199 108.664 9.31199 108.664 9.11399C108.664 8.95999 108.598 8.16799 108.598 7.79399C108.576 7.63999 108.466 7.50799 108.4 7.46399C108.356 7.44199 107.938 7.26599 107.696 7.22199C107.432 7.15599 106.97 7.08999 106.552 7.08999Z" fill="white"/>
<path d="M112.693 16C113.155 16 114.255 16.066 114.409 16.066C114.673 16.066 114.959 15.978 114.959 15.824C114.959 15.692 114.827 15.56 114.475 15.45C113.925 15.274 113.485 15.208 113.463 14.526C113.441 13.756 113.419 12.876 113.419 11.754C113.419 10.5 113.529 7.59599 113.551 7.26599C113.551 7.22199 113.441 7.02399 113.331 7.02399C113.001 7.11199 111.901 7.59599 111.043 7.77199C110.801 7.83799 110.581 8.01399 110.581 8.16799C110.581 8.23399 110.647 8.32199 110.779 8.43199C111.395 8.87199 111.637 9.06999 111.659 9.22399C111.703 9.48799 111.681 11.688 111.681 12.348C111.681 13.184 111.659 14.548 111.593 14.856C111.527 15.076 111.219 15.34 110.713 15.494C110.339 15.582 110.185 15.692 110.185 15.824C110.185 15.978 110.427 16.088 110.757 16.088C111.153 16.088 111.967 16 112.693 16ZM112.671 2.60199C112.341 2.60199 111.989 2.71199 111.747 2.93199C111.549 3.15199 111.461 3.52599 111.461 3.74599C111.461 4.14199 111.637 4.38399 111.813 4.58199C112.033 4.77999 112.407 4.86799 112.561 4.86799C113.023 4.86799 113.661 4.36199 113.661 3.74599C113.661 3.32799 113.309 2.60199 112.671 2.60199Z" fill="white"/>
<path d="M119.883 7.00199C118.959 7.00199 118.167 7.26599 117.529 7.74999C116.671 8.38799 116.209 9.17999 116.209 10.236C116.209 11.842 117.265 12.678 117.903 13.03C117.969 13.096 118.013 13.184 117.969 13.228C117.617 13.602 116.605 14.152 116.297 14.394C116.253 14.438 116.187 14.57 116.187 14.614C116.187 15.34 116.495 15.934 116.957 16.242C117.243 16.462 117.661 16.616 117.837 16.682C117.881 16.748 117.925 16.792 117.881 16.836C117.595 17.078 116.913 17.54 116.385 17.98C116.165 18.134 115.747 18.42 115.747 19.344C115.747 19.982 116.143 20.774 116.781 21.258C117.683 21.918 118.673 22.072 119.553 22.072C120.389 22.072 121.555 21.896 122.743 21.126C123.667 20.51 124.855 19.388 124.855 17.716C124.855 17.1 124.547 16.286 123.909 15.758C123.535 15.45 123.051 15.252 122.853 15.23C122.149 15.12 119.773 15.076 118.783 15.032C118.541 15.01 117.903 14.636 117.903 14.086C117.903 13.91 118.343 13.492 118.563 13.382C118.629 13.316 118.739 13.316 118.871 13.338C119.025 13.36 119.531 13.382 119.663 13.382C120.191 13.382 121.159 13.272 122.127 12.546C122.963 11.886 123.359 10.984 123.359 9.77399C123.359 9.39999 123.293 9.02599 123.183 8.71799C123.161 8.65199 123.227 8.54199 123.315 8.54199C123.865 8.58599 124.613 8.58599 124.745 8.58599C124.833 8.58599 125.163 8.16799 125.163 7.83799C125.163 7.74999 125.097 7.61799 124.965 7.59599C124.525 7.50799 122.919 7.46399 122.413 7.41999C122.259 7.41999 122.061 7.33199 121.819 7.28799C121.181 7.13399 120.741 7.00199 119.883 7.00199ZM119.685 7.55199C120.279 7.55199 120.763 7.90399 121.181 8.49799C121.533 9.00399 121.665 9.79599 121.665 10.17C121.665 11.094 121.401 12.128 120.895 12.48C120.587 12.678 120.323 12.788 120.169 12.788C118.805 12.788 118.079 11.182 118.079 10.038C118.079 9.04799 118.299 8.45399 118.629 8.07999C118.827 7.81599 119.289 7.55199 119.685 7.55199ZM120.389 21.104C119.597 21.104 118.827 20.906 118.255 20.444C117.793 20.048 117.463 19.498 117.463 18.816C117.463 18.288 117.749 17.54 118.387 17.078C118.519 16.99 118.893 16.836 119.553 16.836C120.521 16.836 121.159 16.836 121.797 16.968C122.325 17.078 122.743 17.32 122.963 17.628C123.227 17.958 123.293 18.464 123.293 18.75C123.293 19.366 122.985 20.202 122.127 20.73C121.819 20.906 121.181 21.104 120.389 21.104Z" fill="white"/>
<path d="M126.033 8.18999C126.033 8.25599 126.121 8.34399 126.407 8.56399C126.869 8.95999 126.957 9.17999 126.957 9.42199C126.957 11.644 126.891 13.536 126.825 14.196C126.759 14.988 126.649 15.208 125.923 15.428C125.681 15.494 125.461 15.604 125.461 15.758C125.461 15.956 125.703 16.066 126.033 16.066C126.407 16.066 127.089 16 127.903 16C128.365 16 129.025 16.022 129.311 16.022C129.641 16.022 129.883 15.912 129.883 15.758C129.883 15.626 129.707 15.472 129.487 15.406C128.805 15.208 128.717 15.032 128.695 14.724C128.673 14.46 128.651 9.72999 128.673 9.44399C128.673 9.26799 128.805 8.98199 128.893 8.91599C129.267 8.58599 129.817 8.27799 130.741 8.27799C131.225 8.27799 131.885 8.49799 132.127 8.69599C132.369 8.89399 132.721 9.55399 132.721 10.258C132.721 10.896 132.721 13.558 132.677 14.284C132.633 15.01 132.501 15.208 131.995 15.406C131.709 15.494 131.467 15.626 131.467 15.78C131.467 15.978 131.775 16.044 132.017 16.044C132.303 16.044 133.029 16 133.579 16C134.195 16 134.767 16.044 135.295 16.044C135.625 16.044 135.933 15.934 135.933 15.78C135.933 15.648 135.801 15.516 135.383 15.406C134.833 15.252 134.613 14.966 134.569 14.636C134.547 14.328 134.503 11.072 134.503 10.632C134.503 9.53199 134.239 8.51999 133.733 7.94799C133.425 7.59599 132.809 7.11199 131.731 7.11199C130.785 7.11199 129.685 7.70599 128.805 8.32199C128.783 8.32199 128.673 8.36599 128.673 8.25599C128.673 8.05799 128.739 7.50799 128.739 7.17799C128.739 7.08999 128.629 6.84799 128.541 6.84799C128.431 6.84799 128.189 6.95799 127.947 7.11199C127.639 7.30999 126.803 7.61799 126.407 7.74999C126.253 7.81599 126.033 8.03599 126.033 8.18999Z" fill="white"/>
<path d="M146.816 1.52399C145.254 1.52399 144.22 1.96399 143.516 2.57999C142.79 3.21799 142.284 4.22999 142.284 5.30799C142.284 7.19999 143.582 8.47599 145.54 9.72999C147.784 11.16 148.224 12.128 148.224 13.074C148.224 14.614 147.036 15.626 145.65 15.626C144.748 15.626 143.34 15.032 142.746 13.8C142.438 13.118 142.086 12.568 141.91 12.568C141.822 12.568 141.602 12.876 141.602 12.986C141.602 13.382 141.8 14.372 141.932 15.12C141.932 15.186 142.24 15.692 142.46 15.802C143.186 16.154 144.572 16.374 145.408 16.374C146.42 16.374 147.696 16.044 148.4 15.582C149.61 14.812 150.248 13.558 150.248 12.458C150.248 10.61 149.082 9.39999 147.168 8.16799C145.21 6.86999 144.132 6.18799 144.132 4.69199C144.132 3.21799 145.21 2.16199 146.596 2.16199C147.234 2.16199 147.784 2.35999 148.202 2.68999C148.422 2.84398 148.994 3.50399 149.258 4.27399C149.346 4.58199 149.632 4.73599 149.808 4.73599C149.962 4.73599 149.984 4.53799 149.984 4.16399C149.984 4.07599 149.786 2.71199 149.764 2.33799C149.742 2.27199 149.61 1.94199 149.478 1.89799C149.038 1.83199 147.894 1.52399 146.816 1.52399Z" fill="white"/>
<path d="M154.732 7.39799C154.644 7.39799 154.534 7.28799 154.534 7.22199C154.534 6.58399 154.534 6.25399 154.534 6.16599C154.534 6.09999 154.314 5.90199 154.204 5.90199C154.116 5.90199 153.962 6.09999 153.698 6.38599C153.368 6.80399 152.664 7.30999 151.828 7.94799C151.74 8.01399 151.696 8.10199 151.696 8.18999C151.696 8.27799 151.806 8.40999 151.982 8.47599C152.444 8.58599 152.84 8.73999 152.84 8.89399C152.84 9.66399 152.752 12.964 152.752 13.778C152.752 14.438 152.796 14.878 153.038 15.252C153.346 15.736 154.116 16.264 155.018 16.264C156.008 16.264 156.8 15.868 157.394 15.274C157.548 15.12 157.702 14.9 157.702 14.702C157.702 14.504 157.592 14.46 157.592 14.46C157.504 14.46 157.438 14.482 157.24 14.592C156.91 14.79 156.448 14.922 156.184 14.922C155.744 14.922 155.282 14.834 154.908 14.504C154.666 14.262 154.512 13.976 154.512 13.426C154.512 12.326 154.534 9.33399 154.578 8.76199C154.578 8.71799 154.666 8.60799 154.754 8.60799C154.996 8.60799 157.02 8.60799 157.108 8.60799C157.262 8.60799 157.68 8.56399 157.68 8.34399C157.68 8.07999 157.614 7.44199 157.614 7.50799C157.592 7.41999 157.394 7.30999 157.35 7.30999C157.262 7.30999 155.216 7.39799 154.732 7.39799Z" fill="white"/>
<path d="M158.838 8.25599C158.838 8.34399 159.124 8.51999 159.608 8.89399C159.828 9.04799 159.828 9.33399 159.828 9.59799C159.828 11.05 159.828 13.14 159.828 13.69C159.806 15.01 159.74 15.23 158.904 15.516C158.75 15.582 158.464 15.67 158.464 15.802C158.464 16 158.684 16.088 158.926 16.088C159.454 16.088 159.762 16 160.378 16C161.654 16 162.512 16.11 163.084 16.11C163.436 16.11 163.634 16.022 163.634 15.89C163.634 15.802 163.568 15.648 163.216 15.538C162.908 15.45 162.49 15.34 162.226 15.296C161.852 15.208 161.698 14.79 161.654 14.152C161.632 13.822 161.544 9.88399 161.544 9.44399C161.544 9.28999 161.61 9.11399 161.764 8.95999C161.962 8.73999 162.292 8.69599 162.622 8.69599C163.062 8.69599 163.634 8.98199 163.876 9.20199C163.942 9.24599 164.162 9.28999 164.206 9.26799C164.36 9.20199 164.888 8.56399 165.152 8.18999C165.218 8.07999 165.284 7.92599 165.284 7.85999C165.284 7.66199 165.064 7.08999 164.14 7.08999C163.458 7.08999 162.49 7.66199 161.654 8.45399C161.632 8.49799 161.522 8.45399 161.522 8.36599C161.522 7.94799 161.566 7.55199 161.566 7.15599C161.566 7.08999 161.456 6.91399 161.346 6.91399C161.28 6.91399 161.148 6.97999 160.884 7.15599C160.62 7.30999 159.872 7.63999 159.124 7.90399C158.904 7.96999 158.838 8.21199 158.838 8.25599Z" fill="white"/>
<path d="M169.942 7.08999C169.546 7.08999 168.556 7.44199 167.874 7.92599C166.774 8.65199 166.18 9.26799 166.18 9.88399C166.18 10.016 166.312 10.192 166.444 10.192C166.554 10.192 167.764 9.59799 167.984 9.42199C168.028 9.37799 168.094 9.26799 168.094 9.20199C168.072 8.69599 168.138 8.34399 168.248 8.27799C168.402 8.16799 168.688 8.05799 169.106 8.05799C170.184 8.05799 170.778 8.95999 170.778 9.50999C170.8 9.77399 170.756 11.094 170.734 11.292C170.734 11.424 170.602 11.534 170.14 11.688C169.656 11.842 167.852 12.326 167.5 12.48C167.192 12.612 166.84 12.722 166.62 13.008C166.378 13.316 166.202 13.756 166.202 14.152C166.202 15.274 166.972 16.22 167.764 16.22C167.918 16.22 168.424 16.176 168.666 16.088C168.908 16 169.832 15.626 170.602 15.098C170.646 15.076 170.734 15.142 170.756 15.186C171.02 16 171.658 16.264 172.186 16.264C173.242 16.264 174.232 15.296 174.232 14.878C174.232 14.856 174.232 14.702 174.188 14.636C174.144 14.57 174.122 14.548 174.056 14.57C173.792 14.724 173.308 14.9 173.22 14.9C173 14.9 172.362 14.768 172.362 13.844C172.362 13.602 172.45 10.874 172.45 10.016C172.45 9.06999 172.296 8.60799 171.988 8.16799C171.658 7.68399 171.086 7.08999 169.942 7.08999ZM169.282 15.032C168.842 15.032 167.962 14.68 167.962 13.712C167.962 13.162 168.138 13.008 168.38 12.876C168.93 12.568 169.986 12.216 170.558 12.216C170.624 12.216 170.712 12.326 170.712 12.392C170.712 12.898 170.69 13.69 170.668 14.152C170.646 14.218 170.536 14.614 170.404 14.68C170.03 14.9 169.59 15.032 169.282 15.032Z" fill="white"/>
<path d="M177.699 7.39799C177.611 7.39799 177.501 7.28799 177.501 7.22199C177.501 6.58399 177.501 6.25399 177.501 6.16599C177.501 6.09999 177.281 5.90199 177.171 5.90199C177.083 5.90199 176.929 6.09999 176.665 6.38599C176.335 6.80399 175.631 7.30999 174.795 7.94799C174.707 8.01399 174.663 8.10199 174.663 8.18999C174.663 8.27799 174.773 8.40999 174.949 8.47599C175.411 8.58599 175.807 8.73999 175.807 8.89399C175.807 9.66399 175.719 12.964 175.719 13.778C175.719 14.438 175.763 14.878 176.005 15.252C176.313 15.736 177.083 16.264 177.985 16.264C178.975 16.264 179.767 15.868 180.361 15.274C180.515 15.12 180.669 14.9 180.669 14.702C180.669 14.504 180.559 14.46 180.559 14.46C180.471 14.46 180.405 14.482 180.207 14.592C179.877 14.79 179.415 14.922 179.151 14.922C178.711 14.922 178.249 14.834 177.875 14.504C177.633 14.262 177.479 13.976 177.479 13.426C177.479 12.326 177.501 9.33399 177.545 8.76199C177.545 8.71799 177.633 8.60799 177.721 8.60799C177.963 8.60799 179.987 8.60799 180.075 8.60799C180.229 8.60799 180.647 8.56399 180.647 8.34399C180.647 8.07999 180.581 7.44199 180.581 7.50799C180.559 7.41999 180.361 7.30999 180.317 7.30999C180.229 7.30999 178.183 7.39799 177.699 7.39799Z" fill="white"/>
<path d="M186.067 7.13399C185.649 7.13399 184.923 7.24399 184.351 7.50799C182.613 8.32199 181.689 10.082 181.689 11.842C181.689 14.394 183.251 16.22 185.649 16.22C187.035 16.22 188.179 15.626 188.927 14.526C188.993 14.394 189.103 14.152 189.103 13.976C189.103 13.888 189.037 13.712 188.905 13.712C188.817 13.712 188.707 13.866 188.619 13.976C188.245 14.526 187.585 14.768 186.639 14.768C185.583 14.768 184.659 14.24 184.153 13.58C183.691 12.964 183.361 11.952 183.361 11.182C183.361 10.94 183.383 10.588 183.449 10.412C183.471 10.324 183.581 10.236 183.647 10.236C184.681 10.258 188.377 10.258 188.619 10.258C188.861 10.258 189.059 9.97199 189.059 9.83999C189.059 9.06999 188.751 8.43199 188.289 7.96999C187.717 7.41999 186.859 7.13399 186.067 7.13399ZM185.847 7.68399C186.617 7.68399 187.255 8.40999 187.255 9.02599C187.255 9.48799 186.991 9.61999 186.507 9.61999C185.407 9.64199 184.351 9.64199 183.779 9.61999C183.713 9.61999 183.625 9.48799 183.669 9.37799C184.043 8.36599 184.879 7.68399 185.847 7.68399Z" fill="white"/>
<path d="M194.327 7.00199C193.403 7.00199 192.611 7.26599 191.973 7.74999C191.115 8.38799 190.653 9.17999 190.653 10.236C190.653 11.842 191.709 12.678 192.347 13.03C192.413 13.096 192.457 13.184 192.413 13.228C192.061 13.602 191.049 14.152 190.741 14.394C190.697 14.438 190.631 14.57 190.631 14.614C190.631 15.34 190.939 15.934 191.401 16.242C191.687 16.462 192.105 16.616 192.281 16.682C192.325 16.748 192.369 16.792 192.325 16.836C192.039 17.078 191.357 17.54 190.829 17.98C190.609 18.134 190.191 18.42 190.191 19.344C190.191 19.982 190.587 20.774 191.225 21.258C192.127 21.918 193.117 22.072 193.997 22.072C194.833 22.072 195.999 21.896 197.187 21.126C198.111 20.51 199.299 19.388 199.299 17.716C199.299 17.1 198.991 16.286 198.353 15.758C197.979 15.45 197.495 15.252 197.297 15.23C196.593 15.12 194.217 15.076 193.227 15.032C192.985 15.01 192.347 14.636 192.347 14.086C192.347 13.91 192.787 13.492 193.007 13.382C193.073 13.316 193.183 13.316 193.315 13.338C193.469 13.36 193.975 13.382 194.107 13.382C194.635 13.382 195.603 13.272 196.571 12.546C197.407 11.886 197.803 10.984 197.803 9.77399C197.803 9.39999 197.737 9.02599 197.627 8.71799C197.605 8.65199 197.671 8.54199 197.759 8.54199C198.309 8.58599 199.057 8.58599 199.189 8.58599C199.277 8.58599 199.607 8.16799 199.607 7.83799C199.607 7.74999 199.541 7.61799 199.409 7.59599C198.969 7.50799 197.363 7.46399 196.857 7.41999C196.703 7.41999 196.505 7.33199 196.263 7.28799C195.625 7.13399 195.185 7.00199 194.327 7.00199ZM194.129 7.55199C194.723 7.55199 195.207 7.90399 195.625 8.49799C195.977 9.00399 196.109 9.79599 196.109 10.17C196.109 11.094 195.845 12.128 195.339 12.48C195.031 12.678 194.767 12.788 194.613 12.788C193.249 12.788 192.523 11.182 192.523 10.038C192.523 9.04799 192.743 8.45399 193.073 8.07999C193.271 7.81599 193.733 7.55199 194.129 7.55199ZM194.833 21.104C194.041 21.104 193.271 20.906 192.699 20.444C192.237 20.048 191.907 19.498 191.907 18.816C191.907 18.288 192.193 17.54 192.831 17.078C192.963 16.99 193.337 16.836 193.997 16.836C194.965 16.836 195.603 16.836 196.241 16.968C196.769 17.078 197.187 17.32 197.407 17.628C197.671 17.958 197.737 18.464 197.737 18.75C197.737 19.366 197.429 20.202 196.571 20.73C196.263 20.906 195.625 21.104 194.833 21.104Z" fill="white"/>
<path d="M202.584 16C203.046 16 204.146 16.066 204.3 16.066C204.564 16.066 204.85 15.978 204.85 15.824C204.85 15.692 204.718 15.56 204.366 15.45C203.816 15.274 203.376 15.208 203.354 14.526C203.332 13.756 203.31 12.876 203.31 11.754C203.31 10.5 203.42 7.59599 203.442 7.26599C203.442 7.22199 203.332 7.02399 203.222 7.02399C202.892 7.11199 201.792 7.59599 200.934 7.77199C200.692 7.83799 200.472 8.01399 200.472 8.16799C200.472 8.23399 200.538 8.32199 200.67 8.43199C201.286 8.87199 201.528 9.06999 201.55 9.22399C201.594 9.48799 201.572 11.688 201.572 12.348C201.572 13.184 201.55 14.548 201.484 14.856C201.418 15.076 201.11 15.34 200.604 15.494C200.23 15.582 200.076 15.692 200.076 15.824C200.076 15.978 200.318 16.088 200.648 16.088C201.044 16.088 201.858 16 202.584 16ZM202.562 2.60199C202.232 2.60199 201.88 2.71199 201.638 2.93199C201.44 3.15199 201.352 3.52599 201.352 3.74599C201.352 4.14199 201.528 4.38399 201.704 4.58199C201.924 4.77999 202.298 4.86799 202.452 4.86799C202.914 4.86799 203.552 4.36199 203.552 3.74599C203.552 3.32799 203.2 2.60199 202.562 2.60199Z" fill="white"/>
<path d="M209.29 7.08999C208.52 7.08999 207.904 7.28799 207.464 7.55199C206.628 8.05799 206.232 8.80599 206.232 9.59799C206.232 10.632 206.936 11.424 207.618 11.864C208.322 12.282 208.476 12.414 209.026 12.788C209.708 13.228 209.994 13.668 209.994 14.196C209.994 14.614 209.818 15.098 209.488 15.362C209.268 15.56 208.894 15.692 208.608 15.692C207.86 15.692 207.222 15.274 206.584 14.108C206.452 13.866 206.298 13.602 206.1 13.602C205.99 13.602 205.924 13.8 205.924 14.086C205.924 14.746 206.21 15.67 206.276 15.78C206.65 16.088 207.75 16.264 208.432 16.264C209.092 16.264 209.928 16.022 210.346 15.736C210.94 15.34 211.644 14.614 211.644 13.58C211.644 12.59 211.204 11.842 209.84 11.05C208.454 10.28 207.728 9.72999 207.728 8.95999C207.728 8.47599 208.168 7.66199 208.982 7.66199C209.708 7.66199 210.28 8.10199 210.764 9.11399C210.874 9.35599 211.028 9.53199 211.138 9.53199C211.292 9.53199 211.402 9.31199 211.402 9.11399C211.402 8.95999 211.336 8.16799 211.336 7.79399C211.314 7.63999 211.204 7.50799 211.138 7.46399C211.094 7.44199 210.676 7.26599 210.434 7.22199C210.17 7.15599 209.708 7.08999 209.29 7.08999Z" fill="white"/>
<path d="M215.984 7.39799C215.896 7.39799 215.786 7.28799 215.786 7.22199C215.786 6.58399 215.786 6.25399 215.786 6.16599C215.786 6.09999 215.566 5.90199 215.456 5.90199C215.368 5.90199 215.214 6.09999 214.95 6.38599C214.62 6.80399 213.916 7.30999 213.08 7.94799C212.992 8.01399 212.948 8.10199 212.948 8.18999C212.948 8.27799 213.058 8.40999 213.234 8.47599C213.696 8.58599 214.092 8.73999 214.092 8.89399C214.092 9.66399 214.004 12.964 214.004 13.778C214.004 14.438 214.048 14.878 214.29 15.252C214.598 15.736 215.368 16.264 216.27 16.264C217.26 16.264 218.052 15.868 218.646 15.274C218.8 15.12 218.954 14.9 218.954 14.702C218.954 14.504 218.844 14.46 218.844 14.46C218.756 14.46 218.69 14.482 218.492 14.592C218.162 14.79 217.7 14.922 217.436 14.922C216.996 14.922 216.534 14.834 216.16 14.504C215.918 14.262 215.764 13.976 215.764 13.426C215.764 12.326 215.786 9.33399 215.83 8.76199C215.83 8.71799 215.918 8.60799 216.006 8.60799C216.248 8.60799 218.272 8.60799 218.36 8.60799C218.514 8.60799 218.932 8.56399 218.932 8.34399C218.932 8.07999 218.866 7.44199 218.866 7.50799C218.844 7.41999 218.646 7.30999 218.602 7.30999C218.514 7.30999 216.468 7.39799 215.984 7.39799Z" fill="white"/>
<path d="M223.341 7.08999C222.571 7.08999 221.955 7.28799 221.515 7.55199C220.679 8.05799 220.283 8.80599 220.283 9.59799C220.283 10.632 220.987 11.424 221.669 11.864C222.373 12.282 222.527 12.414 223.077 12.788C223.759 13.228 224.045 13.668 224.045 14.196C224.045 14.614 223.869 15.098 223.539 15.362C223.319 15.56 222.945 15.692 222.659 15.692C221.911 15.692 221.273 15.274 220.635 14.108C220.503 13.866 220.349 13.602 220.151 13.602C220.041 13.602 219.975 13.8 219.975 14.086C219.975 14.746 220.261 15.67 220.327 15.78C220.701 16.088 221.801 16.264 222.483 16.264C223.143 16.264 223.979 16.022 224.397 15.736C224.991 15.34 225.695 14.614 225.695 13.58C225.695 12.59 225.255 11.842 223.891 11.05C222.505 10.28 221.779 9.72999 221.779 8.95999C221.779 8.47599 222.219 7.66199 223.033 7.66199C223.759 7.66199 224.331 8.10199 224.815 9.11399C224.925 9.35599 225.079 9.53199 225.189 9.53199C225.343 9.53199 225.453 9.31199 225.453 9.11399C225.453 8.95999 225.387 8.16799 225.387 7.79399C225.365 7.63999 225.255 7.50799 225.189 7.46399C225.145 7.44199 224.727 7.26599 224.485 7.22199C224.221 7.15599 223.759 7.08999 223.341 7.08999Z" fill="white"/>
</svg>
