<?xml version="1.0" encoding="utf-8"?>
<!-- Generator: Adobe Illustrator 23.0.2, SVG Export Plug-In . SVG Version: 6.00 Build 0)  -->
<svg version="1.1" id="Layer_1" xmlns="http://www.w3.org/2000/svg" xmlns:xlink="http://www.w3.org/1999/xlink" x="0px" y="0px"
	 width="317.8px" height="67.9px" viewBox="0 0 317.8 67.9" style="enable-background:new 0 0 317.8 67.9;" xml:space="preserve">
<style type="text/css">
	.st0{fill:#FFFFFF;}
</style>
<g>
	<path class="st0" d="M0,67.9l28.7-6.3V49.1L0,42.9V67.9z M31.3,49.2v12.4L60,67.9v-25L31.3,49.2z M31.3,46.5L60,40.2V27.7
		l-28.7-6.3V46.5z M0,27.7v12.4l28.7,6.3v-25L0,27.7z M0,0v25l28.7-6.3V6.3L0,0L0,0z M60,0L31.3,6.3v12.4L60,25V0L60,0z"/>
</g>
<g>
	<path class="st0" d="M73.5,38.6c0,1.2-0.5,1.6-1.6,1.6h-0.4v0.4h6.6c5.3,0,7.7-3.9,7.7-7.1c0-3.5-2.4-6.4-7.9-6.4
		c-1.1,0-2.3,0-3.5,0.1c-1.1,0-2.2,0.1-2.9,0.1v0.4h0.4c1.2,0,1.6,0.3,1.6,1.7C73.5,29.4,73.5,38.6,73.5,38.6z M75.2,27.5
		c0.2,0,0.8-0.1,1.7-0.1c2.9,0,4.4,0.8,5.3,1.7c1.2,1.3,1.7,3,1.7,4.6c0,2.2-1,3.9-1.7,4.6C80.9,39.6,79.8,40,77,40
		c-1.6,0-1.7-0.3-1.7-1.2V27.5H75.2z"/>
	<path class="st0" d="M87.7,35.8c0,3.6,2.7,5,5,5s5-1.4,5-5c0-3.3-2.6-4.9-4.9-4.9C90.4,30.9,87.7,32.5,87.7,35.8z M96,35.8
		c0,3.4-1.8,4.7-3.4,4.7c-0.8,0-1.6-0.3-2.2-0.9c-0.6-0.6-1.1-1.5-1.1-3.9c0-2.3,1.2-4.4,3.3-4.4C94.4,31.3,96,32.5,96,35.8z"/>
	<path class="st0" d="M98.9,31.3v0.4c0.7,0,1.1,0,1.6,1.1l3,8h0.9l2.7-7.5c0.5-1.5,0.8-1.7,1.7-1.7v-0.4h-3.6v0.4
		c0.7,0,1.5,0,1.5,0.5c0,0.1,0,0.2-0.3,0.9l-2,5.9l-2.3-6c-0.2-0.5-0.2-0.7-0.2-0.8c0-0.6,0.8-0.6,1.5-0.5v-0.4L98.9,31.3L98.9,31.3
		z"/>
	<path class="st0" d="M112.5,31.7h2.3c1,0,1.3,0.2,1.6,1.6h0.4l-0.1-2h-7.1v0.4c1.2,0,1.5,0.2,1.5,1.2V39c0,0.9-0.1,1.3-1.5,1.2v0.4
		h7.5l0.2-2.3h-0.4c-0.4,1.6-0.9,1.7-1.8,1.7h-1.6c-0.9,0-0.9,0-0.9-0.9V36h2.1c1,0,1.2,0.1,1.2,1.3h0.4v-2.9h-0.4
		c-0.1,1.2-0.3,1.2-1.1,1.2h-2.2L112.5,31.7L112.5,31.7z"/>
	<path class="st0" d="M118.1,33.3h0.4c0.4-1.5,0.5-1.5,1.3-1.5h1.9v7.1c0,1.1-0.1,1.2-1.7,1.3v0.4h4.9v-0.4
		c-1.6-0.1-1.7-0.1-1.7-1.4v-7.1h1.7c1,0,1.1,0.2,1.4,1.5h0.3l-0.2-2.4h-0.3c-0.1,0.3-0.2,0.3-0.8,0.3h-6.1c-0.2,0-0.3,0-0.4,0
		s-0.2-0.1-0.3-0.3h-0.3L118.1,33.3z"/>
	<path class="st0" d="M131.1,31l0.2,0.6l-2.6,6.8c-0.5,1.2-0.6,1.6-1.7,1.8v0.4h3.6v-0.4c-0.7-0.1-1.4-0.2-1.4-0.8
		c0-0.5,0.2-1.2,0.4-1.6l0.5-1.2h3l0.6,1.8c0.1,0.4,0.3,0.9,0.3,1.2c0,0.6-0.7,0.6-1.4,0.6v0.4h4.3v-0.4c-1.1-0.1-1.1-0.2-1.5-1.3
		l-2.8-8L131.1,31L131.1,31z M131.6,32.5l1.2,3.5h-2.6L131.6,32.5z"/>
	<path class="st0" d="M142.3,31.3h-4.5v0.4c1.3,0.1,1.6,0.3,1.6,1.6v5.3c0,1.5-0.2,1.6-1.5,1.7v0.4h4.6v-0.4
		c-1.3-0.1-1.6-0.3-1.6-1.6v-5.3c0-1.3,0-1.5,1.5-1.6v-0.5H142.3z"/>
	<path class="st0" d="M143.1,31.3v0.4c1.6,0,1.6,0.2,1.6,1.4V39c0,1-0.1,1.2-1.5,1.2v0.4h6.7l0.9-2.2h-0.4c-0.8,1.5-1.2,1.7-2.8,1.7
		c-0.3,0-1,0-1.3-0.2c-0.1-0.1-0.1-0.1-0.1-0.6v-6.4c0-1.2,0.1-1.2,1.7-1.2v-0.4C147.9,31.3,143.1,31.3,143.1,31.3z"/>
	<path class="st0" d="M158.4,38.6c0,1.2-0.5,1.6-1.6,1.6h-0.4v0.4h6.6c5.3,0,7.7-3.9,7.7-7.1c0-3.5-2.4-6.4-7.9-6.4
		c-1.1,0-2.3,0-3.5,0.1c-1.1,0-2.2,0.1-2.9,0.1v0.4h0.4c1.2,0,1.6,0.3,1.6,1.7L158.4,38.6L158.4,38.6z M160.1,27.5
		c0.2,0,0.8-0.1,1.7-0.1c2.9,0,4.4,0.8,5.3,1.7c1.2,1.3,1.7,3,1.7,4.6c0,2.2-1,3.9-1.7,4.6c-1.3,1.3-2.4,1.7-5.2,1.7
		c-1.6,0-1.7-0.3-1.7-1.2V27.5H160.1z"/>
	<path class="st0" d="M175.1,31.7h2.3c1,0,1.4,0.2,1.6,1.6h0.4l-0.1-2h-7.1v0.4c1.2,0,1.5,0.2,1.5,1.2V39c0,0.9-0.1,1.3-1.5,1.2v0.4
		h7.5l0.2-2.3h-0.4c-0.4,1.6-0.9,1.7-1.8,1.7H176c-0.9,0-0.9,0-0.9-0.9V36h2.1c1,0,1.2,0.1,1.2,1.3h0.4v-2.9h-0.4
		c-0.1,1.2-0.3,1.2-1.1,1.2h-2.2V31.7z"/>
	<path class="st0" d="M186,31.2h-0.4c-0.1,0.2-0.2,0.2-0.2,0.2c-0.1,0-0.5-0.2-0.6-0.2c-0.4-0.2-0.9-0.2-1.3-0.2
		c-1.2,0-2.4,1-2.4,2.4c0,0.8,0.3,1.7,2.2,2.8c1.5,1,2.3,1.5,2.3,2.6c0,1.3-1.2,1.7-1.7,1.7c-0.4,0-1.7-0.3-2.3-2.1H181l0.2,2.3h0.3
		c0-0.1,0.1-0.2,0.3-0.2c0.1,0,0.2,0,0.2,0c1.1,0.3,1.3,0.4,1.8,0.4c1.7,0,2.8-1.2,2.8-2.7c0-1.6-1.3-2.4-1.8-2.8
		c-2.1-1.4-2.7-1.8-2.7-2.7c0-0.7,0.6-1.4,1.4-1.4c0.4,0,1,0.2,1.5,0.7c0.4,0.4,0.6,0.9,0.7,1.2h0.4L186,31.2z"/>
	<path class="st0" d="M192.5,31.3H188v0.4c1.3,0.1,1.6,0.3,1.6,1.6v5.3c0,1.5-0.2,1.6-1.5,1.7v0.4h4.6v-0.4
		c-1.3-0.1-1.6-0.3-1.6-1.6v-5.3c0-1.3,0-1.5,1.5-1.6v-0.5H192.5z"/>
	<path class="st0" d="M202,31.4h-0.4c-0.1,0.1-0.1,0.2-0.3,0.2c-0.3,0-1.2-0.7-2.7-0.7c-2.3,0-4.7,1.8-4.7,5.1
		c0,3.4,2.5,4.7,4.5,4.7c1.5,0,2.5-0.5,3.6-1.1v-1.2c0-1.1,0.1-1.1,1.2-1.2V37h-4.4v0.4c1.7,0,1.7,0.1,1.7,1.1V40
		c-0.4,0.2-0.9,0.5-1.6,0.5c-1.1,0-3.3-0.7-3.3-4.5c0-2.6,1.2-4.5,3.2-4.5c0.8,0,1.6,0.3,2.1,0.9c0.5,0.5,0.7,1.1,0.8,1.6h0.4v-2.6
		H202z"/>
	<path class="st0" d="M204.1,31.3v0.4c0.9,0,1.5,0.1,1.5,1.3v6c0,0.9-0.1,1.3-1.5,1.2v0.4h3.9v-0.4c-1.5,0-1.7-0.1-1.7-1.5V33
		l6.7,7.7h0.5v-7.8c0-0.9,0.1-1.3,1.5-1.2v-0.4h-3.7v0.4c0.1,0,0.7,0,0.9,0c0.7,0.1,0.7,0.6,0.7,1.2v5.4l-6.1-7
		C206.8,31.3,204.1,31.3,204.1,31.3z"/>
	<path class="st0" d="M220.8,37.3l0.4,3.3h0.4c0.1-0.1,0.2-0.2,0.4-0.2c0.3,0,1.7,0.6,2.9,0.6c2.4,0,4.2-1.6,4.2-3.7
		c0-3.9-6.7-4.8-6.7-7.8c0-1.2,1-2,2.3-2c1.4,0,2.8,1,3.3,2.5h0.4l-0.4-2.7h-0.3c-0.1,0.2-0.2,0.2-0.4,0.2c-0.7,0-1.1-0.5-2.8-0.5
		c-2.1,0-3.7,1.3-3.7,3.1c0,3.8,6.7,4.7,6.7,7.8c0,1.7-1.5,2.5-2.9,2.5c-1.6,0-3.1-1.1-3.5-3L220.8,37.3L220.8,37.3z"/>
	<path class="st0" d="M230.5,33.3h0.4c0.4-1.5,0.5-1.5,1.3-1.5h1.9v7.1c0,1.1-0.1,1.2-1.7,1.3v0.4h4.9v-0.4
		c-1.6-0.1-1.7-0.1-1.7-1.4v-7.1h1.7c1,0,1.1,0.2,1.4,1.5h0.3l-0.2-2.4h-0.3c-0.1,0.3-0.2,0.3-0.8,0.3h-6.1c-0.2,0-0.3,0-0.4,0
		c-0.1,0-0.2-0.1-0.3-0.3h-0.3L230.5,33.3z"/>
	<path class="st0" d="M242.9,36.5h1.3c0.2,0.3,1.1,2,1.3,2.4c0.9,1.4,1.7,1.8,3.2,1.8v-0.4c-0.8-0.1-1.2-0.4-1.8-1.9
		c-0.7-1.7-0.9-1.8-1.3-2.1c0.7-0.2,2-0.7,2-2.5c0-2.3-2.2-2.7-4-2.7c-1.5,0-2.8,0.2-3.7,0.3v0.4c1,0.1,1.2,0.1,1.3,0.3
		c0.2,0.2,0.2,0.6,0.2,0.8V39c0,0.8-0.1,1.2-1.1,1.2H240v0.4h4.6v-0.4H244c-0.9,0-1-0.3-1-1.5v-2.2H242.9z M242.9,31.6
		c0.2,0,0.6,0,0.9,0c0.9,0,2.2,0.5,2.2,2.3c0,1.8-1.1,2.3-2.2,2.3h-0.9V31.6z"/>
	<path class="st0" d="M253.4,31l0.2,0.6l-2.6,6.8c-0.5,1.2-0.6,1.6-1.7,1.8v0.4h3.6v-0.4c-0.7-0.1-1.4-0.2-1.4-0.8
		c0-0.5,0.2-1.2,0.4-1.6l0.5-1.2h3l0.6,1.8c0.1,0.4,0.3,0.9,0.3,1.2c0,0.6-0.7,0.6-1.4,0.6v0.4h4.3v-0.4c-1.1-0.1-1.1-0.2-1.5-1.3
		l-2.8-8L253.4,31L253.4,31z M254,32.5l1.2,3.5h-2.6L254,32.5z"/>
	<path class="st0" d="M260.2,33.3h0.4c0.4-1.5,0.5-1.5,1.3-1.5h1.9v7.1c0,1.1-0.1,1.2-1.7,1.3v0.4h4.9v-0.4
		c-1.6-0.1-1.7-0.1-1.7-1.4v-7.1h1.7c1,0,1.1,0.2,1.4,1.5h0.3l-0.2-2.4h-0.3c-0.1,0.3-0.2,0.3-0.8,0.3h-6.1c-0.2,0-0.3,0-0.4,0
		s-0.2-0.1-0.3-0.3h-0.3L260.2,33.3z"/>
	<path class="st0" d="M272.5,31.7h2.3c1,0,1.3,0.2,1.6,1.6h0.4l-0.1-2h-7.1v0.4c1.2,0,1.5,0.2,1.5,1.2V39c0,0.9-0.1,1.3-1.5,1.2v0.4
		h7.5l0.2-2.3h-0.4c-0.4,1.6-0.9,1.7-1.8,1.7h-1.6c-0.9,0-0.9,0-0.9-0.9V36h2.1c1,0,1.2,0.1,1.2,1.3h0.4v-2.9h-0.4
		c-0.1,1.2-0.3,1.2-1.1,1.2h-2.2v-3.9H272.5z"/>
	<path class="st0" d="M286.3,31.4h-0.4c-0.1,0.1-0.1,0.2-0.3,0.2c-0.3,0-1.2-0.7-2.7-0.7c-2.3,0-4.7,1.8-4.7,5.1
		c0,3.4,2.5,4.7,4.5,4.7c1.5,0,2.5-0.5,3.6-1.1v-1.2c0-1.1,0.1-1.1,1.2-1.2V37h-4.4v0.4c1.7,0,1.7,0.1,1.7,1.1V40
		c-0.4,0.2-0.9,0.5-1.6,0.5c-1.1,0-3.3-0.7-3.3-4.5c0-2.6,1.2-4.5,3.2-4.5c0.8,0,1.6,0.3,2.1,0.9c0.5,0.5,0.7,1.1,0.8,1.6h0.4v-2.6
		H286.3z"/>
	<path class="st0" d="M292.6,31.3H288v0.4c1.3,0.1,1.6,0.3,1.6,1.6v5.3c0,1.5-0.2,1.6-1.5,1.7v0.4h4.6v-0.4
		c-1.3-0.1-1.6-0.3-1.6-1.6v-5.3c0-1.3,0-1.5,1.5-1.6V31.3z"/>
	<path class="st0" d="M298.9,31.2h-0.4c-0.1,0.2-0.2,0.2-0.2,0.2c-0.1,0-0.5-0.2-0.6-0.2c-0.4-0.2-0.9-0.2-1.3-0.2
		c-1.2,0-2.4,1-2.4,2.4c0,0.8,0.3,1.7,2.2,2.8c1.5,1,2.3,1.5,2.3,2.6c0,1.3-1.2,1.7-1.7,1.7c-0.4,0-1.7-0.3-2.3-2.1h-0.4l0.2,2.3
		h0.3c0-0.1,0.1-0.2,0.3-0.2c0.1,0,0.2,0,0.2,0c1.1,0.3,1.3,0.4,1.8,0.4c1.7,0,2.8-1.2,2.8-2.7c0-1.6-1.3-2.4-1.8-2.8
		c-2.1-1.4-2.7-1.8-2.7-2.7c0-0.7,0.6-1.4,1.4-1.4c0.4,0,1,0.2,1.5,0.7c0.4,0.4,0.6,0.9,0.7,1.2h0.4L298.9,31.2z"/>
	<path class="st0" d="M300.9,33.3h0.4c0.4-1.5,0.5-1.5,1.3-1.5h1.9v7.1c0,1.1-0.1,1.2-1.7,1.3v0.4h4.9v-0.4
		c-1.6-0.1-1.7-0.1-1.7-1.4v-7.1h1.7c1,0,1.1,0.2,1.4,1.5h0.3l-0.2-2.4H309c-0.1,0.3-0.2,0.3-0.8,0.3h-6.1c-0.2,0-0.3,0-0.4,0
		s-0.2-0.1-0.3-0.3h-0.3L300.9,33.3z"/>
	<path class="st0" d="M315.8,31.2h-0.4c-0.1,0.2-0.2,0.2-0.2,0.2c-0.1,0-0.5-0.2-0.6-0.2c-0.4-0.2-0.9-0.2-1.3-0.2
		c-1.2,0-2.4,1-2.4,2.4c0,0.8,0.3,1.7,2.2,2.8c1.5,1,2.3,1.5,2.3,2.6c0,1.3-1.2,1.7-1.7,1.7c-0.4,0-1.7-0.3-2.3-2.1H311l0.2,2.3h0.3
		c0-0.1,0.1-0.2,0.3-0.2c0.1,0,0.2,0,0.2,0c1.1,0.3,1.3,0.4,1.8,0.4c1.7,0,2.8-1.2,2.8-2.7c0-1.6-1.3-2.4-1.8-2.8
		c-2.1-1.4-2.7-1.8-2.7-2.7c0-0.7,0.6-1.4,1.4-1.4c0.4,0,1,0.2,1.5,0.7c0.4,0.4,0.6,0.9,0.7,1.2h0.4L315.8,31.2z"/>
</g>
</svg>
