<svg id="Layer_1" xmlns="http://www.w3.org/2000/svg" width="113.592" height="5.897" viewBox="0 0 113.592 5.897"><style>.st0{fill:#fff}</style><path class="st0" d="M1.645 4.039c-.232 0-.364-.112-.396-.337a1.704 1.704 0 0 1-.377.267.8.8 0 0 1-.349.081.543.543 0 0 1-.372-.134A.445.445 0 0 1 0 3.562c0-.12.032-.226.096-.317s.153-.168.267-.232.243-.118.387-.163c.143-.044.306-.083.488-.113 0-.229-.025-.388-.076-.477-.05-.089-.155-.134-.314-.134-.078 0-.152.025-.224.076s-.106.118-.106.203a.197.197 0 0 1-.198.204.204.204 0 0 1-.146-.058.202.202 0 0 1-.058-.146c0-.135.075-.247.224-.334a1 1 0 0 1 .514-.131c.283 0 .486.062.61.186s.186.325.186.604v.877c0 .151.044.227.133.227a.164.164 0 0 0 .084-.026.475.475 0 0 0 .079-.061l.081.11a.504.504 0 0 1-.382.182zm-.407-1.122c-.534.124-.802.316-.802.575 0 .089.026.161.079.215a.256.256 0 0 0 .194.082c.07 0 .145-.02.224-.058.079-.039.181-.113.305-.221v-.593zM6.675 2.391c-.106.177-.16.398-.16.666 0 .24.058.429.174.567s.291.205.523.205a.844.844 0 0 0 .32-.069.97.97 0 0 0 .302-.198l.105.128a1.29 1.29 0 0 1-.401.282 1.134 1.134 0 0 1-.471.101c-.314 0-.563-.095-.747-.285s-.276-.433-.276-.732a1.128 1.128 0 0 1 .331-.81c.102-.099.213-.175.335-.227a.909.909 0 0 1 .357-.079c.229 0 .402.041.52.122.118.082.177.18.177.296 0 .062-.021.119-.064.171s-.108.08-.197.08c-.062 0-.116-.023-.16-.07s-.067-.1-.067-.162c0-.089-.02-.153-.061-.192a.206.206 0 0 0-.148-.058c-.155 0-.285.088-.392.264zM9.322 3.975v-.122a.91.91 0 0 0 .244-.026.239.239 0 0 0 .134-.096.475.475 0 0 0 .064-.198c.012-.085.017-.205.017-.36V1.336c0-.155-.005-.275-.017-.36A.485.485 0 0 0 9.7.778C9.669.732 9.625.7 9.566.682s-.14-.026-.244-.026V.534l.872-.146v2.784c0 .151.006.271.02.357a.519.519 0 0 0 .067.201.238.238 0 0 0 .134.096.837.837 0 0 0 .238.026v.122H9.322zM13.797 4.039c-.232 0-.364-.112-.396-.337a1.704 1.704 0 0 1-.377.267.8.8 0 0 1-.349.082.543.543 0 0 1-.372-.134.448.448 0 0 1-.151-.354c0-.12.032-.226.096-.317s.153-.168.267-.232.243-.118.387-.163c.143-.044.306-.083.488-.113 0-.229-.025-.388-.076-.477-.05-.089-.155-.134-.314-.134-.078 0-.152.025-.224.076s-.106.117-.106.202c0 .058-.02.107-.058.146a.19.19 0 0 1-.14.058.204.204 0 0 1-.146-.058.197.197 0 0 1-.058-.146c0-.135.075-.247.224-.334a1 1 0 0 1 .514-.131c.283 0 .486.062.61.186s.186.325.186.604v.877c0 .151.044.227.133.227a.164.164 0 0 0 .084-.026.475.475 0 0 0 .079-.061l.081.11a.504.504 0 0 1-.382.182zm-.406-1.122c-.535.124-.802.316-.802.575 0 .089.026.161.079.215a.256.256 0 0 0 .194.082c.07 0 .145-.02.224-.058a1.53 1.53 0 0 0 .305-.221v-.593zM16.916 3.896a.716.716 0 0 1-.694.142 1.928 1.928 0 0 1-.204-.093.379.379 0 0 0-.145-.058c-.047 0-.07.062-.07.186h-.116v-.848h.116c0 .151.058.297.174.438a.569.569 0 0 0 .465.212c.093 0 .17-.029.232-.087s.093-.128.093-.209c0-.07-.027-.133-.082-.189s-.136-.111-.244-.166l-.318-.174a.725.725 0 0 1-.294-.264.62.62 0 0 1-.096-.317c0-.151.059-.277.177-.377a.62.62 0 0 1 .416-.151.783.783 0 0 1 .407.104c.039.02.064.029.076.029.027 0 .041-.044.041-.134h.122v.674h-.122a.503.503 0 0 0-.127-.343.434.434 0 0 0-.343-.145c-.197 0-.296.083-.296.25 0 .066.025.123.076.171s.143.109.279.183l.279.151a.93.93 0 0 1 .296.256.516.516 0 0 1 .104.302.591.591 0 0 1-.202.457zM19.955 3.896a.716.716 0 0 1-.694.142 1.928 1.928 0 0 1-.204-.093.379.379 0 0 0-.145-.058c-.047 0-.07.062-.07.186h-.116v-.848h.116c0 .151.058.297.174.438a.569.569 0 0 0 .465.212c.093 0 .17-.029.232-.087s.093-.128.093-.209c0-.07-.027-.133-.082-.189s-.136-.111-.244-.166l-.318-.174a.725.725 0 0 1-.294-.264.62.62 0 0 1-.096-.317c0-.151.059-.277.177-.377a.62.62 0 0 1 .416-.151.783.783 0 0 1 .407.104c.039.02.064.029.076.029.027 0 .041-.044.041-.134h.122v.674h-.122a.503.503 0 0 0-.127-.343.434.434 0 0 0-.343-.145c-.197 0-.296.083-.296.25 0 .066.025.123.076.171s.143.109.279.183l.279.151a.93.93 0 0 1 .296.256.516.516 0 0 1 .104.302.584.584 0 0 1-.202.457zM21.736 3.975v-.122c.101 0 .18-.009.238-.026.058-.017.103-.049.134-.096s.053-.113.067-.201c.014-.087.021-.206.021-.357v-.291c0-.151-.006-.27-.018-.357a.428.428 0 0 0-.067-.197c-.033-.045-.079-.076-.137-.093s-.137-.026-.238-.026v-.123l.872-.146v1.232c0 .155.006.275.017.36a.455.455 0 0 0 .067.198.252.252 0 0 0 .134.096.837.837 0 0 0 .241.026v.122h-1.331zm.843-2.679c-.05.05-.11.076-.18.076s-.13-.025-.18-.076-.076-.112-.076-.186c0-.07.025-.13.076-.18s.11-.076.18-.076.13.025.18.076.076.11.076.18a.257.257 0 0 1-.076.186zM25.215 2.391c-.106.177-.16.398-.16.666 0 .24.058.429.174.567s.291.206.523.206a.844.844 0 0 0 .32-.069.97.97 0 0 0 .302-.198l.104.128a1.29 1.29 0 0 1-.401.282 1.135 1.135 0 0 1-.471.102c-.314 0-.563-.095-.747-.285s-.276-.434-.276-.732a1.128 1.128 0 0 1 .331-.81 1.1 1.1 0 0 1 .334-.227.909.909 0 0 1 .357-.079c.229 0 .402.041.52.122.118.082.177.18.177.296 0 .062-.021.119-.064.171s-.108.079-.197.079c-.062 0-.116-.023-.16-.07s-.067-.101-.067-.163c0-.089-.02-.153-.061-.192a.206.206 0 0 0-.148-.058c-.153 0-.283.088-.39.264zM31.361 4.079h-.116l-.686-1.581c-.054-.128-.111-.217-.171-.268s-.135-.076-.224-.076v-.115h1.052v.116c-.17 0-.256.055-.256.163 0 .05.016.11.047.18l.389.907.477-1.366H32l.587 1.366.314-.907a.559.559 0 0 0 .041-.18c0-.108-.07-.163-.209-.163v-.116h.813v.116c-.101 0-.183.026-.247.079s-.119.141-.166.265l-.581 1.581h-.116l-.582-1.342-.493 1.341zM35.33 3.045c0 .236.065.426.195.569.13.144.323.215.578.215.093 0 .203-.025.329-.075s.229-.114.311-.192l.099.128c-.104.108-.238.2-.401.273a1.16 1.16 0 0 1-.482.11c-.318 0-.576-.104-.776-.311-.2-.208-.299-.46-.299-.759 0-.151.03-.292.09-.421s.141-.243.241-.34a1.085 1.085 0 0 1 .744-.303c.225 0 .417.071.575.212a.665.665 0 0 1 .238.515c0 .066-.008.13-.023.192h-1.407a1.48 1.48 0 0 0-.012.187zm1.012-.401a.382.382 0 0 0 .017-.116.342.342 0 0 0-.107-.247c-.072-.071-.179-.107-.323-.107a.498.498 0 0 0-.337.128.71.71 0 0 0-.209.343h.959zM38.812 4.073h-.122V1.336c0-.151-.007-.27-.021-.357a.519.519 0 0 0-.067-.201c-.031-.046-.075-.078-.133-.096s-.138-.026-.238-.026V.534l.872-.146v1.895a.874.874 0 0 1 .709-.343.983.983 0 0 1 .709.311 1.084 1.084 0 0 1 .296.753 1.121 1.121 0 0 1-.296.756.963.963 0 0 1-.709.313c-.151 0-.292-.035-.421-.104s-.237-.165-.322-.285l-.257.389zm.29-.697a.78.78 0 0 0 .235.34c.103.083.22.125.352.125.217 0 .382-.077.494-.232.112-.155.168-.356.168-.604s-.056-.448-.168-.602c-.112-.153-.277-.229-.494-.229a.545.545 0 0 0-.352.125.782.782 0 0 0-.235.334v.743zM43.743 3.896a.716.716 0 0 1-.694.142 1.928 1.928 0 0 1-.204-.093.379.379 0 0 0-.145-.058c-.047 0-.07.062-.07.186h-.116v-.848h.116c0 .151.058.297.174.438a.569.569 0 0 0 .465.212c.093 0 .17-.029.232-.087s.093-.128.093-.209c0-.07-.027-.133-.082-.189s-.136-.111-.244-.166l-.318-.174a.725.725 0 0 1-.294-.264.61.61 0 0 1-.096-.317c0-.151.059-.277.177-.377a.62.62 0 0 1 .416-.151.783.783 0 0 1 .407.104c.039.02.064.029.076.029.027 0 .041-.044.041-.134h.122v.674h-.122a.503.503 0 0 0-.127-.343.434.434 0 0 0-.343-.145c-.197 0-.296.083-.296.25 0 .066.025.123.076.171s.143.109.279.183l.279.151a.93.93 0 0 1 .296.256.516.516 0 0 1 .104.302.591.591 0 0 1-.202.457zM45.524 3.975v-.122c.101 0 .18-.009.238-.026.058-.017.103-.049.134-.096s.053-.113.067-.201c.014-.087.021-.206.021-.357v-.291c0-.151-.006-.27-.018-.357a.428.428 0 0 0-.067-.197c-.033-.045-.079-.076-.137-.093s-.137-.026-.238-.026v-.123l.872-.146v1.232c0 .155.006.275.017.36a.455.455 0 0 0 .067.198.252.252 0 0 0 .134.096.837.837 0 0 0 .241.026v.122h-1.331zm.843-2.679c-.05.05-.11.076-.18.076s-.13-.025-.18-.076-.076-.112-.076-.186c0-.07.025-.13.076-.18s.11-.076.18-.076.13.025.18.076.076.11.076.18a.26.26 0 0 1-.076.186zM48.291 2.243v-.14c.167-.035.289-.11.366-.227s.128-.275.151-.477h.197v.639h.506v.204h-.506v1.174c0 .283.087.424.262.424.108 0 .234-.068.378-.203l.099.099c-.082.101-.179.182-.293.244s-.22.093-.317.093a.5.5 0 0 1-.395-.163c-.097-.108-.146-.273-.146-.494V2.243h-.302zM51.696 3.045c0 .236.065.426.195.569.13.144.323.215.578.215.093 0 .203-.025.329-.075s.229-.114.311-.192l.099.128c-.104.108-.238.2-.401.273a1.16 1.16 0 0 1-.482.11c-.318 0-.576-.104-.776-.311-.2-.208-.299-.46-.299-.759 0-.151.03-.292.09-.421s.141-.243.241-.34a1.085 1.085 0 0 1 .744-.303c.225 0 .417.071.575.212a.665.665 0 0 1 .238.515c0 .066-.008.13-.023.192h-1.407a1.48 1.48 0 0 0-.012.187zm1.012-.401a.382.382 0 0 0 .017-.116.342.342 0 0 0-.107-.247c-.072-.071-.179-.107-.323-.107a.498.498 0 0 0-.337.128.71.71 0 0 0-.209.343h.959zM57.694 4.073h-.122V1.336c0-.151-.007-.27-.021-.357a.519.519 0 0 0-.067-.201c-.03-.046-.074-.078-.132-.096s-.138-.026-.238-.026V.534l.872-.146v1.895a.874.874 0 0 1 .709-.343.983.983 0 0 1 .709.311 1.084 1.084 0 0 1 .296.753 1.121 1.121 0 0 1-.296.756.963.963 0 0 1-.709.313c-.151 0-.292-.035-.421-.104s-.237-.165-.322-.285l-.258.389zm.291-.697a.78.78 0 0 0 .235.34c.103.083.22.125.352.125.217 0 .382-.077.494-.232.112-.155.168-.356.168-.604s-.056-.448-.168-.602c-.112-.153-.277-.229-.494-.229a.545.545 0 0 0-.352.125.782.782 0 0 0-.235.334v.743zM61.399 5.233a.666.666 0 0 1 .108-.119c.066-.066.122-.13.168-.192s.089-.145.128-.25l.291-.727-.668-1.447a.824.824 0 0 0-.168-.271.322.322 0 0 0-.221-.073v-.115h1.029v.116c-.171 0-.256.041-.256.122 0 .051.023.124.07.221l.424.93.372-.93a.609.609 0 0 0 .058-.209c0-.089-.075-.134-.227-.134v-.116h.814v.116a.365.365 0 0 0-.238.079.634.634 0 0 0-.174.265l-1.134 2.83a.443.443 0 0 1-.093.154c-.039.041-.08.061-.122.061a.215.215 0 0 1-.134-.046c-.039-.031-.058-.08-.058-.146a.21.21 0 0 1 .031-.119z"/><g><path class="st0" d="M67.245 1.366h-1.082v1.401h.726v.806h-.726v2.324h-.784V.559h1.866v.807zM67.637.559h.784v5.337h-.784V.559zM69.902 3.115l-.065-.247h-.044v3.028h-.719V.559h.697l.762 2.781.065.247h.043V.559h.719v5.337h-.697l-.761-2.781zM72.015 5.897V.559h.617c.726 0 1.118.145 1.329.552.203.407.232 1.075.232 2.12 0 1.046-.029 1.707-.232 2.113-.211.407-.603.552-1.329.552h-.617zm.784-.785c.269 0 .421-.029.501-.29a2.38 2.38 0 0 0 .073-.566c.007-.255.007-.596.007-1.032s0-.777-.007-1.031a2.384 2.384 0 0 0-.073-.566c-.08-.254-.232-.283-.501-.283v3.768zM76.088 1.99c0-.174-.007-.37-.058-.523-.051-.145-.131-.247-.254-.247-.203.007-.269.218-.269.53 0 .182.08.37.196.574.116.203.269.414.421.639.181.269.363.545.501.813.138.269.232.545.232.835 0 .356-.058.69-.225.937-.167.247-.436.407-.864.407-.501 0-.784-.189-.944-.479-.16-.29-.196-.675-.196-1.075l.77-.073c0 .225.007.45.065.617.051.174.138.29.305.29.232 0 .319-.247.319-.588 0-.174-.087-.378-.203-.588-.065-.102-.131-.21-.203-.319-.153-.218-.32-.465-.494-.733a3.065 3.065 0 0 1-.385-.828 1.444 1.444 0 0 1-.065-.429c0-.29.065-.603.232-.842a.954.954 0 0 1 .791-.407c.472-.007.748.189.9.472.153.29.196.646.196.944l-.768.073zM79.391 4.8a1.447 1.447 0 0 1-.131.581 1 1 0 0 1-.312.392c-.145.116-.341.182-.603.182-.262 0-.465-.065-.61-.182a.98.98 0 0 1-.305-.392 1.464 1.464 0 0 1-.13-.581V1.656a1.44 1.44 0 0 1 .131-.574 1 1 0 0 1 .305-.399 1 1 0 0 1 .61-.182c.261 0 .457.073.603.182.145.109.247.254.312.399.08.167.124.363.131.574V4.8zm-.784-3.144c0-.145-.029-.247-.102-.334a.222.222 0 0 0-.16-.058c-.138 0-.203.102-.232.196a.55.55 0 0 0-.029.196V4.8c0 .152.036.254.109.334a.209.209 0 0 0 .153.058c.138 0 .203-.087.232-.196a.503.503 0 0 0 .029-.196V1.656zM81.293 5.897l-.501-3.355-.029-.225h-.043v3.58h-.726V.559h.958l.465 2.44.036.283h.015l.036-.283.465-2.44h.959v5.337h-.726v-3.58h-.044l-.029.225-.501 3.355h-.335zM83.58.559h1.793v.806h-1.009v1.401h.726v.857h-.726V5.09h1.009v.806H83.58V.559zM88.164 2.759c0-.068-.384-.273-.384-.921 0-.742.494-1.424 1.39-1.424.256 0 .444.043.665.137.162.068.315.162.315.35a.664.664 0 0 1-.179.443c-.077.077-.128-.017-.179-.077C89.536.994 89.297.9 88.965.9c-.495 0-.921.452-.921.955 0 .409.23.767.503.767.213 0 .316-.043.469-.043.111 0 .162.043.162.102 0 .196-.375.367-.52.367-.136 0-.307-.119-.341-.119-.043 0-.486.188-.486.904 0 .998.784 1.611 1.748 1.611.716 0 1.765-.418 1.765-1.808 0-.179-.034-.52-.102-.546-.23-.085-.665-.239-.972-.239-.324 0-.554.171-.554.486 0 .409.358.443.622.494.102.017.137.043.137.077 0 .085-.145.196-.264.196a.798.798 0 0 1-.213-.034.663.663 0 0 1-.469-.588c0-.691.554-1.049 1.143-1.049.409 0 1.032.401 1.663.401.29 0 .477-.196.477-.477 0-.46-.384-.537-.716-.537-.087.001-.096-.025-.096-.059 0-.188.179-.298.316-.298.494 0 .665.46.665.759 0 .213-.06.418-.145.554-.179.299-.588.46-.818.46-.085 0-.247-.009-.315-.026-.06-.008-.111-.034-.111.06 0 .06.008.188.008.264 0 .861-.614 2.43-2.345 2.43-1.202 0-1.884-.784-1.884-1.782 0-.971.793-1.346.793-1.423zM95.878 5.897h-.61L94.549.56h.726l.312 2.774.014.174h.058l.022-.174.334-2.774h.566l.334 2.774.022.174h.058l.014-.174.312-2.774h.726l-.717 5.337h-.61l-.363-2.527-.044-.312h-.029l-.043.312-.363 2.527zM98.499.559h.784v5.337h-.784V.559zM100.764 3.115l-.065-.247h-.044v3.028h-.719V.559h.697l.763 2.781.065.247h.043V.559h.719v5.337h-.697l-.762-2.781zM104.176 5.897l-.501-3.355-.029-.225h-.044v3.58h-.726V.559h.958l.465 2.44.036.283h.014l.036-.283.465-2.44h.959v5.337h-.726v-3.58h-.043l-.029.225-.501 3.355h-.334zM108.503 4.8a1.447 1.447 0 0 1-.131.581 1 1 0 0 1-.312.392c-.145.116-.341.182-.603.182-.262 0-.465-.065-.61-.182a.98.98 0 0 1-.305-.392 1.464 1.464 0 0 1-.131-.581V1.656a1.44 1.44 0 0 1 .131-.574 1 1 0 0 1 .305-.399 1 1 0 0 1 .61-.182c.261 0 .457.073.603.182.145.109.247.254.312.399.08.167.124.363.131.574V4.8zm-.784-3.144c0-.145-.029-.247-.102-.334a.222.222 0 0 0-.16-.058c-.138 0-.203.102-.232.196a.55.55 0 0 0-.029.196V4.8c0 .152.036.254.109.334a.208.208 0 0 0 .152.058c.138 0 .203-.087.232-.196a.503.503 0 0 0 .029-.196V1.656zM110.507 5.897l-.407-2.251h-.211v2.251h-.784V.559h.784c.937 0 1.336.53 1.336 1.539 0 .53-.138 1.009-.435 1.213l.501 2.585h-.784zm-.618-2.978a.547.547 0 0 0 .37-.116c.116-.102.211-.298.211-.675 0-.378-.094-.581-.211-.683-.116-.102-.262-.109-.37-.109v1.583zM111.799.559h1.794v.806h-1.009v1.401h.726v.857h-.726V5.09h1.009v.806h-1.794V.559z"/></g></svg>