<?xml version="1.0" encoding="utf-8"?>
<!-- Generator: Adobe Illustrator 21.1.0, SVG Export Plug-In . SVG Version: 6.00 Build 0)  -->
<svg version="1.1" id="Layer_1" xmlns="http://www.w3.org/2000/svg" xmlns:xlink="http://www.w3.org/1999/xlink" x="0px" y="0px"
	 width="113.592px" height="6.309px" viewBox="0 0 113.592 6.309" enable-background="new 0 0 113.592 6.309" xml:space="preserve">
<g>
	<path fill="#FFFFFF" d="M66.261,1.331h-1.082v1.401h0.726v0.806h-0.726v2.324h-0.784V0.524h1.866
		C66.261,0.524,66.261,1.331,66.261,1.331z M66.653,0.524h0.784v5.337h-0.784V0.524z M68.918,3.08l-0.065-0.247h-0.044v3.028H68.09
		V0.524h0.697l0.762,2.781l0.065,0.247h0.043V0.524h0.719v5.337h-0.697L68.918,3.08z M71.031,5.862V0.524h0.617
		c0.726,0,1.118,0.145,1.329,0.552c0.203,0.407,0.232,1.075,0.232,2.12c0,1.046-0.029,1.707-0.232,2.113
		c-0.211,0.407-0.603,0.552-1.329,0.552L71.031,5.862L71.031,5.862z M71.815,5.077c0.269,0,0.421-0.029,0.501-0.29
		c0.047-0.185,0.071-0.375,0.073-0.566c0.007-0.255,0.007-0.596,0.007-1.032s0-0.777-0.007-1.031
		c-0.002-0.191-0.026-0.381-0.073-0.566c-0.08-0.254-0.232-0.283-0.501-0.283C71.815,1.309,71.815,5.077,71.815,5.077z
		 M75.104,1.955c0-0.174-0.007-0.37-0.058-0.523c-0.051-0.145-0.131-0.247-0.254-0.247c-0.203,0.007-0.269,0.218-0.269,0.53
		c0,0.182,0.08,0.37,0.196,0.574c0.116,0.203,0.269,0.414,0.421,0.639c0.181,0.269,0.363,0.545,0.501,0.813
		c0.138,0.269,0.232,0.545,0.232,0.835c0,0.356-0.058,0.69-0.225,0.937C75.481,5.76,75.212,5.92,74.784,5.92
		c-0.501,0-0.784-0.189-0.944-0.479s-0.196-0.675-0.196-1.075l0.77-0.073c0,0.225,0.007,0.45,0.065,0.617
		c0.051,0.174,0.138,0.29,0.305,0.29c0.232,0,0.319-0.247,0.319-0.588c0-0.174-0.087-0.378-0.203-0.588
		c-0.065-0.102-0.131-0.21-0.203-0.319c-0.153-0.218-0.32-0.465-0.494-0.733c-0.169-0.255-0.299-0.534-0.385-0.828
		c-0.043-0.139-0.065-0.284-0.065-0.429c0-0.29,0.065-0.603,0.232-0.842c0.18-0.258,0.476-0.41,0.791-0.407
		c0.472-0.007,0.748,0.189,0.9,0.472c0.153,0.29,0.196,0.646,0.196,0.944C75.872,1.882,75.104,1.955,75.104,1.955z M78.407,4.765
		c-0.003,0.201-0.048,0.399-0.131,0.581c-0.069,0.155-0.176,0.29-0.312,0.392c-0.145,0.116-0.341,0.182-0.603,0.182
		c-0.262,0-0.465-0.065-0.61-0.182c-0.134-0.102-0.239-0.237-0.305-0.392c-0.083-0.183-0.127-0.38-0.13-0.581V1.621
		c0.004-0.198,0.048-0.394,0.131-0.574c0.066-0.157,0.171-0.294,0.305-0.399c0.178-0.125,0.392-0.189,0.61-0.182
		c0.261,0,0.457,0.073,0.603,0.182c0.145,0.109,0.247,0.254,0.312,0.399c0.08,0.167,0.124,0.363,0.131,0.574L78.407,4.765
		L78.407,4.765z M77.623,1.621c0-0.145-0.029-0.247-0.102-0.334c-0.044-0.04-0.101-0.061-0.16-0.058
		c-0.138,0-0.203,0.102-0.232,0.196c-0.021,0.063-0.031,0.129-0.029,0.196v3.144c0,0.152,0.036,0.254,0.109,0.334
		c0.041,0.039,0.096,0.06,0.153,0.058c0.138,0,0.203-0.087,0.232-0.196c0.023-0.063,0.032-0.129,0.029-0.196
		C77.623,4.765,77.623,1.621,77.623,1.621z M80.309,5.862l-0.501-3.355l-0.029-0.225h-0.043v3.58H79.01V0.524h0.958l0.465,2.44
		l0.036,0.283h0.015l0.036-0.283l0.465-2.44h0.959v5.337h-0.726v-3.58h-0.044l-0.029,0.225l-0.501,3.355L80.309,5.862L80.309,5.862z
		 M82.596,0.524h1.793V1.33H83.38v1.401h0.726v0.857H83.38v1.467h1.009v0.806h-1.793V0.524z M87.18,2.724
		c0-0.068-0.384-0.273-0.384-0.921c0-0.742,0.494-1.424,1.39-1.424c0.256,0,0.444,0.043,0.665,0.137
		c0.162,0.068,0.315,0.162,0.315,0.35c-0.003,0.165-0.066,0.323-0.179,0.443c-0.077,0.077-0.128-0.017-0.179-0.077
		c-0.256-0.273-0.495-0.367-0.827-0.367c-0.495,0-0.921,0.452-0.921,0.955c0,0.409,0.23,0.767,0.503,0.767
		c0.213,0,0.316-0.043,0.469-0.043c0.111,0,0.162,0.043,0.162,0.102c0,0.196-0.375,0.367-0.52,0.367
		c-0.136,0-0.307-0.119-0.341-0.119c-0.043,0-0.486,0.188-0.486,0.904c0,0.998,0.784,1.611,1.748,1.611
		c0.716,0,1.765-0.418,1.765-1.808c0-0.179-0.034-0.52-0.102-0.546c-0.23-0.085-0.665-0.239-0.972-0.239
		c-0.324,0-0.554,0.171-0.554,0.486c0,0.409,0.358,0.443,0.622,0.494c0.102,0.017,0.137,0.043,0.137,0.077
		c0,0.085-0.145,0.196-0.264,0.196c-0.072-0.002-0.144-0.013-0.213-0.034c-0.263-0.08-0.45-0.314-0.469-0.588
		c0-0.691,0.554-1.049,1.143-1.049c0.409,0,1.032,0.401,1.663,0.401c0.29,0,0.477-0.196,0.477-0.477c0-0.46-0.384-0.537-0.716-0.537
		c-0.087,0.001-0.096-0.025-0.096-0.059c0-0.188,0.179-0.298,0.316-0.298c0.494,0,0.665,0.46,0.665,0.759
		c0,0.213-0.06,0.418-0.145,0.554c-0.179,0.299-0.588,0.46-0.818,0.46c-0.085,0-0.247-0.009-0.315-0.026
		c-0.06-0.008-0.111-0.034-0.111,0.06c0,0.06,0.008,0.188,0.008,0.264c0,0.861-0.614,2.43-2.345,2.43
		c-1.202,0-1.884-0.784-1.884-1.782C86.387,3.176,87.18,2.801,87.18,2.724z M94.894,5.862h-0.61l-0.719-5.337h0.726l0.312,2.774
		l0.014,0.174h0.058l0.022-0.174l0.334-2.774h0.566l0.334,2.774l0.022,0.174h0.058l0.014-0.174l0.312-2.774h0.726l-0.717,5.337
		h-0.61l-0.363-2.527l-0.044-0.312H95.3l-0.043,0.312L94.894,5.862z M97.515,0.524h0.784v5.337h-0.784V0.524z M99.78,3.08
		l-0.065-0.247h-0.044v3.028h-0.719V0.524h0.697l0.763,2.781l0.065,0.247h0.043V0.524h0.719v5.337h-0.697L99.78,3.08z
		 M103.192,5.862l-0.501-3.355l-0.029-0.225h-0.044v3.58h-0.726V0.524h0.958l0.465,2.44l0.036,0.283h0.014l0.036-0.283l0.465-2.44
		h0.959v5.337h-0.726v-3.58h-0.043l-0.029,0.225l-0.501,3.355L103.192,5.862L103.192,5.862z M107.519,4.765
		c-0.003,0.201-0.048,0.399-0.131,0.581c-0.069,0.155-0.176,0.29-0.312,0.392c-0.145,0.116-0.341,0.182-0.603,0.182
		c-0.262,0-0.465-0.065-0.61-0.182c-0.134-0.102-0.239-0.237-0.305-0.392c-0.083-0.183-0.128-0.38-0.131-0.581V1.621
		c0.004-0.198,0.048-0.394,0.131-0.574c0.066-0.157,0.171-0.294,0.305-0.399c0.178-0.125,0.392-0.189,0.61-0.182
		c0.261,0,0.457,0.073,0.603,0.182c0.145,0.109,0.247,0.254,0.312,0.399c0.08,0.167,0.124,0.363,0.131,0.574V4.765z M106.735,1.621
		c0-0.145-0.029-0.247-0.102-0.334c-0.044-0.04-0.101-0.061-0.16-0.058c-0.138,0-0.203,0.102-0.232,0.196
		c-0.021,0.063-0.031,0.129-0.029,0.196v3.144c0,0.152,0.036,0.254,0.109,0.334c0.041,0.039,0.096,0.06,0.152,0.058
		c0.138,0,0.203-0.087,0.232-0.196c0.023-0.063,0.032-0.129,0.029-0.196L106.735,1.621L106.735,1.621z M109.523,5.862l-0.407-2.251
		h-0.211v2.251h-0.784V0.524h0.784c0.937,0,1.336,0.53,1.336,1.539c0,0.53-0.138,1.009-0.435,1.213l0.501,2.585L109.523,5.862
		L109.523,5.862z M108.905,2.884c0.133,0.008,0.265-0.033,0.37-0.116c0.116-0.102,0.211-0.298,0.211-0.675
		c0-0.378-0.094-0.581-0.211-0.683c-0.116-0.102-0.262-0.109-0.37-0.109V2.884z M110.815,0.524h1.794V1.33H111.6v1.401h0.726v0.857
		H111.6v1.467h1.009v0.806h-1.794V0.524z"/>
</g>
<g>
	<path fill="#FFFFFF" d="M21.686,3.026V2.42c0-0.166-0.002-0.27-0.006-0.312s-0.022-0.076-0.054-0.099
		c-0.031-0.022-0.087-0.034-0.168-0.034h-0.04V1.888c0.152-0.003,0.32-0.03,0.501-0.08h0.04v2.085c0,0.181,0.003,0.29,0.009,0.329
		s0.026,0.068,0.06,0.088c0.034,0.019,0.096,0.028,0.187,0.028v0.087c-0.183,0.004-0.346,0.02-0.488,0.049
		c-0.015-0.06-0.023-0.152-0.023-0.28c-0.093,0.094-0.189,0.164-0.289,0.21c-0.099,0.047-0.202,0.07-0.308,0.07
		c-0.201,0-0.374-0.08-0.52-0.242c-0.146-0.161-0.219-0.357-0.219-0.587c0-0.252,0.075-0.457,0.224-0.612
		c0.149-0.156,0.326-0.234,0.532-0.234c0.104,0,0.204,0.019,0.297,0.057C21.515,2.894,21.603,2.951,21.686,3.026z M21.686,3.136
		c-0.083-0.072-0.167-0.126-0.25-0.162c-0.084-0.036-0.168-0.054-0.253-0.054c-0.143,0-0.262,0.055-0.357,0.165
		c-0.096,0.11-0.143,0.289-0.143,0.538c0,0.252,0.049,0.438,0.146,0.559c0.098,0.12,0.219,0.18,0.363,0.18
		c0.096,0,0.185-0.022,0.267-0.068c0.082-0.045,0.158-0.113,0.227-0.204V3.136z"/>
	<path fill="#FFFFFF" d="M23.799,3.386h-1.081c-0.005,0.075-0.008,0.13-0.008,0.167c0,0.273,0.043,0.478,0.128,0.614
		c0.085,0.137,0.212,0.206,0.382,0.206c0.229,0,0.393-0.104,0.488-0.31h0.091c-0.04,0.129-0.121,0.229-0.24,0.303
		c-0.12,0.072-0.25,0.108-0.392,0.108c-0.131,0-0.255-0.033-0.372-0.1c-0.117-0.065-0.212-0.159-0.287-0.281
		c-0.074-0.121-0.111-0.268-0.111-0.44c0-0.245,0.072-0.449,0.216-0.611c0.144-0.162,0.324-0.243,0.54-0.243
		c0.203,0,0.36,0.062,0.472,0.186C23.734,3.108,23.793,3.242,23.799,3.386z M23.468,3.311c0.003-0.029,0.005-0.055,0.005-0.078
		c0-0.111-0.032-0.197-0.097-0.259c-0.065-0.061-0.145-0.092-0.24-0.092c-0.23,0-0.367,0.143-0.411,0.428H23.468z"/>
	<path fill="#FFFFFF" d="M24.104,4.462V3.953h0.074c0.086,0.293,0.239,0.441,0.46,0.441c0.096,0,0.167-0.029,0.215-0.087
		c0.047-0.059,0.071-0.122,0.071-0.191c0-0.081-0.025-0.147-0.076-0.199c-0.052-0.052-0.152-0.114-0.301-0.188
		c-0.156-0.077-0.269-0.153-0.337-0.227c-0.068-0.073-0.102-0.164-0.102-0.271c0-0.102,0.037-0.2,0.11-0.292
		s0.176-0.139,0.309-0.139c0.135,0,0.247,0.055,0.335,0.165c0.019-0.019,0.043-0.065,0.074-0.138h0.07v0.479h-0.07
		c-0.025-0.115-0.074-0.213-0.146-0.296c-0.073-0.083-0.158-0.124-0.257-0.124c-0.076,0-0.137,0.023-0.184,0.07
		c-0.046,0.046-0.07,0.101-0.07,0.163c0,0.068,0.026,0.127,0.078,0.176c0.05,0.05,0.147,0.108,0.29,0.172
		c0.215,0.097,0.346,0.192,0.394,0.284c0.048,0.093,0.072,0.183,0.072,0.269c0,0.135-0.044,0.245-0.133,0.329
		c-0.089,0.085-0.201,0.127-0.336,0.127c-0.143,0-0.27-0.059-0.38-0.176c-0.034,0.038-0.062,0.092-0.083,0.163H24.104z"/>
	<path fill="#FFFFFF" d="M25.866,2.799V3.88c0,0.166,0.002,0.269,0.007,0.312c0.005,0.043,0.023,0.076,0.055,0.099
		c0.031,0.022,0.087,0.034,0.168,0.034h0.04v0.087h-0.835V4.325h0.064c0.09,0,0.148-0.013,0.175-0.039
		c0.027-0.025,0.043-0.057,0.047-0.093s0.006-0.141,0.006-0.313v-0.47c0-0.182-0.008-0.292-0.025-0.333s-0.04-0.066-0.068-0.076
		c-0.028-0.01-0.078-0.015-0.148-0.015h-0.051V2.899c0.225-0.022,0.399-0.056,0.523-0.1H25.866z M25.5,2.008
		c0-0.055,0.02-0.101,0.058-0.14c0.038-0.039,0.084-0.059,0.139-0.059c0.054,0,0.1,0.02,0.138,0.059
		c0.038,0.039,0.057,0.085,0.057,0.14c0,0.055-0.019,0.103-0.057,0.142c-0.038,0.04-0.084,0.059-0.138,0.059
		c-0.055,0-0.101-0.02-0.139-0.059C25.52,2.11,25.5,2.063,25.5,2.008z"/>
	<path fill="#FFFFFF" d="M27.54,2.998c0.107-0.121,0.216-0.182,0.326-0.182c0.061,0,0.107,0.016,0.141,0.049
		c0.033,0.033,0.05,0.069,0.05,0.108c0,0.083-0.038,0.125-0.113,0.125c-0.042,0-0.078-0.025-0.108-0.078
		c-0.028-0.048-0.057-0.072-0.087-0.072c-0.048,0-0.101,0.033-0.159,0.099c0.066,0.104,0.099,0.213,0.099,0.33
		c0,0.151-0.054,0.285-0.163,0.401c-0.109,0.117-0.292,0.181-0.549,0.189c-0.268,0.009-0.401,0.062-0.401,0.162
		c0,0.047,0.03,0.08,0.091,0.099c0.059,0.021,0.184,0.035,0.375,0.046c0.208,0.01,0.369,0.029,0.481,0.058s0.202,0.085,0.269,0.171
		S27.89,4.691,27.89,4.81c0,0.167-0.068,0.302-0.205,0.404c-0.136,0.102-0.333,0.153-0.589,0.153c-0.235,0-0.423-0.046-0.564-0.137
		C26.391,5.14,26.32,5.024,26.32,4.886c0-0.077,0.02-0.14,0.061-0.189c0.041-0.049,0.098-0.074,0.172-0.074
		c0.02,0,0.039,0.004,0.055,0.01c-0.078,0.086-0.117,0.177-0.117,0.272c0,0.111,0.052,0.203,0.156,0.276
		c0.104,0.072,0.26,0.108,0.467,0.108c0.184,0,0.328-0.037,0.431-0.11c0.103-0.074,0.154-0.169,0.154-0.283
		c0-0.127-0.046-0.216-0.138-0.268c-0.092-0.05-0.256-0.08-0.492-0.091c-0.271-0.011-0.448-0.045-0.528-0.101
		c-0.081-0.054-0.121-0.124-0.121-0.21c0-0.165,0.115-0.269,0.346-0.312c-0.12-0.071-0.21-0.151-0.271-0.242
		c-0.061-0.091-0.091-0.193-0.091-0.305c0-0.158,0.062-0.292,0.187-0.402c0.124-0.11,0.271-0.166,0.442-0.166
		C27.243,2.799,27.412,2.865,27.54,2.998z M26.687,3.411c0,0.163,0.034,0.282,0.101,0.358c0.067,0.076,0.152,0.114,0.255,0.114
		c0.096,0,0.179-0.038,0.248-0.113c0.068-0.075,0.103-0.205,0.103-0.391c0-0.187-0.037-0.315-0.11-0.386
		c-0.073-0.07-0.156-0.106-0.248-0.106c-0.116,0-0.203,0.043-0.261,0.131C26.716,3.104,26.687,3.235,26.687,3.411z"/>
	<path fill="#FFFFFF" d="M28.562,2.799h0.051c0.029,0.078,0.045,0.185,0.049,0.32c0.091-0.107,0.187-0.188,0.286-0.24
		c0.1-0.053,0.204-0.08,0.312-0.08c0.124,0,0.225,0.026,0.304,0.078c0.079,0.052,0.13,0.115,0.152,0.19
		c0.023,0.075,0.034,0.185,0.034,0.328V3.88c0,0.179,0.003,0.289,0.01,0.328s0.026,0.068,0.06,0.088
		c0.033,0.02,0.095,0.029,0.185,0.029v0.087h-0.793V4.325h0.036c0.091,0,0.15-0.014,0.178-0.04s0.043-0.057,0.047-0.093
		c0.004-0.035,0.006-0.14,0.006-0.312v-0.5c0-0.122-0.006-0.209-0.018-0.262c-0.012-0.052-0.044-0.099-0.097-0.139
		s-0.119-0.061-0.2-0.061c-0.092,0-0.18,0.027-0.264,0.083c-0.084,0.055-0.163,0.137-0.238,0.247V3.88
		c0,0.179,0.003,0.289,0.011,0.328c0.007,0.039,0.027,0.068,0.061,0.088c0.033,0.02,0.096,0.029,0.187,0.029v0.087h-0.784V4.325
		c0.087,0,0.148-0.009,0.182-0.026c0.034-0.018,0.055-0.045,0.063-0.081c0.008-0.035,0.013-0.148,0.013-0.337V3.418
		c0-0.181-0.004-0.29-0.011-0.329s-0.027-0.067-0.061-0.087c-0.033-0.02-0.096-0.029-0.187-0.029V2.886
		C28.275,2.871,28.417,2.842,28.562,2.799z"/>
	<path fill="#FFFFFF" d="M31.637,3.386h-1.081c-0.005,0.075-0.008,0.13-0.008,0.167c0,0.273,0.043,0.478,0.128,0.614
		c0.085,0.137,0.212,0.206,0.382,0.206c0.229,0,0.393-0.104,0.488-0.31h0.091c-0.04,0.129-0.121,0.229-0.24,0.303
		c-0.12,0.072-0.25,0.108-0.392,0.108c-0.131,0-0.255-0.033-0.372-0.1c-0.117-0.065-0.212-0.159-0.287-0.281
		c-0.074-0.121-0.111-0.268-0.111-0.44c0-0.245,0.072-0.449,0.216-0.611c0.144-0.162,0.324-0.243,0.54-0.243
		c0.203,0,0.36,0.062,0.472,0.186C31.572,3.108,31.631,3.242,31.637,3.386z M31.306,3.311c0.003-0.029,0.005-0.055,0.005-0.078
		c0-0.111-0.032-0.197-0.097-0.259c-0.065-0.061-0.145-0.092-0.24-0.092c-0.23,0-0.367,0.143-0.411,0.428H31.306z"/>
	<path fill="#FFFFFF" d="M33.241,3.026V2.42c0-0.166-0.002-0.27-0.006-0.312s-0.022-0.076-0.054-0.099
		c-0.031-0.022-0.087-0.034-0.168-0.034h-0.04V1.888c0.152-0.003,0.32-0.03,0.501-0.08h0.04v2.085c0,0.181,0.003,0.29,0.009,0.329
		s0.026,0.068,0.06,0.088c0.034,0.019,0.096,0.028,0.187,0.028v0.087c-0.183,0.004-0.346,0.02-0.488,0.049
		c-0.015-0.06-0.023-0.152-0.023-0.28c-0.093,0.094-0.189,0.164-0.289,0.21c-0.099,0.047-0.202,0.07-0.308,0.07
		c-0.201,0-0.374-0.08-0.52-0.242c-0.146-0.161-0.219-0.357-0.219-0.587c0-0.252,0.075-0.457,0.224-0.612
		c0.149-0.156,0.326-0.234,0.532-0.234c0.104,0,0.204,0.019,0.297,0.057C33.07,2.894,33.158,2.951,33.241,3.026z M33.241,3.136
		c-0.083-0.072-0.167-0.126-0.25-0.162c-0.084-0.036-0.168-0.054-0.253-0.054c-0.143,0-0.262,0.055-0.357,0.165
		c-0.096,0.11-0.143,0.289-0.143,0.538c0,0.252,0.049,0.438,0.146,0.559c0.098,0.12,0.219,0.18,0.363,0.18
		c0.096,0,0.185-0.022,0.267-0.068c0.082-0.045,0.158-0.113,0.227-0.204V3.136z"/>
	<path fill="#FFFFFF" d="M36.483,4.128h0.07c-0.012,0.216-0.118,0.324-0.318,0.324c-0.086,0-0.154-0.022-0.204-0.068
		c-0.05-0.045-0.082-0.113-0.098-0.202c-0.126,0.089-0.241,0.157-0.345,0.202c-0.104,0.046-0.197,0.068-0.279,0.068
		c-0.105,0-0.195-0.03-0.271-0.091s-0.114-0.141-0.114-0.24c0-0.13,0.063-0.244,0.19-0.341s0.302-0.192,0.525-0.284l0.293-0.119
		V3.301c0-0.107-0.007-0.185-0.021-0.233c-0.014-0.048-0.05-0.091-0.108-0.128c-0.058-0.038-0.135-0.057-0.229-0.057
		c-0.189,0-0.295,0.063-0.316,0.189c-0.021,0.129-0.073,0.193-0.159,0.193c-0.077,0-0.116-0.037-0.116-0.11
		c0-0.072,0.051-0.149,0.154-0.232c0.102-0.083,0.261-0.124,0.477-0.124c0.16,0,0.285,0.025,0.373,0.076
		c0.088,0.05,0.147,0.108,0.175,0.172s0.042,0.163,0.042,0.295v0.626c0,0.146,0.007,0.241,0.022,0.282
		c0.016,0.042,0.048,0.062,0.099,0.062C36.412,4.313,36.463,4.252,36.483,4.128z M35.934,3.466l-0.206,0.083
		c-0.326,0.132-0.489,0.299-0.489,0.5c0,0.079,0.021,0.144,0.062,0.192s0.096,0.072,0.163,0.072c0.059,0,0.128-0.02,0.206-0.059
		c0.079-0.039,0.166-0.098,0.263-0.176V3.466z"/>
	<path fill="#FFFFFF" d="M37.127,2.799h0.051c0.029,0.078,0.045,0.185,0.049,0.32c0.091-0.107,0.187-0.188,0.286-0.24
		c0.1-0.053,0.204-0.08,0.312-0.08c0.124,0,0.225,0.026,0.304,0.078c0.079,0.052,0.13,0.115,0.152,0.19
		c0.023,0.075,0.034,0.185,0.034,0.328V3.88c0,0.179,0.003,0.289,0.01,0.328s0.026,0.068,0.06,0.088
		c0.033,0.02,0.095,0.029,0.185,0.029v0.087h-0.793V4.325h0.036c0.091,0,0.15-0.014,0.178-0.04s0.043-0.057,0.047-0.093
		c0.004-0.035,0.006-0.14,0.006-0.312v-0.5c0-0.122-0.006-0.209-0.018-0.262c-0.012-0.052-0.044-0.099-0.097-0.139
		s-0.119-0.061-0.2-0.061c-0.092,0-0.18,0.027-0.264,0.083c-0.084,0.055-0.163,0.137-0.238,0.247V3.88
		c0,0.179,0.003,0.289,0.011,0.328c0.007,0.039,0.027,0.068,0.061,0.088c0.033,0.02,0.096,0.029,0.187,0.029v0.087h-0.784V4.325
		c0.087,0,0.148-0.009,0.182-0.026c0.034-0.018,0.055-0.045,0.063-0.081c0.008-0.035,0.013-0.148,0.013-0.337V3.418
		c0-0.181-0.004-0.29-0.011-0.329s-0.027-0.067-0.061-0.087c-0.033-0.02-0.096-0.029-0.187-0.029V2.886
		C36.84,2.871,36.982,2.842,37.127,2.799z"/>
	<path fill="#FFFFFF" d="M40.109,3.026V2.42c0-0.166-0.002-0.27-0.006-0.312s-0.022-0.076-0.054-0.099
		c-0.031-0.022-0.087-0.034-0.168-0.034h-0.04V1.888c0.152-0.003,0.32-0.03,0.501-0.08h0.04v2.085c0,0.181,0.003,0.29,0.009,0.329
		s0.026,0.068,0.06,0.088c0.034,0.019,0.096,0.028,0.187,0.028v0.087c-0.183,0.004-0.346,0.02-0.488,0.049
		c-0.015-0.06-0.023-0.152-0.023-0.28c-0.093,0.094-0.189,0.164-0.289,0.21c-0.099,0.047-0.202,0.07-0.308,0.07
		c-0.201,0-0.374-0.08-0.52-0.242c-0.146-0.161-0.219-0.357-0.219-0.587c0-0.252,0.075-0.457,0.224-0.612
		c0.149-0.156,0.326-0.234,0.532-0.234c0.104,0,0.204,0.019,0.297,0.057C39.938,2.894,40.026,2.951,40.109,3.026z M40.109,3.136
		c-0.083-0.072-0.167-0.126-0.25-0.162C39.775,2.938,39.69,2.92,39.606,2.92c-0.143,0-0.262,0.055-0.357,0.165
		c-0.096,0.11-0.143,0.289-0.143,0.538c0,0.252,0.049,0.438,0.146,0.559c0.098,0.12,0.219,0.18,0.363,0.18
		c0.096,0,0.185-0.022,0.267-0.068c0.082-0.045,0.158-0.113,0.227-0.204V3.136z"/>
	<path fill="#FFFFFF" d="M43.1,3.026V2.42c0-0.166-0.002-0.27-0.006-0.312s-0.022-0.076-0.054-0.099
		c-0.031-0.022-0.087-0.034-0.168-0.034h-0.04V1.888c0.152-0.003,0.32-0.03,0.501-0.08h0.04v2.085c0,0.181,0.003,0.29,0.009,0.329
		s0.026,0.068,0.06,0.088c0.034,0.019,0.096,0.028,0.187,0.028v0.087c-0.183,0.004-0.346,0.02-0.488,0.049
		c-0.015-0.06-0.023-0.152-0.023-0.28c-0.093,0.094-0.189,0.164-0.289,0.21c-0.099,0.047-0.202,0.07-0.308,0.07
		c-0.201,0-0.374-0.08-0.52-0.242c-0.146-0.161-0.219-0.357-0.219-0.587c0-0.252,0.075-0.457,0.224-0.612
		c0.149-0.156,0.326-0.234,0.532-0.234c0.104,0,0.204,0.019,0.297,0.057C42.928,2.894,43.017,2.951,43.1,3.026z M43.1,3.136
		c-0.083-0.072-0.167-0.126-0.25-0.162c-0.084-0.036-0.168-0.054-0.253-0.054c-0.143,0-0.262,0.055-0.357,0.165
		c-0.096,0.11-0.143,0.289-0.143,0.538c0,0.252,0.049,0.438,0.146,0.559c0.098,0.12,0.219,0.18,0.363,0.18
		c0.096,0,0.185-0.022,0.267-0.068C42.955,4.248,43.03,4.18,43.1,4.089V3.136z"/>
	<path fill="#FFFFFF" d="M45.213,3.386h-1.081c-0.005,0.075-0.008,0.13-0.008,0.167c0,0.273,0.043,0.478,0.128,0.614
		c0.085,0.137,0.212,0.206,0.382,0.206c0.229,0,0.393-0.104,0.488-0.31h0.091c-0.04,0.129-0.121,0.229-0.24,0.303
		c-0.12,0.072-0.25,0.108-0.392,0.108c-0.131,0-0.255-0.033-0.372-0.1c-0.117-0.065-0.212-0.159-0.287-0.281
		c-0.074-0.121-0.111-0.268-0.111-0.44c0-0.245,0.072-0.449,0.216-0.611c0.144-0.162,0.324-0.243,0.54-0.243
		c0.203,0,0.36,0.062,0.472,0.186C45.148,3.108,45.207,3.242,45.213,3.386z M44.882,3.311c0.003-0.029,0.005-0.055,0.005-0.078
		c0-0.111-0.032-0.197-0.097-0.259c-0.065-0.061-0.145-0.092-0.24-0.092c-0.23,0-0.367,0.143-0.411,0.428H44.882z"/>
	<path fill="#FFFFFF" d="M46.264,4.475h-0.109l-0.551-1.244c-0.054-0.12-0.097-0.196-0.129-0.229
		c-0.031-0.033-0.083-0.051-0.155-0.053V2.862h0.701v0.087c-0.077,0-0.129,0.006-0.158,0.019c-0.028,0.013-0.042,0.037-0.042,0.072
		c0,0.028,0.025,0.096,0.076,0.203l0.418,0.941l0.377-0.839c0.06-0.134,0.089-0.221,0.089-0.262c0-0.084-0.063-0.129-0.189-0.134
		V2.862h0.522v0.087c-0.064,0.004-0.118,0.031-0.162,0.081c-0.043,0.05-0.104,0.162-0.183,0.336L46.264,4.475z"/>
	<path fill="#FFFFFF" d="M48.576,3.386h-1.081c-0.005,0.075-0.008,0.13-0.008,0.167c0,0.273,0.043,0.478,0.128,0.614
		c0.085,0.137,0.212,0.206,0.382,0.206c0.229,0,0.393-0.104,0.488-0.31h0.091c-0.04,0.129-0.121,0.229-0.24,0.303
		c-0.12,0.072-0.25,0.108-0.392,0.108c-0.131,0-0.255-0.033-0.372-0.1c-0.117-0.065-0.212-0.159-0.287-0.281
		c-0.074-0.121-0.111-0.268-0.111-0.44c0-0.245,0.072-0.449,0.216-0.611c0.144-0.162,0.324-0.243,0.54-0.243
		c0.203,0,0.36,0.062,0.472,0.186C48.511,3.108,48.57,3.242,48.576,3.386z M48.245,3.311c0.003-0.029,0.005-0.055,0.005-0.078
		c0-0.111-0.032-0.197-0.097-0.259c-0.065-0.061-0.145-0.092-0.24-0.092c-0.23,0-0.367,0.143-0.411,0.428H48.245z"/>
	<path fill="#FFFFFF" d="M49.319,1.809V3.88c0,0.166,0.002,0.269,0.006,0.312s0.022,0.076,0.054,0.099
		c0.031,0.022,0.088,0.034,0.168,0.034h0.045v0.087h-0.83V4.325h0.053c0.076,0,0.13-0.011,0.162-0.031s0.051-0.05,0.058-0.088
		s0.009-0.146,0.009-0.326V2.347c0-0.163-0.014-0.266-0.043-0.308c-0.029-0.042-0.1-0.063-0.212-0.063V1.888
		c0.077,0,0.167-0.009,0.271-0.026c0.104-0.018,0.176-0.035,0.215-0.053H49.319z"/>
	<path fill="#FFFFFF" d="M49.798,3.634c0-0.237,0.08-0.436,0.238-0.596c0.159-0.16,0.355-0.239,0.587-0.239
		c0.233,0,0.43,0.08,0.589,0.24c0.159,0.161,0.238,0.359,0.238,0.595c0,0.261-0.081,0.466-0.242,0.616
		c-0.162,0.15-0.356,0.225-0.585,0.225S50.2,4.398,50.039,4.247C49.878,4.095,49.798,3.891,49.798,3.634z M50.112,3.644
		c0,0.275,0.044,0.468,0.134,0.578c0.089,0.111,0.215,0.166,0.377,0.166c0.165,0,0.292-0.055,0.379-0.166
		c0.088-0.11,0.132-0.303,0.132-0.578c0-0.272-0.043-0.467-0.131-0.583c-0.087-0.116-0.214-0.174-0.38-0.174
		c-0.166,0-0.292,0.058-0.38,0.173S50.112,3.37,50.112,3.644z"/>
	<path fill="#FFFFFF" d="M52.072,2.799h0.051c0.021,0.071,0.032,0.156,0.032,0.255c0.081-0.086,0.167-0.15,0.26-0.192
		c0.093-0.042,0.191-0.063,0.294-0.063c0.215,0,0.394,0.075,0.536,0.226s0.214,0.35,0.214,0.598c0,0.242-0.072,0.444-0.215,0.607
		c-0.144,0.163-0.332,0.244-0.565,0.244c-0.096,0-0.188-0.019-0.275-0.058c-0.088-0.038-0.171-0.096-0.249-0.171v0.589
		c0,0.179,0.003,0.288,0.01,0.327s0.027,0.068,0.06,0.088c0.033,0.02,0.094,0.029,0.184,0.029v0.088h-0.811V5.279h0.057
		c0.09,0,0.148-0.013,0.175-0.038c0.027-0.026,0.043-0.058,0.047-0.093c0.004-0.036,0.006-0.141,0.006-0.313V3.426
		c0-0.165-0.002-0.27-0.006-0.312c-0.004-0.043-0.022-0.076-0.054-0.099c-0.032-0.023-0.088-0.034-0.168-0.034h-0.057V2.894
		C51.724,2.881,51.881,2.85,52.072,2.799z M52.155,4.121c0.068,0.083,0.14,0.146,0.217,0.188c0.076,0.042,0.157,0.063,0.241,0.063
		c0.143,0,0.267-0.062,0.373-0.185c0.106-0.122,0.159-0.317,0.159-0.584c0-0.232-0.051-0.406-0.153-0.521
		c-0.102-0.115-0.224-0.172-0.365-0.172c-0.087,0-0.17,0.022-0.249,0.066c-0.078,0.044-0.152,0.111-0.223,0.201V4.121z"/>
	<path fill="#FFFFFF" d="M55.162,3.386h-1.081c-0.005,0.075-0.008,0.13-0.008,0.167c0,0.273,0.043,0.478,0.128,0.614
		c0.085,0.137,0.212,0.206,0.382,0.206c0.229,0,0.393-0.104,0.488-0.31h0.091c-0.04,0.129-0.121,0.229-0.24,0.303
		c-0.12,0.072-0.25,0.108-0.392,0.108c-0.131,0-0.255-0.033-0.372-0.1c-0.117-0.065-0.212-0.159-0.287-0.281
		c-0.074-0.121-0.111-0.268-0.111-0.44c0-0.245,0.072-0.449,0.216-0.611c0.144-0.162,0.324-0.243,0.54-0.243
		c0.203,0,0.36,0.062,0.472,0.186C55.097,3.108,55.156,3.242,55.162,3.386z M54.831,3.311c0.003-0.029,0.005-0.055,0.005-0.078
		c0-0.111-0.032-0.197-0.097-0.259c-0.065-0.061-0.145-0.092-0.24-0.092c-0.23,0-0.367,0.143-0.411,0.428H54.831z"/>
	<path fill="#FFFFFF" d="M56.766,3.026V2.42c0-0.166-0.002-0.27-0.007-0.312c-0.004-0.043-0.021-0.076-0.054-0.099
		c-0.031-0.022-0.087-0.034-0.168-0.034h-0.04V1.888c0.152-0.003,0.32-0.03,0.502-0.08h0.039v2.085c0,0.181,0.004,0.29,0.01,0.329
		s0.026,0.068,0.06,0.088c0.034,0.019,0.096,0.028,0.187,0.028v0.087c-0.184,0.004-0.346,0.02-0.488,0.049
		c-0.016-0.06-0.023-0.152-0.023-0.28c-0.093,0.094-0.189,0.164-0.288,0.21c-0.099,0.047-0.202,0.07-0.308,0.07
		c-0.201,0-0.374-0.08-0.52-0.242c-0.146-0.161-0.219-0.357-0.219-0.587c0-0.252,0.075-0.457,0.224-0.612
		c0.149-0.156,0.326-0.234,0.532-0.234c0.104,0,0.204,0.019,0.297,0.057C56.595,2.894,56.683,2.951,56.766,3.026z M56.766,3.136
		c-0.083-0.072-0.167-0.126-0.25-0.162c-0.084-0.036-0.168-0.054-0.253-0.054c-0.143,0-0.262,0.055-0.357,0.165
		c-0.096,0.11-0.143,0.289-0.143,0.538c0,0.252,0.049,0.438,0.146,0.559c0.098,0.12,0.219,0.18,0.363,0.18
		c0.096,0,0.185-0.022,0.267-0.068c0.082-0.045,0.158-0.113,0.227-0.204V3.136z"/>
	<path fill="#FFFFFF" d="M58.674,4.475H58.6V2.399c0-0.151-0.004-0.249-0.012-0.293c-0.009-0.044-0.029-0.077-0.062-0.098
		s-0.092-0.032-0.176-0.032V1.888c0.075,0,0.164-0.009,0.27-0.026c0.104-0.018,0.176-0.035,0.214-0.053h0.04v1.228
		c0.088-0.08,0.178-0.139,0.269-0.178s0.183-0.059,0.276-0.059c0.224,0,0.406,0.078,0.549,0.233
		c0.144,0.155,0.215,0.354,0.215,0.595c0,0.242-0.073,0.444-0.22,0.605c-0.146,0.162-0.337,0.242-0.57,0.242
		c-0.115,0-0.216-0.023-0.302-0.071c-0.087-0.049-0.159-0.12-0.217-0.215C58.791,4.271,58.725,4.366,58.674,4.475z M58.873,3.147
		v0.608c0,0.157,0.01,0.269,0.031,0.338c0.021,0.068,0.07,0.135,0.15,0.197c0.079,0.063,0.172,0.095,0.278,0.095
		c0.163,0,0.292-0.066,0.389-0.2s0.146-0.327,0.146-0.578c0-0.231-0.046-0.407-0.136-0.527s-0.211-0.181-0.36-0.181
		c-0.086,0-0.171,0.021-0.253,0.062C59.035,3.002,58.953,3.064,58.873,3.147z"/>
	<path fill="#FFFFFF" d="M61.22,4.119l0.359-0.862c0.052-0.126,0.078-0.196,0.078-0.21c0-0.063-0.07-0.096-0.211-0.099V2.862h0.546
		v0.087c-0.085,0.004-0.146,0.026-0.186,0.067s-0.088,0.131-0.146,0.271l-0.69,1.668c-0.066,0.159-0.124,0.267-0.175,0.324
		c-0.05,0.058-0.105,0.087-0.166,0.087c-0.082,0-0.123-0.038-0.123-0.112c0-0.086,0.065-0.158,0.196-0.218
		c0.077-0.034,0.129-0.062,0.154-0.087c0.026-0.024,0.052-0.067,0.077-0.131l0.147-0.369l-0.583-1.25
		c-0.052-0.11-0.095-0.179-0.129-0.208c-0.034-0.029-0.092-0.043-0.174-0.043V2.862h0.712v0.087
		c-0.125,0.004-0.188,0.03-0.188,0.078c0,0.019,0.024,0.081,0.073,0.186L61.22,4.119z"/>
</g>
</svg>
