<?xml version="1.0" encoding="utf-8"?>
<!-- Generator: Adobe Illustrator 21.1.0, SVG Export Plug-In . SVG Version: 6.00 Build 0)  -->
<svg version="1.1" id="Layer_1" xmlns="http://www.w3.org/2000/svg" xmlns:xlink="http://www.w3.org/1999/xlink" x="0px" y="0px"
	 width="2000px" height="1369px" viewBox="0 0 2000 1369" enable-background="new 0 0 2000 1369" xml:space="preserve">
<g>
	<path fill="#FFFFFF" d="M1094.292,709.794c-2.867-4.545-6.722-8.251-11.562-11.118c-4.846-2.863-10.822-4.299-17.938-4.299
		s-13.045,1.436-17.789,4.299c-4.744,2.867-8.552,6.573-11.415,11.118c-2.867,4.549-4.892,9.784-6.078,15.714
		c-1.186,5.93-1.778,11.961-1.778,18.085c0,6.129,0.593,12.109,1.778,17.938c1.187,5.832,3.211,11.072,6.078,15.714
		c2.863,4.646,6.671,8.353,11.415,11.118c4.744,2.771,10.674,4.15,17.789,4.15s13.092-1.38,17.938-4.15
		c4.841-2.766,8.695-6.472,11.562-11.118c2.863-4.642,4.893-9.882,6.078-15.714c1.186-5.828,1.779-11.809,1.779-17.938
		c0-6.124-0.594-12.155-1.779-18.085S1097.155,714.343,1094.292,709.794z"/>
	<path fill="#FFFFFF" d="M832.495,1006.312c-3.067,0.593-6.277,1.089-9.636,1.482c-3.363,0.398-6.722,0.89-10.081,1.482
		c-3.164,0.593-6.277,1.386-9.339,2.372c-3.067,0.991-5.735,2.325-8.005,4.003c-2.274,1.682-4.104,3.808-5.485,6.374
		c-1.385,2.571-2.075,5.832-2.075,9.784c0,3.757,0.69,6.921,2.075,9.487c1.381,2.571,3.261,4.596,5.633,6.078
		s5.138,2.52,8.302,3.113c3.159,0.593,6.42,0.889,9.784,0.889c8.302,0,14.723-1.38,19.271-4.15
		c4.545-2.766,7.903-6.078,10.081-9.933c2.173-3.854,3.507-7.755,4.002-11.711c0.491-3.951,0.741-7.115,0.741-9.487v-15.714
		c-1.779,1.585-4.002,2.816-6.671,3.706C838.425,1004.978,835.557,1005.719,832.495,1006.312z"/>
	<path fill="#FFFFFF" d="M0,0v1369h2000V0H0z M831.759,666.804h40.025v21.347h0.889c5.337-8.895,12.253-15.366,20.754-19.42
		c8.496-4.049,17.196-6.078,26.09-6.078c11.267,0,20.504,1.533,27.721,4.596c7.213,3.066,12.897,7.314,17.048,12.749
		c4.151,5.438,7.065,12.059,8.747,19.864c1.677,7.811,2.52,16.455,2.52,25.942v94.282h-42.101v-86.573
		c0-12.647-1.979-22.088-5.93-28.314c-3.957-6.227-10.97-9.339-21.051-9.339c-11.465,0-19.767,3.409-24.905,10.229
		c-5.142,6.819-7.708,18.039-7.708,33.65v80.348h-42.101V666.804z M708.423,608.396h42.101v211.689h-42.101V608.396z
		 M649.127,608.396h42.101v211.689h-42.101V608.396z M589.832,608.396h42.101v34.688h-42.101V608.396z M272.298,1075.393h-42.101
		v-211.69h42.101V1075.393z M280.007,820.086h-46.548V608.396h46.548V820.086z M433.584,1008.98H322.996
		c0.593,13.638,4.049,23.523,10.377,29.648c6.324,6.129,15.417,9.19,27.277,9.19c8.496,0,15.811-2.121,21.94-6.374
		c6.124-4.248,9.881-8.746,11.266-13.49h37.061c-5.93,18.382-15.023,31.529-27.276,39.433
		c-12.258,7.907-27.082,11.859-44.473,11.859c-12.059,0-22.931-1.928-32.613-5.781c-9.687-3.854-17.891-9.34-24.608-16.455
		c-6.722-7.116-11.91-15.612-15.565-25.498c-3.66-9.881-5.485-20.754-5.485-32.613c0-11.461,1.876-22.135,5.633-32.021
		c3.752-9.881,9.089-18.428,16.01-25.646c6.917-7.213,15.167-12.897,24.757-17.048c9.584-4.151,20.207-6.227,31.872-6.227
		c13.045,0,24.409,2.521,34.096,7.561c9.682,5.04,17.641,11.813,23.867,20.31c6.227,8.5,10.72,18.188,13.49,29.056
		C433.385,985.757,434.372,997.121,433.584,1008.98z M525.492,950.276h-30.834v75.899c0,7.116,1.186,11.859,3.558,14.231
		c2.372,2.372,7.116,3.558,14.231,3.558c2.372,0,4.642-0.097,6.819-0.296c2.172-0.194,4.248-0.491,6.226-0.89v32.613
		c-3.558,0.593-7.514,0.986-11.859,1.186c-4.35,0.195-8.598,0.297-12.749,0.297c-6.522,0-12.703-0.444-18.53-1.334
		c-5.833-0.89-10.97-2.617-15.417-5.188c-4.447-2.566-7.959-6.227-10.525-10.97c-2.571-4.744-3.854-10.971-3.854-18.679v-90.428
		h-25.498V922.11h25.498v-45.955h42.101v45.955h30.834V950.276z M539.727,820.086H496.44l-27.276-102.88h-0.593l-26.09,102.88
		h-43.583l-48.624-153.282h44.473l28.166,104.065h0.593l25.498-104.065h40.915l26.09,103.77h0.593l28.166-103.77h43.287
		L539.727,820.086z M589.832,666.804h42.101v153.282h-42.101V666.804z M737.475,1075.393h-42.101v-86.573
		c0-12.647-1.979-22.088-5.93-28.314c-3.957-6.227-10.97-9.339-21.051-9.339c-11.465,0-19.767,3.409-24.905,10.229
		c-5.142,6.819-7.708,18.039-7.708,33.65v80.348H593.68v-211.69h42.101v79.755h0.89c5.336-8.895,12.156-15.366,20.458-19.42
		c8.301-4.049,16.404-6.078,24.312-6.078c11.267,0,20.504,1.533,27.721,4.596c7.213,3.066,12.897,7.314,17.048,12.749
		c4.151,5.438,7.065,12.059,8.747,19.864c1.677,7.811,2.52,16.455,2.52,25.942V1075.393z M852.508,1075.393
		c-0.792-2.372-1.437-4.79-1.927-7.264c-0.496-2.47-0.843-4.989-1.038-7.561c-6.722,6.921-14.63,11.762-23.719,14.527
		c-9.094,2.766-18.382,4.151-27.87,4.151c-7.315,0-14.134-0.89-20.458-2.669c-6.328-1.778-11.859-4.544-16.603-8.301
		c-4.744-3.753-8.45-8.496-11.118-14.231c-2.668-5.73-4.003-12.55-4.003-20.458c0-8.695,1.529-15.861,4.596-21.495
		c3.062-5.633,7.014-10.126,11.859-13.489c4.841-3.359,10.377-5.879,16.603-7.561c6.226-1.678,12.499-3.012,18.827-4.003
		c6.324-0.986,12.55-1.778,18.679-2.372c6.125-0.593,11.563-1.482,16.307-2.668s8.496-2.914,11.267-5.188
		c2.766-2.271,4.049-5.582,3.854-9.933c0-4.544-0.741-8.153-2.224-10.821s-3.46-4.744-5.93-6.227
		c-2.474-1.482-5.336-2.469-8.598-2.965c-3.262-0.491-6.773-0.741-10.525-0.741c-8.302,0-14.824,1.779-19.568,5.337
		c-4.744,3.558-7.514,9.487-8.302,17.789h-42.101c0.593-9.881,3.062-18.085,7.412-24.608c4.345-6.522,9.881-11.757,16.603-15.714
		c6.717-3.951,14.277-6.768,22.681-8.449c8.399-1.677,16.849-2.521,25.349-2.521c7.709,0,15.515,0.547,23.422,1.631
		c7.903,1.089,15.121,3.215,21.644,6.374c6.522,3.164,11.859,7.561,16.01,13.194c4.15,5.633,6.226,13.096,6.226,22.385v79.754
		c0,6.921,0.394,13.541,1.186,19.864c0.788,6.328,2.172,11.072,4.15,14.231H852.508z M989.48,1075.393
		c-3.558,0.593-7.514,0.986-11.859,1.186c-4.35,0.195-8.598,0.297-12.749,0.297c-6.522,0-12.703-0.444-18.53-1.334
		c-5.833-0.89-10.97-2.617-15.417-5.188c-4.447-2.566-7.959-6.227-10.525-10.97c-2.571-4.744-3.854-10.971-3.854-18.679v-90.428
		h-25.498V922.11h25.498v-45.955h42.101v45.955h30.834v28.166h-30.834v75.899c0,7.116,1.186,11.859,3.558,14.231
		c2.372,2.372,7.116,3.558,14.231,3.558c2.372,0,4.642-0.097,6.819-0.296c2.172-0.194,4.248-0.491,6.226-0.89V1075.393z
		 M1137.721,1008.98h-110.59c0.594,13.638,4.049,23.523,10.377,29.648c6.324,6.129,15.418,9.19,27.277,9.19
		c8.496,0,15.811-2.121,21.939-6.374c6.125-4.248,9.881-8.746,11.266-13.49h37.061c-5.93,18.382-15.023,31.529-27.275,39.433
		c-12.258,7.907-27.082,11.859-44.473,11.859c-12.059,0-22.932-1.928-32.613-5.781c-9.688-3.854-17.892-9.34-24.609-16.455
		c-6.721-7.116-11.91-15.612-15.565-25.498c-3.66-9.881-5.485-20.754-5.485-32.613c0-11.461,1.876-22.135,5.633-32.021
		c3.752-9.881,9.089-18.428,16.01-25.646c6.916-7.213,15.167-12.897,24.756-17.048c9.586-4.151,20.207-6.227,31.873-6.227
		c13.045,0,24.408,2.521,34.096,7.561c9.682,5.04,17.641,11.813,23.867,20.31c6.225,8.5,10.719,18.188,13.49,29.056
		C1137.521,985.757,1138.508,997.121,1137.721,1008.98z M1138.617,776.799c-3.758,9.887-9.094,18.336-16.011,25.35
		c-6.921,7.019-15.269,12.406-25.053,16.158c-9.784,3.753-20.708,5.634-32.762,5.634c-12.059,0-22.932-1.881-32.613-5.634
		c-9.687-3.752-17.988-9.14-24.905-16.158c-6.92-7.014-12.257-15.463-16.01-25.35c-3.757-9.881-5.633-20.948-5.633-33.206
		c0-12.253,1.876-23.371,5.633-33.354c3.752-9.979,9.089-18.479,16.01-25.498c6.917-7.014,15.219-12.452,24.905-16.307
		c9.682-3.854,20.555-5.781,32.613-5.781c12.054,0,22.978,1.928,32.762,5.781c9.784,3.854,18.132,9.293,25.053,16.307
		c6.917,7.019,12.253,15.52,16.011,25.498c3.752,9.983,5.633,21.102,5.633,33.354
		C1144.25,755.851,1142.369,766.918,1138.617,776.799z M1179.974,815.046c-4.447-2.566-7.959-6.227-10.525-10.97
		c-2.571-4.744-3.854-10.971-3.854-18.679V694.97h-25.497v-28.166h25.497v-45.956h42.101v45.956h30.835v28.166h-30.835v75.899
		c0,7.116,1.187,11.859,3.559,14.231c2.371,2.372,7.115,3.558,14.23,3.558c2.372,0,4.643-0.097,6.819-0.296
		c2.173-0.194,4.248-0.491,6.227-0.89v32.613c-3.558,0.593-7.514,0.986-11.859,1.186c-4.351,0.195-8.599,0.297-12.749,0.297
		c-6.522,0-12.702-0.444-18.53-1.334C1189.559,819.345,1184.421,817.617,1179.974,815.046z M1385.874,1075.393h-43.286
		l-27.277-102.88h-0.593l-26.091,102.88h-43.583l-48.623-153.282h44.473l28.166,104.065h0.593l25.497-104.065h40.915l26.091,103.77
		h0.593l28.166-103.77h43.287L1385.874,1075.393z M1478.079,1075.393h-42.101V922.11h42.101V1075.393z M1478.079,898.392h-42.101
		v-34.689h42.101V898.392z M1637.884,1075.393h-42.102v-86.573c0-12.647-1.978-22.088-5.93-28.314
		c-3.956-6.227-10.97-9.339-21.05-9.339c-11.466,0-19.768,3.409-24.905,10.229c-5.142,6.819-7.708,18.039-7.708,33.65v80.348
		h-42.102V922.11h40.025v21.347h0.89c5.337-8.895,12.253-15.366,20.754-19.42c8.496-4.049,17.196-6.078,26.091-6.078
		c11.267,0,20.504,1.533,27.722,4.596c7.213,3.066,12.896,7.314,17.048,12.749c4.15,5.438,7.064,12.059,8.746,19.864
		c1.677,7.811,2.521,16.455,2.521,25.942V1075.393z M1701.03,1075.393h-46.548v-45.658h46.548V1075.393z"/>
	<path fill="#FFFFFF" d="M1062.115,949.684c-6.721,0-12.303,1.139-16.75,3.409c-4.447,2.274-8.006,5.091-10.674,8.45
		c-2.668,3.362-4.549,6.921-5.633,10.673c-1.089,3.757-1.732,7.116-1.928,10.081h68.488c-1.979-10.674-5.484-18.776-10.525-24.312
		C1080.053,952.453,1072.391,949.684,1062.115,949.684z"/>
	<path fill="#FFFFFF" d="M357.981,949.684c-6.722,0-12.304,1.139-16.751,3.409c-4.447,2.274-8.005,5.091-10.673,8.45
		c-2.668,3.362-4.549,6.921-5.633,10.673c-1.088,3.757-1.732,7.116-1.927,10.081h68.488c-1.979-10.674-5.485-18.776-10.525-24.312
		C375.918,952.453,368.256,949.684,357.981,949.684z"/>
</g>
</svg>
