<?xml version="1.0" encoding="utf-8"?>
<!-- Generator: Adobe Illustrator 21.1.0, SVG Export Plug-In . SVG Version: 6.00 Build 0)  -->
<svg version="1.1" id="Layer_1" xmlns="http://www.w3.org/2000/svg" xmlns:xlink="http://www.w3.org/1999/xlink" x="0px" y="0px"
	 width="2448px" height="1220px" viewBox="0 0 2448 1220" style="enable-background:new 0 0 2448 1220;" xml:space="preserve">
<style type="text/css">
	.st0{fill:none;}
	.st1{fill:#FFFFFF;}
</style>
<g id="eD2ji5_1_">
	
		<image style="overflow:visible;enable-background:new    ;" width="1802" height="1202" id="eD2ji5" xlink:href="117513400466E794.jpeg"  transform="matrix(1.3585 0 0 1.3577 0 -203.3955)">
	</image>
</g>
<g>
	<rect x="1155.6" y="338" class="st0" width="32.6" height="164.1"/>
	<path class="st0" d="M1236,673.3h-28.7c-1.1,3.7-4,7.2-8.7,10.5c-4.8,3.3-10.4,4.9-17,4.9c-9.2,0-16.2-2.4-21.1-7.1
		c-4.9-4.7-7.6-12.4-8-23h85.7c0.6-9.2-0.2-18-2.3-26.4c-2.1-8.4-5.6-15.9-10.5-22.5c-4.8-6.6-11-11.8-18.5-15.7
		c-7.5-3.9-16.3-5.9-26.4-5.9c-9,0-17.3,1.6-24.7,4.8c-7.4,3.2-13.8,7.6-19.2,13.2c-5.4,5.6-9.5,12.2-12.4,19.9
		c-2.9,7.7-4.4,15.9-4.4,24.8c0,9.2,1.4,17.6,4.3,25.3c2.8,7.7,6.9,14.2,12.1,19.8c5.2,5.5,11.6,9.8,19.1,12.8
		c7.5,3,15.9,4.5,25.3,4.5c13.5,0,25-3.1,34.5-9.2C1224.3,697.7,1231.4,687.5,1236,673.3z M1153.8,630.1c0.8-2.9,2.3-5.7,4.4-8.3
		c2.1-2.6,4.8-4.8,8.3-6.5c3.4-1.8,7.8-2.6,13-2.6c8,0,13.9,2.1,17.8,6.4c3.9,4.3,6.6,10.6,8.2,18.8h-53.1
		C1152.5,635.6,1153,633,1153.8,630.1z"/>
	<rect x="1054.9" y="338" class="st0" width="32.6" height="26.9"/>
	<rect x="1105.2" y="338" class="st0" width="32.6" height="164.1"/>
	<path class="st0" d="M1292.5,439.8c0-12.1,2-20.8,6-26.1c4-5.3,10.4-7.9,19.3-7.9c7.8,0,13.2,2.4,16.3,7.2
		c3.1,4.8,4.6,12.1,4.6,21.9V502h32.6V429c0-7.4-0.7-14.1-2-20.1c-1.3-6.1-3.6-11.2-6.8-15.4c-3.2-4.2-7.6-7.5-13.2-9.9
		c-5.6-2.4-12.8-3.6-21.5-3.6c-6.9,0-13.6,1.6-20.2,4.7c-6.6,3.1-12,8.2-16.1,15.1h-0.7v-16.5h-31h0V502h32.6V439.8z"/>
	<path class="st0" d="M1109.6,711c3.4-0.2,6.4-0.5,9.2-0.9v-25.3c-1.5,0.3-3.1,0.5-4.8,0.7c-1.7,0.2-3.4,0.2-5.3,0.2
		c-5.5,0-9.2-0.9-11-2.8c-1.8-1.8-2.8-5.5-2.8-11v-58.8h23.9v-21.8h-23.9v-35.6h-32.6v35.6h-19.8v21.8h19.8v70.1c0,6,1,10.8,3,14.5
		c2,3.7,4.7,6.5,8.2,8.5c3.4,2,7.4,3.3,11.9,4c4.5,0.7,9.3,1,14.4,1C1102.9,711.2,1106.2,711.1,1109.6,711z"/>
	<path class="st0" d="M1006.8,704.4c0.4,1.9,0.9,3.8,1.5,5.6v0h33.1c-1.5-2.4-2.6-6.1-3.2-11c-0.6-4.9-0.9-10-0.9-15.4v-61.8
		c0-7.2-1.6-13-4.8-17.3c-3.2-4.4-7.4-7.8-12.4-10.2c-5.1-2.4-10.7-4.1-16.8-4.9c-6.1-0.8-12.2-1.3-18.2-1.3c-6.6,0-13.1,0.7-19.6,2
		c-6.5,1.3-12.4,3.5-17.6,6.5c-5.2,3.1-9.5,7.1-12.9,12.2c-3.4,5.1-5.3,11.4-5.7,19.1h32.6c0.6-6.4,2.8-11,6.4-13.8
		s8.7-4.1,15.2-4.1c2.9,0,5.6,0.2,8.2,0.6c2.5,0.4,4.7,1.1,6.7,2.3c1.9,1.1,3.4,2.8,4.6,4.8s1.7,4.9,1.7,8.4c0.2,3.4-0.8,5.9-3,7.7
		c-2.1,1.8-5.1,3.1-8.7,4c-3.7,0.9-7.9,1.6-12.6,2.1c-4.8,0.5-9.6,1.1-14.5,1.8c-4.9,0.8-9.8,1.8-14.6,3.1
		c-4.8,1.3-9.1,3.3-12.9,5.9c-3.8,2.6-6.8,6.1-9.2,10.5c-2.4,4.4-3.6,9.9-3.6,16.7c0,6.1,1,11.4,3.1,15.9c2.1,4.4,4.9,8.1,8.6,11
		c3.7,2.9,8,5.1,12.9,6.4c4.9,1.4,10.2,2.1,15.9,2.1c7.4,0,14.6-1.1,21.6-3.2c7-2.1,13.2-5.9,18.4-11.3
		C1006.1,700.5,1006.4,702.5,1006.8,704.4z M1004.6,664.1c0,1.8-0.2,4.3-0.6,7.4c-0.4,3.1-1.4,6.1-3.1,9.1c-1.7,3-4.3,5.6-7.8,7.7
		c-3.5,2.1-8.5,3.2-14.9,3.2c-2.6,0-5.1-0.2-7.6-0.7c-2.5-0.5-4.6-1.3-6.4-2.4s-3.3-2.7-4.4-4.7c-1.1-2-1.6-4.4-1.6-7.4
		c0-3.1,0.5-5.6,1.6-7.6c1.1-2,2.5-3.6,4.3-4.9c1.8-1.3,3.8-2.3,6.2-3.1c2.4-0.8,4.8-1.4,7.2-1.8c2.6-0.5,5.2-0.8,7.8-1.1
		c2.6-0.3,5.1-0.7,7.5-1.1c2.4-0.5,4.6-1,6.7-1.7s3.8-1.6,5.2-2.9V664.1z"/>
	<path class="st0" d="M1400.3,488.1c5.4,5.4,11.8,9.6,19.3,12.5c7.5,2.9,15.9,4.4,25.3,4.4c9.3,0,17.8-1.5,25.4-4.4
		c7.6-2.9,14.1-7.1,19.4-12.5c5.4-5.4,9.5-12,12.4-19.6c2.9-7.7,4.4-16.2,4.4-25.7c0-9.5-1.5-18.1-4.4-25.9
		c-2.9-7.7-7-14.3-12.4-19.8c-5.4-5.4-11.8-9.7-19.4-12.6c-7.6-3-16-4.5-25.4-4.5c-9.3,0-17.8,1.5-25.3,4.5
		c-7.5,3-13.9,7.2-19.3,12.6c-5.4,5.4-9.5,12-12.4,19.8c-2.9,7.7-4.4,16.4-4.4,25.9c0,9.5,1.5,18.1,4.4,25.7
		C1390.8,476.2,1394.9,482.7,1400.3,488.1z M1417.5,428.7c0.9-4.6,2.5-8.7,4.7-12.2c2.2-3.5,5.2-6.4,8.8-8.6
		c3.7-2.2,8.3-3.3,13.8-3.3c5.5,0,10.1,1.1,13.9,3.3c3.8,2.2,6.7,5.1,9,8.6c2.2,3.5,3.8,7.6,4.7,12.2s1.4,9.3,1.4,14
		c0,4.8-0.5,9.4-1.4,13.9c-0.9,4.5-2.5,8.6-4.7,12.2c-2.2,3.6-5.2,6.5-9,8.6c-3.8,2.1-8.4,3.2-13.9,3.2c-5.5,0-10.1-1.1-13.8-3.2
		c-3.7-2.1-6.6-5-8.8-8.6c-2.2-3.6-3.8-7.7-4.7-12.2c-0.9-4.5-1.4-9.2-1.4-13.9C1416.2,438,1416.6,433.3,1417.5,428.7z"/>
	<path class="st0" d="M731.6,685.7c-5.5,0-9.2-0.9-11-2.8c-1.8-1.8-2.8-5.5-2.8-11v-58.8h23.9v-21.8h-23.9v-35.6h-32.6v35.6h-19.8
		v21.8h19.8v70.1c0,6,1,10.8,3,14.5c2,3.7,4.7,6.5,8.2,8.5c3.4,2,7.4,3.3,12,4c4.5,0.7,9.3,1,14.4,1c3.2,0,6.5-0.1,9.9-0.2
		c3.4-0.2,6.4-0.5,9.2-0.9v-25.3c-1.5,0.3-3.1,0.5-4.8,0.7C735.2,685.6,733.4,685.7,731.6,685.7z"/>
	<path class="st0" d="M808.6,465.3h-28.7c-1.1,3.7-4,7.2-8.7,10.5c-4.8,3.3-10.4,4.9-17,4.9c-9.2,0-16.2-2.4-21.1-7.1
		c-4.9-4.7-7.6-12.4-8-23h85.7c0.6-9.2-0.2-18-2.3-26.4c-2.1-8.4-5.6-15.9-10.5-22.5c-4.8-6.6-11-11.8-18.5-15.7
		c-7.5-3.9-16.3-5.9-26.4-5.9c-9,0-17.3,1.6-24.7,4.8c-7.4,3.2-13.8,7.6-19.2,13.2c-5.4,5.6-9.5,12.2-12.4,19.9
		c-2.9,7.7-4.4,15.9-4.4,24.8c0,9.2,1.4,17.6,4.3,25.3c2.8,7.7,6.9,14.2,12.1,19.8c5.2,5.5,11.6,9.8,19.1,12.8
		c7.5,3,15.9,4.5,25.3,4.5c13.5,0,25-3.1,34.5-9.2C796.9,489.7,804,479.5,808.6,465.3z M726.4,422.1c0.8-2.9,2.3-5.7,4.4-8.3
		c2.1-2.6,4.8-4.8,8.3-6.5c3.4-1.8,7.8-2.6,13-2.6c8,0,13.9,2.1,17.8,6.4c3.9,4.3,6.6,10.6,8.2,18.8h-53.1
		C725.1,427.6,725.6,425,726.4,422.1z"/>
	<path class="st0" d="M663.8,632.1c-2.1-8.4-5.6-15.9-10.5-22.5c-4.8-6.6-11-11.8-18.5-15.7c-7.5-3.9-16.3-5.9-26.4-5.9
		c-9,0-17.3,1.6-24.7,4.8c-7.4,3.2-13.8,7.6-19.2,13.2c-5.4,5.6-9.5,12.2-12.4,19.9c-2.9,7.7-4.4,15.9-4.4,24.8
		c0,9.2,1.4,17.6,4.3,25.3c2.8,7.7,6.9,14.2,12.1,19.8c5.2,5.5,11.6,9.8,19.1,12.8c7.5,3,15.9,4.5,25.3,4.5c13.5,0,25-3.1,34.5-9.2
		c9.5-6.1,16.5-16.3,21.1-30.6h-28.7c-1.1,3.7-4,7.2-8.7,10.5c-4.8,3.3-10.4,4.9-17,4.9c-9.2,0-16.2-2.4-21.1-7.1
		c-4.9-4.7-7.6-12.4-8-23h85.7C666.7,649.4,665.9,640.6,663.8,632.1z M580.4,637.9c0.2-2.3,0.7-4.9,1.5-7.8c0.8-2.9,2.3-5.7,4.4-8.3
		c2.1-2.6,4.8-4.8,8.3-6.5c3.4-1.8,7.8-2.6,13-2.6c8,0,13.9,2.1,17.8,6.4c3.9,4.3,6.6,10.6,8.2,18.8H580.4z"/>
	<rect x="1054.9" y="383.2" class="st0" width="32.6" height="118.8"/>
	<rect x="504.1" y="546" class="st0" width="32.6" height="164.1"/>
	<polygon class="st0" points="936.3,502 956.6,422.3 957,422.3 978.2,502 1011.7,502 1049.2,383.2 1015.6,383.2 993.8,463.7 
		993.3,463.7 973.1,383.2 941.4,383.2 921.6,463.9 921.2,463.9 899.3,383.2 864.9,383.2 902.6,502 	"/>
	<path class="st0" d="M803.3,546V710h32.6v-62.3c0-12.1,2-20.8,6-26.1c4-5.3,10.4-7.9,19.3-7.9c7.8,0,13.2,2.4,16.3,7.2
		c3.1,4.8,4.6,12.1,4.6,21.9V710h32.6V637c0-7.4-0.7-14.1-2-20.1c-1.3-6-3.6-11.2-6.8-15.4c-3.2-4.2-7.6-7.5-13.2-9.9
		c-5.6-2.4-12.8-3.6-21.5-3.6c-6.1,0-12.4,1.6-18.8,4.7c-6.4,3.1-11.7,8.2-15.9,15.1h-0.7V546H803.3z"/>
	<polygon class="st0" points="571.4,502 598.8,390.4 599.2,390.4 627,502 662.9,502 707,338 671.6,338 644.7,451 644.3,451 
		616.2,338 582.4,338 553.9,449.6 553.5,449.6 527.5,338 491.4,338 534.9,502 	"/>
	<rect x="1482.3" y="591.2" class="st0" width="32.6" height="118.8"/>
	<path class="st0" d="M1538.5,498.1c3.4,2,7.4,3.3,11.9,4c4.5,0.7,9.3,1,14.4,1c3.2,0,6.5-0.1,9.9-0.2c3.4-0.2,6.4-0.5,9.2-0.9
		v-25.3c-1.5,0.3-3.1,0.5-4.8,0.7c-1.7,0.2-3.4,0.2-5.3,0.2c-5.5,0-9.2-0.9-11-2.8c-1.8-1.8-2.8-5.5-2.8-11v-58.8h23.9v-21.8H1560
		v-35.6h-32.6v35.6h-19.8v21.8h19.8v70.1c0,6,1,10.8,3,14.5C1532.4,493.3,1535.1,496.1,1538.5,498.1z"/>
	<polygon class="st0" points="1421.2,671.7 1420.8,671.7 1400.5,591.2 1368.8,591.2 1349,671.9 1348.6,671.9 1326.8,591.2 
		1292.3,591.2 1330,710 1363.8,710 1384,630.3 1384.4,630.3 1405.6,710 1439.1,710 1476.6,591.2 1443,591.2 	"/>
	<path class="st0" d="M1641.2,616.9c-1.3-6-3.6-11.2-6.8-15.4c-3.2-4.2-7.6-7.5-13.2-9.9c-5.6-2.4-12.8-3.6-21.5-3.6
		c-6.9,0-13.6,1.6-20.2,4.7c-6.6,3.1-12,8.2-16.1,15.1h-0.7v-16.5h-31V710h32.6v-62.3c0-12.1,2-20.8,6-26.1c4-5.3,10.4-7.9,19.3-7.9
		c7.8,0,13.2,2.4,16.3,7.2c3.1,4.8,4.6,12.1,4.6,21.9V710h32.6V637C1643.2,629.6,1642.5,622.9,1641.2,616.9z"/>
	<rect x="1660.4" y="674.7" class="st0" width="36.1" height="35.4"/>
	<rect x="1482.3" y="546" class="st0" width="32.6" height="26.9"/>
	<path class="st1" d="M1422.2,468.8c2.2,3.6,5.2,6.5,8.8,8.6c3.7,2.1,8.3,3.2,13.8,3.2c5.5,0,10.1-1.1,13.9-3.2c3.8-2.1,6.7-5,9-8.6
		c2.2-3.6,3.8-7.7,4.7-12.2c0.9-4.5,1.4-9.2,1.4-13.9c0-4.7-0.5-9.4-1.4-14s-2.5-8.7-4.7-12.2c-2.2-3.5-5.2-6.4-9-8.6
		c-3.8-2.2-8.4-3.3-13.9-3.3c-5.5,0-10.1,1.1-13.8,3.3c-3.7,2.2-6.6,5.1-8.8,8.6c-2.2,3.5-3.8,7.6-4.7,12.2c-0.9,4.6-1.4,9.3-1.4,14
		c0,4.8,0.5,9.4,1.4,13.9C1418.5,461.2,1420,465.2,1422.2,468.8z"/>
	<path class="st1" d="M769.8,411c-3.9-4.3-9.8-6.4-17.8-6.4c-5.2,0-9.5,0.9-13,2.6c-3.4,1.8-6.2,3.9-8.3,6.5
		c-2.1,2.6-3.5,5.4-4.4,8.3c-0.8,2.9-1.3,5.5-1.5,7.8H778C776.5,421.6,773.7,415.3,769.8,411z"/>
	<path class="st1" d="M1197.3,619c-3.9-4.3-9.8-6.4-17.8-6.4c-5.2,0-9.5,0.9-13,2.6c-3.4,1.8-6.2,3.9-8.3,6.5
		c-2.1,2.6-3.5,5.4-4.4,8.3c-0.8,2.9-1.3,5.5-1.5,7.8h53.1C1203.9,629.6,1201.2,623.3,1197.3,619z"/>
	<path class="st1" d="M992.7,656.5c-2.4,0.5-4.9,0.8-7.5,1.1c-2.6,0.3-5.2,0.7-7.8,1.1c-2.5,0.5-4.9,1.1-7.2,1.8
		c-2.4,0.8-4.4,1.8-6.2,3.1c-1.8,1.3-3.2,3-4.3,4.9c-1.1,2-1.6,4.5-1.6,7.6c0,2.9,0.5,5.4,1.6,7.4c1.1,2,2.5,3.6,4.4,4.7
		s4,2,6.4,2.4c2.4,0.5,5,0.7,7.6,0.7c6.4,0,11.4-1.1,14.9-3.2c3.5-2.1,6.1-4.7,7.8-7.7c1.7-3,2.7-6,3.1-9.1c0.4-3.1,0.6-5.5,0.6-7.4
		v-12.2c-1.4,1.2-3.1,2.2-5.2,2.9S995.1,656,992.7,656.5z"/>
	<path class="st1" d="M607.5,612.6c-5.2,0-9.5,0.9-13,2.6c-3.4,1.8-6.2,3.9-8.3,6.5c-2.1,2.6-3.5,5.4-4.4,8.3
		c-0.8,2.9-1.3,5.5-1.5,7.8h53.1c-1.5-8.3-4.3-14.6-8.2-18.8C621.4,614.8,615.5,612.6,607.5,612.6z"/>
	<path class="st1" d="M813,857.7c-0.6,0-1.1,0.1-1.5,0.3c-0.4,0.2-0.7,0.5-1,0.8c-0.2,0.3-0.4,0.6-0.5,1c-0.1,0.3-0.2,0.7-0.2,0.9
		h6.3c-0.2-1-0.5-1.7-1-2.2C814.7,858,814,857.7,813,857.7z"/>
	<polygon class="st1" points="579.5,940.4 665.3,883.9 579.5,827.5 	"/>
	<path class="st1" d="M800.9,860.4c-0.1-0.5-0.3-1-0.5-1.4s-0.6-0.7-1-1c-0.4-0.2-1-0.4-1.6-0.4c-0.5,0-1,0.1-1.4,0.3
		c-0.4,0.2-0.7,0.5-1,0.9c-0.3,0.4-0.5,0.8-0.6,1.3c-0.1,0.5-0.2,1-0.2,1.5c0,0.5,0.1,1,0.2,1.5c0.1,0.5,0.3,1,0.5,1.4
		c0.2,0.4,0.6,0.7,1,1s0.9,0.4,1.5,0.4c0.5,0,1-0.1,1.5-0.3c0.4-0.2,0.8-0.5,1-0.9c0.3-0.4,0.5-0.8,0.6-1.2c0.1-0.5,0.2-1,0.2-1.5
		C801.1,861.5,801.1,861,800.9,860.4z"/>
	<path class="st1" d="M850.5,857.7c-0.6,0-1.1,0.1-1.5,0.3c-0.4,0.2-0.7,0.5-1,0.8c-0.2,0.3-0.4,0.6-0.5,1c-0.1,0.3-0.2,0.7-0.2,0.9
		h6.3c-0.2-1-0.5-1.7-1-2.2C852.2,858,851.5,857.7,850.5,857.7z"/>
	<path class="st1" d="M1292.6,897.9c-0.9,0-1.7,0.2-2.3,0.5c-0.6,0.3-1.1,0.7-1.5,1.2c-0.4,0.5-0.6,1-0.8,1.5
		c-0.2,0.5-0.2,1-0.3,1.4h9.5c-0.3-1.5-0.8-2.6-1.5-3.4C1295.1,898.3,1294,897.9,1292.6,897.9z"/>
	<path class="st1" d="M903.4,857.7c-0.6,0-1.1,0.1-1.5,0.3c-0.4,0.2-0.7,0.5-1,0.8c-0.2,0.3-0.4,0.6-0.5,1c-0.1,0.3-0.2,0.7-0.2,0.9
		h6.3c-0.2-1-0.5-1.7-1-2.2C905,858,904.3,857.7,903.4,857.7z"/>
	<path class="st1" d="M935.2,893.8c-0.6-0.9-1.5-1.7-2.5-2.3c-1-0.6-2.2-0.8-3.7-0.8c-1.5,0-2.7,0.3-3.7,0.8c-1,0.6-1.8,1.3-2.5,2.3
		c-0.6,0.9-1.1,2-1.4,3.2c-0.3,1.2-0.4,2.5-0.4,3.7c0,1.2,0.1,2.4,0.4,3.6c0.3,1.2,0.7,2.2,1.4,3.1c0.6,0.9,1.5,1.7,2.5,2.2
		c1,0.6,2.2,0.8,3.7,0.8c1.5,0,2.7-0.3,3.7-0.8c1-0.6,1.8-1.3,2.5-2.2c0.6-0.9,1.1-2,1.4-3.1c0.3-1.2,0.4-2.4,0.4-3.6
		c0-1.3-0.1-2.5-0.4-3.7C936.3,895.9,935.8,894.8,935.2,893.8z"/>
	<path class="st1" d="M1162.2,897.9c-0.9,0-1.7,0.2-2.3,0.5c-0.6,0.3-1.1,0.7-1.5,1.2c-0.4,0.5-0.6,1-0.8,1.5
		c-0.2,0.5-0.2,1-0.3,1.4h9.5c-0.3-1.5-0.8-2.6-1.5-3.4C1164.7,898.3,1163.7,897.9,1162.2,897.9z"/>
	<path class="st1" d="M853.9,897.9c-0.9,0-1.7,0.2-2.3,0.5c-0.6,0.3-1.1,0.7-1.5,1.2c-0.4,0.5-0.6,1-0.8,1.5c-0.2,0.5-0.2,1-0.3,1.4
		h9.5c-0.3-1.5-0.8-2.6-1.5-3.4C856.4,898.3,855.4,897.9,853.9,897.9z"/>
	<path class="st1" d="M0-149v1372.8h2448V-149H0z M1387.9,416.9c2.9-7.7,7-14.3,12.4-19.8c5.4-5.4,11.8-9.7,19.3-12.6
		c7.5-3,15.9-4.5,25.3-4.5c9.3,0,17.8,1.5,25.4,4.5c7.6,3,14.1,7.2,19.4,12.6c5.4,5.4,9.5,12,12.4,19.8c2.9,7.7,4.4,16.4,4.4,25.9
		c0,9.5-1.5,18.1-4.4,25.7c-2.9,7.7-7,14.2-12.4,19.6c-5.4,5.4-11.8,9.6-19.4,12.5c-7.6,2.9-16.1,4.4-25.4,4.4
		c-9.3,0-17.8-1.5-25.3-4.4c-7.5-2.9-13.9-7.1-19.3-12.5c-5.4-5.4-9.5-12-12.4-19.6c-2.9-7.7-4.4-16.2-4.4-25.7
		C1383.5,433.3,1385,424.6,1387.9,416.9z M1259.9,383.2L1259.9,383.2h31v16.5h0.7c4.1-6.9,9.5-11.9,16.1-15.1
		c6.6-3.1,13.3-4.7,20.2-4.7c8.7,0,15.9,1.2,21.5,3.6c5.6,2.4,10,5.7,13.2,9.9c3.2,4.2,5.5,9.3,6.8,15.4c1.3,6.1,2,12.8,2,20.1V502
		h-32.6v-67.1c0-9.8-1.5-17.1-4.6-21.9c-3.1-4.8-8.5-7.2-16.3-7.2c-8.9,0-15.3,2.6-19.3,7.9c-4,5.3-6,14-6,26.1V502h-32.6V383.2z
		 M1155.6,338h32.6V502h-32.6V338z M1105.2,338h32.6V502h-32.6V338z M1054.9,338h32.6v26.9h-32.6V338z M1054.9,383.2h32.6V502h-32.6
		V383.2z M899.3,383.2l21.8,80.7h0.5l19.8-80.7h31.7l20.2,80.4h0.5l21.8-80.4h33.6L1011.7,502h-33.6L957,422.3h-0.5L936.3,502h-33.8
		l-37.7-118.8H899.3z M921.7,862c0.2,0.8,0.5,1.5,0.9,2.1c0.4,0.6,1,1.1,1.6,1.5c0.7,0.4,1.5,0.6,2.5,0.6c1.3,0,2.3-0.4,3.1-1.2
		c0.7-0.8,1.2-1.9,1.4-3.2h4.2c-0.1,1.2-0.4,2.3-0.8,3.3c-0.5,1-1.1,1.8-1.8,2.5c-0.7,0.7-1.6,1.2-2.6,1.6s-2.1,0.5-3.3,0.5
		c-1.5,0-2.8-0.3-4-0.8s-2.2-1.2-3-2.2s-1.5-2-1.9-3.2s-0.7-2.6-0.7-4c0-1.5,0.2-2.8,0.7-4.1c0.4-1.3,1.1-2.3,1.9-3.3
		c0.8-0.9,1.8-1.7,3-2.2s2.5-0.8,4-0.8c1.1,0,2.1,0.2,3.1,0.5c1,0.3,1.8,0.8,2.6,1.4c0.8,0.6,1.4,1.3,1.9,2.2c0.5,0.9,0.8,1.9,0.9,3
		H931c-0.1-0.5-0.2-0.9-0.5-1.4c-0.3-0.4-0.6-0.8-1-1.1c-0.4-0.3-0.8-0.6-1.3-0.7c-0.5-0.2-1-0.3-1.5-0.3c-1,0-1.8,0.2-2.5,0.6
		c-0.7,0.4-1.2,0.9-1.6,1.5c-0.4,0.6-0.7,1.3-0.9,2.2c-0.2,0.8-0.3,1.6-0.3,2.5C921.4,860.5,921.5,861.3,921.7,862z M836.6,607.8
		c4.1-6.9,9.4-11.9,15.9-15.1c6.4-3.1,12.7-4.7,18.8-4.7c8.7,0,15.9,1.2,21.5,3.6c5.6,2.4,10,5.7,13.2,9.9c3.2,4.2,5.5,9.3,6.8,15.4
		c1.3,6.1,2,12.8,2,20.1V710h-32.6v-67.1c0-9.8-1.5-17.1-4.6-21.9c-3.1-4.8-8.5-7.2-16.3-7.2c-8.9,0-15.3,2.6-19.3,7.9
		c-4,5.3-6,14-6,26.1V710h-32.6V546h32.6v61.8H836.6z M898.3,849.8l-5.3,19.6h-4.3l-3.3-13.3h-0.1l-3.3,13.3h-4.4l-5.2-19.6h4.3
		l3.1,13.3h0.1l3.4-13.3h4l3.3,13.5h0.1l3.2-13.5H898.3z M862.2,857.8c0.2-0.4,0.4-0.8,0.7-1.2c0.3-0.4,0.7-0.7,1.1-1
		c0.4-0.3,0.8-0.5,1.3-0.6c0.5-0.1,0.9-0.2,1.4-0.2c0.3,0,0.5,0,0.8,0.1v3.6c-0.2,0-0.4-0.1-0.7-0.1c-0.3,0-0.5,0-0.7,0
		c-0.7,0-1.3,0.1-1.8,0.4c-0.5,0.2-0.9,0.6-1.2,1c-0.3,0.4-0.5,0.9-0.6,1.4s-0.2,1.1-0.2,1.8v6.4h-3.9v-14.2h3.7L862.2,857.8
		L862.2,857.8z M848.3,866c0.6,0.6,1.4,0.8,2.5,0.8c0.8,0,1.5-0.2,2-0.6c0.6-0.4,0.9-0.8,1-1.2h3.4c-0.5,1.7-1.4,2.9-2.5,3.6
		c-1.1,0.7-2.5,1.1-4.1,1.1c-1.1,0-2.1-0.2-3-0.5c-0.9-0.4-1.7-0.9-2.3-1.5c-0.6-0.7-1.1-1.4-1.4-2.4c-0.3-0.9-0.5-1.9-0.5-3
		c0-1.1,0.2-2,0.5-3c0.3-0.9,0.8-1.7,1.5-2.4c0.6-0.7,1.4-1.2,2.3-1.6c0.9-0.4,1.9-0.6,2.9-0.6c1.2,0,2.3,0.2,3.2,0.7
		c0.9,0.5,1.6,1.1,2.2,1.9c0.6,0.8,1,1.7,1.2,2.7c0.3,1,0.3,2.1,0.3,3.2h-10.2C847.4,864.5,847.7,865.4,848.3,866z M826.2,866.1
		c0.2,0.2,0.7,0.3,1.3,0.3c0.2,0,0.4,0,0.6,0c0.2,0,0.4,0,0.6-0.1v3c-0.3,0.1-0.7,0.1-1.1,0.1c-0.4,0-0.8,0-1.2,0
		c-0.6,0-1.2,0-1.7-0.1c-0.5-0.1-1-0.2-1.4-0.5s-0.7-0.6-1-1c-0.2-0.4-0.4-1-0.4-1.7v-8.4h-2.4v-2.6h2.4v-4.2h3.9v4.2h2.9v2.6h-2.9
		v7C825.9,865.5,826,865.9,826.2,866.1z M810.7,866c0.6,0.6,1.4,0.8,2.5,0.8c0.8,0,1.5-0.2,2-0.6c0.6-0.4,0.9-0.8,1-1.2h3.4
		c-0.5,1.7-1.4,2.9-2.5,3.6c-1.1,0.7-2.5,1.1-4.1,1.1c-1.1,0-2.1-0.2-3-0.5c-0.9-0.4-1.7-0.9-2.3-1.5c-0.6-0.7-1.1-1.4-1.4-2.4
		c-0.3-0.9-0.5-1.9-0.5-3c0-1.1,0.2-2,0.5-3c0.3-0.9,0.8-1.7,1.5-2.4c0.6-0.7,1.4-1.2,2.3-1.6c0.9-0.4,1.9-0.6,2.9-0.6
		c1.2,0,2.3,0.2,3.2,0.7c0.9,0.5,1.6,1.1,2.2,1.9c0.6,0.8,1,1.7,1.2,2.7c0.3,1,0.3,2.1,0.3,3.2h-10.2
		C809.8,864.5,810.1,865.4,810.7,866z M801.1,866.8c-0.4,0.7-1,1.3-1.8,1.7c-0.8,0.4-1.6,0.5-2.5,0.5c-1.1,0-2-0.2-2.7-0.6
		c-0.8-0.4-1.4-0.9-1.9-1.5s-0.9-1.4-1.1-2.3c-0.2-0.9-0.3-1.8-0.3-2.8c0-0.9,0.1-1.8,0.4-2.6c0.3-0.8,0.7-1.6,1.2-2.2
		c0.5-0.6,1.1-1.2,1.9-1.5s1.6-0.6,2.6-0.6c0.9,0,1.7,0.2,2.5,0.5c0.7,0.3,1.3,0.9,1.8,1.8h0.1v-1.9h3.7v13.3c0,0.6-0.1,1.2-0.2,1.9
		c-0.2,0.7-0.5,1.4-1,2c-0.5,0.6-1.3,1.2-2.2,1.6c-1,0.4-2.3,0.7-3.9,0.7c-0.7,0-1.4-0.1-2.1-0.3c-0.7-0.2-1.4-0.4-2-0.8
		c-0.6-0.4-1.1-0.8-1.5-1.4c-0.4-0.6-0.6-1.3-0.7-2.1h3.9c0.2,0.7,0.5,1.2,1.1,1.5c0.5,0.3,1.1,0.4,1.8,0.4c1.1,0,1.9-0.3,2.4-1
		c0.5-0.7,0.7-1.5,0.7-2.5L801.1,866.8L801.1,866.8z M527.5,338l26,111.7h0.5L582.4,338h33.8l28,113.1h0.5L671.6,338H707L662.9,502
		H627l-27.8-111.7h-0.5L571.4,502h-36.5L491.4,338H527.5z M588.4,681.5c4.9,4.8,12,7.1,21.1,7.1c6.6,0,12.3-1.6,17-4.9
		c4.7-3.3,7.7-6.8,8.7-10.5H664c-4.6,14.2-11.6,24.4-21.1,30.6c-9.5,6.1-21,9.2-34.5,9.2c-9.3,0-17.8-1.5-25.3-4.5
		c-7.5-3-13.9-7.2-19.1-12.8c-5.2-5.5-9.2-12.1-12.1-19.8c-2.8-7.7-4.3-16.1-4.3-25.3c0-8.9,1.5-17.2,4.4-24.8
		c2.9-7.7,7-14.3,12.4-19.9c5.4-5.6,11.8-10,19.2-13.2c7.4-3.2,15.7-4.8,24.7-4.8c10.1,0,18.9,2,26.4,5.9
		c7.5,3.9,13.7,9.2,18.5,15.7c4.8,6.6,8.3,14.1,10.5,22.5c2.1,8.4,2.9,17.2,2.3,26.4h-85.7C580.8,669.1,583.5,676.8,588.4,681.5z
		 M536.7,546V710h-32.6V546H536.7z M606.9,996.8c-62.4,0-112.9-50.5-112.9-112.9S544.5,771,606.9,771s112.9,50.5,112.9,112.9
		S669.3,996.8,606.9,996.8z M741.7,710c-2.8,0.5-5.8,0.8-9.2,0.9c-3.4,0.2-6.7,0.2-9.9,0.2c-5.1,0-9.8-0.3-14.4-1
		c-4.5-0.7-8.5-2-12-4c-3.4-2-6.2-4.8-8.2-8.5c-2-3.7-3-8.5-3-14.5v-70.1h-19.8v-21.8h19.8v-35.6h32.6v35.6h23.9v21.8h-23.9v58.8
		c0,5.5,0.9,9.2,2.8,11c1.8,1.8,5.5,2.8,11,2.8c1.8,0,3.6-0.1,5.3-0.2c1.7-0.2,3.3-0.4,4.8-0.7V710z M727.7,500.5
		c-7.5-3-13.9-7.2-19.1-12.8c-5.2-5.5-9.2-12.1-12.1-19.8c-2.8-7.7-4.3-16.1-4.3-25.3c0-8.9,1.5-17.2,4.4-24.8
		c2.9-7.7,7-14.3,12.4-19.9c5.4-5.6,11.8-10,19.2-13.2c7.4-3.2,15.7-4.8,24.7-4.8c10.1,0,18.9,2,26.4,5.9
		c7.5,3.9,13.7,9.2,18.5,15.7c4.8,6.6,8.3,14.1,10.5,22.5c2.1,8.4,2.9,17.2,2.3,26.4h-85.7c0.5,10.6,3.1,18.2,8,23
		c4.9,4.8,12,7.1,21.1,7.1c6.6,0,12.3-1.6,17-4.9c4.7-3.3,7.7-6.8,8.7-10.5h28.7c-4.6,14.2-11.6,24.4-21.1,30.6
		c-9.5,6.1-21,9.2-34.5,9.2C743.6,505,735.2,503.5,727.7,500.5z M762.4,853.4v-3.6h16v3.6h-5.9v16h-4.3v-16H762.4z M775.9,859.2
		c0.3-0.9,0.8-1.7,1.5-2.4c0.6-0.6,1.4-1.2,2.3-1.5c0.9-0.4,1.9-0.5,3-0.5c1.1,0,2.1,0.2,3,0.5c0.9,0.4,1.7,0.9,2.3,1.5
		c0.6,0.6,1.1,1.4,1.5,2.4c0.3,0.9,0.5,2,0.5,3.1s-0.2,2.2-0.5,3.1c-0.3,0.9-0.8,1.7-1.5,2.3s-1.4,1.1-2.3,1.5
		c-0.9,0.3-1.9,0.5-3,0.5c-1.1,0-2.1-0.2-3-0.5c-0.9-0.3-1.7-0.8-2.3-1.5c-0.6-0.6-1.1-1.4-1.5-2.3c-0.3-0.9-0.5-1.9-0.5-3.1
		S775.5,860.1,775.9,859.2z M792.8,915.4h-6.4l-5-20h-0.1l-4.9,20h-6.5l-7.8-29.4h6.5l4.6,20h0.1l5.1-20h6l5,20.2h0.1l4.8-20.2h6.3
		L792.8,915.4z M807,915.4h-5.8v-21.3h5.8V915.4z M807,890.8h-5.8V886h5.8V890.8z M821.2,898h-4.3v10.5c0,1,0.2,1.6,0.5,2
		c0.3,0.3,1,0.5,2,0.5c0.3,0,0.6,0,0.9,0c0.3,0,0.6-0.1,0.9-0.1v4.5c-0.5,0.1-1,0.1-1.6,0.2c-0.6,0-1.2,0-1.8,0
		c-0.9,0-1.8-0.1-2.6-0.2c-0.8-0.1-1.5-0.4-2.1-0.7c-0.6-0.4-1.1-0.9-1.5-1.5c-0.4-0.7-0.5-1.5-0.5-2.6V898h-3.5v-3.9h3.5v-6.4h5.8
		v6.4h4.3V898z M841.9,915.4H836v-12c0-1.8-0.3-3.1-0.8-3.9c-0.5-0.9-1.5-1.3-2.9-1.3c-1.6,0-2.7,0.5-3.5,1.4
		c-0.7,0.9-1.1,2.5-1.1,4.7v11.1h-5.8v-21.3h5.6v3h0.1c0.7-1.2,1.7-2.1,2.9-2.7c1.2-0.6,2.4-0.8,3.6-0.8c1.6,0,2.8,0.2,3.8,0.6
		c1,0.4,1.8,1,2.4,1.8c0.6,0.8,1,1.7,1.2,2.8c0.2,1.1,0.3,2.3,0.3,3.6V915.4z M842.5,869.4h-3.9v-8c0-1.2-0.2-2-0.5-2.6
		c-0.4-0.6-1-0.9-1.9-0.9c-1.1,0-1.8,0.3-2.3,0.9c-0.5,0.6-0.7,1.7-0.7,3.1v7.4h-3.9v-19.6h3.9v7.4h0.1c0.5-0.8,1.1-1.4,1.9-1.8
		c0.8-0.4,1.5-0.6,2.2-0.6c1,0,1.9,0.1,2.6,0.4c0.7,0.3,1.2,0.7,1.6,1.2c0.4,0.5,0.7,1.1,0.8,1.8s0.2,1.5,0.2,2.4V869.4z
		 M864.4,906.1h-15.3c0.1,1.9,0.6,3.3,1.4,4.1c0.9,0.8,2.1,1.3,3.8,1.3c1.2,0,2.2-0.3,3-0.9c0.8-0.6,1.4-1.2,1.6-1.9h5.1
		c-0.8,2.5-2.1,4.4-3.8,5.5c-1.7,1.1-3.8,1.6-6.2,1.6c-1.7,0-3.2-0.3-4.5-0.8c-1.3-0.5-2.5-1.3-3.4-2.3c-0.9-1-1.7-2.2-2.2-3.5
		c-0.5-1.4-0.8-2.9-0.8-4.5c0-1.6,0.3-3.1,0.8-4.4c0.5-1.4,1.3-2.6,2.2-3.6c1-1,2.1-1.8,3.4-2.4c1.3-0.6,2.8-0.9,4.4-0.9
		c1.8,0,3.4,0.3,4.7,1c1.3,0.7,2.4,1.6,3.3,2.8c0.9,1.2,1.5,2.5,1.9,4C864.4,902.9,864.5,904.5,864.4,906.1z M883.6,912
		c-0.6,0.9-1.3,1.7-2.2,2.3c-0.9,0.6-1.9,1-3.1,1.2c-1.2,0.2-2.4,0.3-3.6,0.3c-1.2,0-2.4-0.1-3.6-0.4c-1.2-0.2-2.2-0.7-3.1-1.2
		c-0.9-0.6-1.7-1.3-2.3-2.3c-0.6-0.9-0.9-2.1-1-3.6h5.6c0,0.6,0.1,1.2,0.4,1.6c0.3,0.5,0.6,0.8,1,1.1c0.4,0.3,0.9,0.5,1.4,0.6
		c0.5,0.1,1.1,0.2,1.7,0.2c0.4,0,0.8,0,1.3-0.1c0.5-0.1,0.9-0.2,1.2-0.5c0.4-0.2,0.7-0.5,0.9-0.8c0.2-0.3,0.4-0.8,0.4-1.3
		c0-0.9-0.6-1.5-1.7-2c-1.2-0.4-2.8-0.9-4.9-1.3c-0.8-0.2-1.7-0.4-2.5-0.7c-0.8-0.3-1.5-0.6-2.2-1c-0.6-0.4-1.1-1-1.5-1.6
		c-0.4-0.6-0.6-1.4-0.6-2.4c0-1.4,0.3-2.5,0.8-3.4c0.5-0.9,1.2-1.6,2.1-2.1c0.9-0.5,1.9-0.9,3-1.1c1.1-0.2,2.2-0.3,3.4-0.3
		c1.2,0,2.3,0.1,3.4,0.3c1.1,0.2,2,0.6,2.9,1.1c0.8,0.5,1.6,1.2,2.1,2.1c0.6,0.9,0.9,2,1,3.3h-5.6c-0.1-1.1-0.5-1.9-1.3-2.3
		c-0.8-0.4-1.7-0.6-2.7-0.6c-0.3,0-0.7,0-1.1,0.1s-0.7,0.1-1,0.3c-0.3,0.1-0.6,0.3-0.8,0.6c-0.2,0.3-0.3,0.6-0.3,1
		c0,0.5,0.2,0.9,0.6,1.3c0.4,0.3,0.9,0.6,1.5,0.8c0.6,0.2,1.3,0.4,2.1,0.6c0.8,0.2,1.6,0.3,2.4,0.5c0.8,0.2,1.7,0.4,2.5,0.7
		c0.8,0.3,1.5,0.6,2.2,1.1c0.6,0.5,1.1,1,1.5,1.7c0.4,0.7,0.6,1.5,0.6,2.5C884.5,909.9,884.2,911.1,883.6,912z M903.7,912
		c-0.6,0.9-1.3,1.7-2.2,2.3c-0.9,0.6-1.9,1-3.1,1.2c-1.2,0.2-2.4,0.3-3.6,0.3c-1.2,0-2.4-0.1-3.6-0.4c-1.2-0.2-2.2-0.7-3.1-1.2
		c-0.9-0.6-1.7-1.3-2.3-2.3c-0.6-0.9-0.9-2.1-1-3.6h5.6c0,0.6,0.1,1.2,0.4,1.6c0.3,0.5,0.6,0.8,1,1.1c0.4,0.3,0.9,0.5,1.4,0.6
		c0.5,0.1,1.1,0.2,1.7,0.2c0.4,0,0.8,0,1.3-0.1c0.5-0.1,0.9-0.2,1.2-0.5c0.4-0.2,0.7-0.5,0.9-0.8c0.2-0.3,0.4-0.8,0.4-1.3
		c0-0.9-0.6-1.5-1.7-2c-1.2-0.4-2.8-0.9-4.9-1.3c-0.8-0.2-1.7-0.4-2.5-0.7c-0.8-0.3-1.5-0.6-2.2-1c-0.6-0.4-1.1-1-1.5-1.6
		c-0.4-0.6-0.6-1.4-0.6-2.4c0-1.4,0.3-2.5,0.8-3.4c0.5-0.9,1.2-1.6,2.1-2.1c0.9-0.5,1.9-0.9,3-1.1c1.1-0.2,2.2-0.3,3.4-0.3
		c1.2,0,2.3,0.1,3.4,0.3c1.1,0.2,2,0.6,2.9,1.1c0.8,0.5,1.6,1.2,2.1,2.1c0.6,0.9,0.9,2,1,3.3h-5.6c-0.1-1.1-0.5-1.9-1.3-2.3
		c-0.8-0.4-1.7-0.6-2.7-0.6c-0.3,0-0.7,0-1.1,0.1s-0.7,0.1-1,0.3c-0.3,0.1-0.6,0.3-0.8,0.6c-0.2,0.3-0.3,0.6-0.3,1
		c0,0.5,0.2,0.9,0.6,1.3c0.4,0.3,0.9,0.6,1.5,0.8c0.6,0.2,1.3,0.4,2.1,0.6c0.8,0.2,1.6,0.3,2.4,0.5c0.8,0.2,1.7,0.4,2.5,0.7
		c0.8,0.3,1.5,0.6,2.2,1.1c0.6,0.5,1.1,1,1.5,1.7c0.4,0.7,0.6,1.5,0.6,2.5C904.5,909.9,904.2,911.1,903.7,912z M910.4,863.2h-10.2
		c0.1,1.3,0.4,2.2,1,2.7c0.6,0.6,1.4,0.8,2.5,0.8c0.8,0,1.5-0.2,2-0.6c0.6-0.4,0.9-0.8,1-1.2h3.4c-0.5,1.7-1.4,2.9-2.5,3.6
		c-1.1,0.7-2.5,1.1-4.1,1.1c-1.1,0-2.1-0.2-3-0.5c-0.9-0.4-1.7-0.9-2.3-1.5c-0.6-0.7-1.1-1.4-1.4-2.4c-0.3-0.9-0.5-1.9-0.5-3
		c0-1.1,0.2-2,0.5-3c0.3-0.9,0.8-1.7,1.5-2.4c0.6-0.7,1.4-1.2,2.3-1.6c0.9-0.4,1.9-0.6,2.9-0.6c1.2,0,2.3,0.2,3.2,0.7
		c0.9,0.5,1.6,1.1,2.2,1.9c0.6,0.8,1,1.7,1.2,2.7C910.3,861.1,910.4,862.1,910.4,863.2z M942.4,906.8c-0.7,1.9-1.6,3.5-2.8,4.8
		c-1.2,1.4-2.7,2.4-4.5,3.2c-1.8,0.8-3.8,1.2-6.1,1.2c-2.2,0-4.3-0.4-6.1-1.2c-1.8-0.8-3.3-1.9-4.5-3.2c-1.2-1.4-2.2-3-2.8-4.8
		c-0.7-1.8-1-3.8-1-6c0-2.2,0.3-4.2,1-6.1c0.7-1.9,1.6-3.5,2.8-4.9c1.2-1.4,2.7-2.5,4.5-3.3c1.8-0.8,3.8-1.2,6.1-1.2
		c2.3,0,4.3,0.4,6.1,1.2c1.8,0.8,3.3,1.9,4.5,3.3c1.2,1.4,2.2,3,2.8,4.9c0.7,1.9,1,3.9,1,6.1C943.4,902.9,943.1,904.9,942.4,906.8z
		 M945.1,858.3c-0.1-0.2-0.3-0.4-0.5-0.6c-0.2-0.1-0.5-0.2-0.8-0.3c-0.3,0-0.6-0.1-1-0.1c-0.8,0-1.4,0.2-1.8,0.5s-0.7,0.9-0.8,1.6
		h-3.9c0.1-0.9,0.3-1.7,0.7-2.3c0.4-0.6,0.9-1.1,1.5-1.5s1.3-0.6,2.1-0.8c0.8-0.2,1.6-0.2,2.3-0.2c0.7,0,1.4,0.1,2.2,0.2
		c0.7,0.1,1.4,0.3,2,0.6c0.6,0.3,1.1,0.7,1.5,1.2s0.6,1.2,0.6,2.1v7.4c0,0.6,0,1.3,0.1,1.8c0.1,0.6,0.2,1,0.4,1.3h-3.9
		c-0.1-0.2-0.1-0.4-0.2-0.7c0-0.2-0.1-0.5-0.1-0.7c-0.6,0.6-1.4,1.1-2.2,1.3c-0.8,0.3-1.7,0.4-2.6,0.4c-0.7,0-1.3-0.1-1.9-0.2
		c-0.6-0.2-1.1-0.4-1.5-0.8c-0.4-0.3-0.8-0.8-1-1.3c-0.2-0.5-0.4-1.2-0.4-1.9c0-0.8,0.1-1.5,0.4-2c0.3-0.5,0.6-0.9,1.1-1.2
		c0.4-0.3,1-0.5,1.5-0.7s1.2-0.3,1.7-0.4c0.6-0.1,1.2-0.2,1.7-0.2c0.6-0.1,1.1-0.1,1.5-0.2c0.4-0.1,0.8-0.3,1-0.5
		c0.3-0.2,0.4-0.5,0.4-0.9C945.3,858.9,945.2,858.6,945.1,858.3z M965.1,915.4h-5.6v-3h-0.1c-0.7,1.2-1.7,2.1-2.9,2.7
		c-1.2,0.5-2.4,0.8-3.6,0.8c-1.6,0-2.8-0.2-3.8-0.6c-1-0.4-1.8-1-2.4-1.7c-0.6-0.8-1-1.7-1.2-2.8c-0.2-1.1-0.3-2.3-0.3-3.6v-13.1
		h5.8v12c0,1.8,0.3,3.1,0.8,3.9s1.5,1.3,2.9,1.3c1.6,0,2.7-0.5,3.5-1.4c0.7-0.9,1.1-2.5,1.1-4.7v-11.1h5.8V915.4z M954.6,857.2
		c0.5-0.8,1.1-1.4,1.9-1.8c0.8-0.4,1.6-0.6,2.4-0.6c1,0,1.9,0.1,2.6,0.4c0.7,0.3,1.2,0.7,1.6,1.2c0.4,0.5,0.7,1.1,0.8,1.8
		s0.2,1.5,0.2,2.4v8.7h-3.9v-8c0-1.2-0.2-2-0.5-2.6c-0.4-0.6-1-0.9-1.9-0.9c-1.1,0-1.8,0.3-2.3,0.9c-0.5,0.6-0.7,1.7-0.7,3.1v7.4
		h-3.9v-14.2h3.7L954.6,857.2L954.6,857.2z M981.2,899.2c-0.3-0.1-0.6-0.1-1-0.1c-0.4,0-0.8-0.1-1.1-0.1c-1.1,0-2,0.2-2.7,0.5
		c-0.7,0.4-1.3,0.8-1.8,1.5c-0.5,0.6-0.8,1.3-1,2.2c-0.2,0.8-0.3,1.7-0.3,2.7v9.6h-5.8v-21.3h5.6v3.9h0.1c0.3-0.7,0.6-1.3,1.1-1.8
		c0.5-0.6,1-1,1.6-1.4c0.6-0.4,1.2-0.7,1.9-0.9c0.7-0.2,1.4-0.3,2.1-0.3c0.4,0,0.8,0.1,1.3,0.2V899.2z M966,713
		c-5.7,0-11-0.7-15.9-2.1c-4.9-1.4-9.2-3.5-12.9-6.4c-3.7-2.9-6.5-6.6-8.6-11c-2.1-4.4-3.1-9.7-3.1-15.9c0-6.7,1.2-12.3,3.6-16.7
		c2.4-4.4,5.4-7.8,9.2-10.5c3.8-2.6,8-4.6,12.9-5.9c4.8-1.3,9.7-2.3,14.6-3.1c4.9-0.8,9.7-1.4,14.5-1.8c4.7-0.5,9-1.1,12.6-2.1
		c3.7-0.9,6.6-2.3,8.7-4c2.1-1.8,3.1-4.3,3-7.7c0-3.5-0.6-6.3-1.7-8.4s-2.7-3.7-4.6-4.8c-1.9-1.1-4.1-1.9-6.7-2.3
		c-2.5-0.4-5.2-0.6-8.2-0.6c-6.4,0-11.5,1.4-15.2,4.1s-5.8,7.4-6.4,13.8h-32.6c0.5-7.7,2.4-14,5.7-19.1c3.4-5.1,7.7-9.1,12.9-12.2
		c5.2-3.1,11.1-5.2,17.6-6.5c6.5-1.3,13.1-2,19.6-2c6,0,12,0.4,18.2,1.3c6.1,0.8,11.7,2.5,16.8,4.9c5.1,2.5,9.2,5.9,12.4,10.2
		c3.2,4.4,4.8,10.2,4.8,17.3v61.8c0,5.4,0.3,10.5,0.9,15.4c0.6,4.9,1.7,8.6,3.2,11h-33.1v0c-0.6-1.8-1.1-3.7-1.5-5.6
		c-0.4-1.9-0.7-3.9-0.8-5.9c-5.2,5.4-11.3,9.1-18.4,11.3C980.5,712,973.3,713,966,713z M1013.5,910.4c-0.5,1.2-1.3,2.1-2.3,3
		c-1,0.8-2.3,1.5-3.8,2c-1.5,0.5-3.3,0.7-5.3,0.7c-1.6,0-3.2-0.2-4.7-0.6c-1.5-0.4-2.9-1-4-1.9c-1.2-0.8-2.1-1.9-2.8-3.2
		c-0.7-1.3-1-2.9-1-4.7h6.2c0,1,0.2,1.8,0.5,2.5c0.4,0.7,0.8,1.2,1.4,1.7c0.6,0.4,1.3,0.7,2.1,0.9c0.8,0.2,1.6,0.3,2.5,0.3
		c0.6,0,1.2,0,1.9-0.1c0.7-0.1,1.3-0.3,1.9-0.6s1.1-0.7,1.4-1.1s0.6-1.1,0.6-1.8c0-0.8-0.3-1.4-0.8-1.9c-0.5-0.5-1.2-0.9-2-1.2
		s-1.8-0.6-2.8-0.9c-1-0.2-2.1-0.5-3.2-0.8c-1.1-0.3-2.2-0.6-3.2-1c-1-0.4-2-0.9-2.8-1.5c-0.8-0.6-1.5-1.4-2-2.4
		c-0.5-0.9-0.8-2.1-0.8-3.4c0-1.5,0.3-2.8,1-3.9c0.6-1.1,1.5-2,2.5-2.8c1-0.7,2.2-1.3,3.5-1.6s2.6-0.5,3.9-0.5c1.5,0,3,0.2,4.4,0.5
		c1.4,0.3,2.7,0.9,3.8,1.7s2,1.7,2.6,2.9c0.6,1.2,1,2.6,1,4.3h-6.2c-0.1-0.9-0.2-1.6-0.6-2.2c-0.3-0.6-0.7-1-1.3-1.4
		c-0.5-0.3-1.1-0.6-1.8-0.7c-0.7-0.1-1.4-0.2-2.2-0.2c-0.5,0-1,0.1-1.6,0.2c-0.5,0.1-1,0.3-1.4,0.6c-0.4,0.3-0.8,0.6-1,1
		c-0.3,0.4-0.4,0.9-0.4,1.6c0,0.6,0.1,1,0.3,1.4c0.2,0.4,0.7,0.7,1.3,1c0.6,0.3,1.5,0.6,2.7,0.9c1.1,0.3,2.6,0.7,4.5,1.2
		c0.5,0.1,1.3,0.3,2.3,0.6c1,0.3,1.9,0.7,2.9,1.4s1.8,1.5,2.5,2.5c0.7,1.1,1,2.4,1,4C1014.3,908,1014,909.2,1013.5,910.4z
		 M1027.1,898h-4.3v10.5c0,1,0.2,1.6,0.5,2c0.3,0.3,1,0.5,2,0.5c0.3,0,0.6,0,0.9,0c0.3,0,0.6-0.1,0.9-0.1v4.5
		c-0.5,0.1-1,0.1-1.6,0.2c-0.6,0-1.2,0-1.8,0c-0.9,0-1.8-0.1-2.6-0.2c-0.8-0.1-1.5-0.4-2.1-0.7c-0.6-0.4-1.1-0.9-1.5-1.5
		c-0.4-0.7-0.5-1.5-0.5-2.6V898h-3.5v-3.9h3.5v-6.4h5.8v6.4h4.3V898z M1048.4,909.4c-0.5,1.4-1.3,2.5-2.2,3.5c-1,1-2.1,1.7-3.5,2.2
		c-1.4,0.5-2.9,0.8-4.5,0.8s-3.2-0.3-4.5-0.8c-1.3-0.5-2.5-1.3-3.5-2.2c-1-1-1.7-2.1-2.2-3.5c-0.5-1.4-0.8-2.9-0.8-4.6
		c0-1.7,0.3-3.2,0.8-4.6c0.5-1.4,1.3-2.6,2.2-3.5c1-1,2.1-1.7,3.5-2.3c1.3-0.5,2.9-0.8,4.5-0.8s3.2,0.3,4.5,0.8
		c1.4,0.5,2.5,1.3,3.5,2.3c1,1,1.7,2.2,2.2,3.5c0.5,1.4,0.8,2.9,0.8,4.6C1049.2,906.4,1048.9,908,1048.4,909.4z M1075.3,918
		c-0.6,1.7-1.5,3-2.6,3.7c-1.1,0.7-2.7,1.1-4.7,1.1c-0.6,0-1.2,0-1.8-0.1c-0.6,0-1.2-0.1-1.8-0.1v-4.8c0.5,0.1,1.1,0.1,1.7,0.2
		s1.2,0.1,1.7,0c0.8-0.1,1.3-0.4,1.7-0.9s0.6-1.1,0.6-1.7c0-0.5-0.1-0.9-0.2-1.3l-5.6-14.9c-0.2,0-0.4-0.1-0.7-0.1
		c-0.4,0-0.8-0.1-1.1-0.1c-1.1,0-2,0.2-2.7,0.5c-0.7,0.4-1.3,0.8-1.8,1.5c-0.5,0.6-0.8,1.3-1,2.2c-0.2,0.8-0.3,1.7-0.3,2.7v9.6h-5.8
		v-21.3h5.6v3.9h0.1c0.3-0.7,0.6-1.3,1.1-1.8c0.5-0.6,1-1,1.6-1.4c0.6-0.4,1.2-0.7,1.9-0.9c0.7-0.2,1.4-0.3,2.1-0.3
		c0.4,0,0.8,0.1,1.3,0.2v0.4h4l4.8,14.6h0.1l4.6-14.6h6L1075.3,918z M1073.4,706.1c-3.4-2-6.2-4.8-8.2-8.5c-2-3.7-3-8.5-3-14.5
		v-70.1h-19.8v-21.8h19.8v-35.6h32.6v35.6h23.9v21.8h-23.9v58.8c0,5.5,0.9,9.2,2.8,11c1.8,1.8,5.5,2.8,11,2.8c1.8,0,3.6-0.1,5.3-0.2
		c1.7-0.2,3.3-0.4,4.8-0.7V710c-2.8,0.5-5.8,0.8-9.2,0.9c-3.4,0.2-6.7,0.2-9.9,0.2c-5.1,0-9.8-0.3-14.4-1
		C1080.8,709.5,1076.9,708.1,1073.4,706.1z M1122.1,915.4h-6.4l-5-20h-0.1l-4.9,20h-6.5l-7.8-29.4h6.5l4.6,20h0.1l5.1-20h6l5,20.2
		h0.1l4.8-20.2h6.3L1122.1,915.4z M1150.2,915.4h-5.8v-12c0-1.8-0.3-3.1-0.8-3.9c-0.5-0.9-1.5-1.3-2.9-1.3c-1.6,0-2.7,0.5-3.5,1.4
		c-0.7,0.9-1.1,2.5-1.1,4.7v11.1h-5.8V886h5.8v11.1h0.1c0.7-1.2,1.7-2.1,2.8-2.7s2.3-0.8,3.4-0.8c1.6,0,2.8,0.2,3.8,0.6
		c1,0.4,1.8,1,2.4,1.8c0.6,0.8,1,1.7,1.2,2.8c0.2,1.1,0.3,2.3,0.3,3.6V915.4z M1172.7,906.1h-15.3c0.1,1.9,0.6,3.3,1.4,4.1
		c0.9,0.8,2.1,1.3,3.8,1.3c1.2,0,2.2-0.3,3-0.9c0.8-0.6,1.4-1.2,1.6-1.9h5.1c-0.8,2.5-2.1,4.4-3.8,5.5c-1.7,1.1-3.8,1.6-6.2,1.6
		c-1.7,0-3.2-0.3-4.5-0.8c-1.3-0.5-2.5-1.3-3.4-2.3c-0.9-1-1.7-2.2-2.2-3.5c-0.5-1.4-0.8-2.9-0.8-4.5c0-1.6,0.3-3.1,0.8-4.4
		c0.5-1.4,1.3-2.6,2.2-3.6c1-1,2.1-1.8,3.4-2.4c1.3-0.6,2.8-0.9,4.4-0.9c1.8,0,3.4,0.3,4.7,1c1.3,0.7,2.4,1.6,3.3,2.8
		c0.9,1.2,1.5,2.5,1.9,4C1172.7,902.9,1172.8,904.5,1172.7,906.1z M1207.5,906.1h-15.3c0.1,1.9,0.6,3.3,1.4,4.1
		c0.9,0.8,2.1,1.3,3.8,1.3c1.2,0,2.2-0.3,3-0.9c0.8-0.6,1.4-1.2,1.6-1.9h5.1c-0.8,2.5-2.1,4.4-3.8,5.5c-1.7,1.1-3.8,1.6-6.2,1.6
		c-1.7,0-3.2-0.3-4.5-0.8c-1.3-0.5-2.5-1.3-3.4-2.3c-0.9-1-1.7-2.2-2.2-3.5c-0.5-1.4-0.8-2.9-0.8-4.5c0-1.6,0.3-3.1,0.8-4.4
		c0.2-0.4,0.3-0.8,0.5-1.2c-0.2,0-0.5-0.1-0.8-0.1c-0.4,0-0.8-0.1-1.1-0.1c-1.1,0-2,0.2-2.7,0.5c-0.7,0.4-1.3,0.8-1.8,1.5
		c-0.5,0.6-0.8,1.3-1,2.2c-0.2,0.8-0.3,1.7-0.3,2.7v9.6h-5.8v-21.3h5.6v3.9h0.1c0.3-0.7,0.6-1.3,1.1-1.8c0.5-0.6,1-1,1.6-1.4
		c0.6-0.4,1.2-0.7,1.9-0.9c0.7-0.2,1.4-0.3,2.1-0.3c0.4,0,0.8,0.1,1.3,0.2v5c0.4-0.7,0.9-1.4,1.5-2c1-1,2.1-1.8,3.4-2.4
		c1.3-0.6,2.8-0.9,4.4-0.9c1.8,0,3.4,0.3,4.7,1c1.3,0.7,2.4,1.6,3.3,2.8c0.9,1.2,1.5,2.5,1.9,4
		C1207.4,902.9,1207.6,904.5,1207.5,906.1z M1180.4,713c-9.3,0-17.8-1.5-25.3-4.5c-7.5-3-13.9-7.2-19.1-12.8
		c-5.2-5.5-9.2-12.1-12.1-19.8c-2.8-7.7-4.3-16.1-4.3-25.3c0-8.9,1.5-17.2,4.4-24.8c2.9-7.7,7-14.3,12.4-19.9
		c5.4-5.6,11.8-10,19.2-13.2c7.4-3.2,15.7-4.8,24.7-4.8c10.1,0,18.9,2,26.4,5.9c7.5,3.9,13.7,9.2,18.5,15.7
		c4.8,6.6,8.3,14.1,10.5,22.5c2.1,8.4,2.9,17.2,2.3,26.4h-85.7c0.5,10.6,3.1,18.2,8,23c4.9,4.8,11.9,7.1,21.1,7.1
		c6.6,0,12.3-1.6,17-4.9c4.7-3.3,7.7-6.8,8.7-10.5h28.7c-4.6,14.2-11.6,24.4-21.1,30.6C1205.3,710,1193.9,713,1180.4,713z
		 M1239.6,915.4h-20.8V886h6.5v23.9h14.3V915.4z M1261.1,909.4c-0.5,1.4-1.3,2.5-2.2,3.5c-1,1-2.1,1.7-3.5,2.2
		c-1.4,0.5-2.9,0.8-4.5,0.8c-1.7,0-3.2-0.3-4.5-0.8c-1.3-0.5-2.5-1.3-3.5-2.2c-1-1-1.7-2.1-2.2-3.5c-0.5-1.4-0.8-2.9-0.8-4.6
		c0-1.7,0.3-3.2,0.8-4.6c0.5-1.4,1.3-2.6,2.2-3.5c1-1,2.1-1.7,3.5-2.3c1.3-0.5,2.8-0.8,4.5-0.8c1.7,0,3.2,0.3,4.5,0.8
		c1.4,0.5,2.5,1.3,3.5,2.3c1,1,1.7,2.2,2.2,3.5c0.5,1.4,0.8,2.9,0.8,4.6C1261.9,906.4,1261.6,908,1261.1,909.4z M1268.9,915.4
		l-7.3-21.3h6.1l4.5,14.5h0.1l4.5-14.5h5.8l-7.2,21.3H1268.9z M1303.1,906.1h-15.3c0.1,1.9,0.6,3.3,1.4,4.1c0.9,0.8,2.1,1.3,3.8,1.3
		c1.2,0,2.2-0.3,3-0.9c0.8-0.6,1.4-1.2,1.6-1.9h5.1c-0.8,2.5-2.1,4.4-3.8,5.5c-1.7,1.1-3.8,1.6-6.2,1.6c-1.7,0-3.2-0.3-4.5-0.8
		c-1.3-0.5-2.5-1.3-3.4-2.3c-0.9-1-1.7-2.2-2.2-3.5c-0.5-1.4-0.8-2.9-0.8-4.5c0-1.6,0.3-3.1,0.8-4.4c0.5-1.4,1.3-2.6,2.2-3.6
		c1-1,2.1-1.8,3.4-2.4c1.3-0.6,2.8-0.9,4.4-0.9c1.8,0,3.4,0.3,4.7,1s2.4,1.6,3.3,2.8c0.9,1.2,1.5,2.5,1.9,4
		C1303.1,902.9,1303.2,904.5,1303.1,906.1z M1342.4,915.4h-6.4l-5-20h-0.1l-4.9,20h-6.5l-7.8-29.4h6.5l4.6,20h0.1l5.1-20h6l5,20.2
		h0.1l4.8-20.2h6.3L1342.4,915.4z M1356.6,915.4h-5.8v-21.3h5.8V915.4z M1356.6,890.8h-5.8V886h5.8V890.8z M1379.1,915.4h-5.8v-12
		c0-1.8-0.3-3.1-0.8-3.9c-0.5-0.9-1.5-1.3-2.9-1.3c-1.6,0-2.7,0.5-3.5,1.4c-0.7,0.9-1.1,2.5-1.1,4.7v11.1h-5.8v-21.3h5.6v3h0.1
		c0.7-1.2,1.7-2.1,2.9-2.7s2.4-0.8,3.6-0.8c1.6,0,2.8,0.2,3.8,0.6c1,0.4,1.8,1,2.4,1.8c0.6,0.8,1,1.7,1.2,2.8
		c0.2,1.1,0.3,2.3,0.3,3.6V915.4z M1399.3,912c-0.6,0.9-1.3,1.7-2.2,2.3c-0.9,0.6-1.9,1-3.1,1.2c-1.2,0.2-2.4,0.3-3.6,0.3
		c-1.2,0-2.4-0.1-3.6-0.4c-1.2-0.2-2.2-0.7-3.1-1.2c-0.9-0.6-1.7-1.3-2.3-2.3c-0.6-0.9-0.9-2.1-1-3.6h5.5c0,0.6,0.1,1.2,0.4,1.6
		s0.6,0.8,1,1.1c0.4,0.3,0.9,0.5,1.4,0.6c0.5,0.1,1.1,0.2,1.7,0.2c0.4,0,0.8,0,1.3-0.1c0.5-0.1,0.9-0.2,1.2-0.5
		c0.4-0.2,0.7-0.5,0.9-0.8c0.2-0.3,0.4-0.8,0.4-1.3c0-0.9-0.6-1.5-1.7-2c-1.2-0.4-2.8-0.9-4.9-1.3c-0.9-0.2-1.7-0.4-2.5-0.7
		c-0.8-0.3-1.5-0.6-2.2-1s-1.1-1-1.5-1.6c-0.4-0.6-0.6-1.4-0.6-2.4c0-1.4,0.3-2.5,0.8-3.4c0.5-0.9,1.2-1.6,2.1-2.1
		c0.9-0.5,1.9-0.9,3-1.1c1.1-0.2,2.2-0.3,3.4-0.3s2.3,0.1,3.4,0.3c1.1,0.2,2,0.6,2.9,1.1c0.8,0.5,1.6,1.2,2.1,2.1s0.9,2,1,3.3h-5.6
		c-0.1-1.1-0.5-1.9-1.3-2.3c-0.8-0.4-1.7-0.6-2.7-0.6c-0.3,0-0.7,0-1.1,0.1c-0.4,0-0.7,0.1-1,0.3c-0.3,0.1-0.6,0.3-0.8,0.6
		c-0.2,0.3-0.3,0.6-0.3,1c0,0.5,0.2,0.9,0.6,1.3c0.4,0.3,0.9,0.6,1.5,0.8c0.6,0.2,1.3,0.4,2.1,0.6c0.8,0.2,1.6,0.3,2.4,0.5
		c0.8,0.2,1.7,0.4,2.5,0.7c0.8,0.3,1.5,0.6,2.2,1.1c0.6,0.5,1.1,1,1.5,1.7c0.4,0.7,0.6,1.5,0.6,2.5
		C1400.2,909.9,1399.9,911.1,1399.3,912z M1439.1,710h-33.6l-21.1-79.7h-0.5l-20.2,79.7H1330l-37.7-118.8h34.5l21.8,80.7h0.5
		l19.8-80.7h31.7l20.2,80.4h0.5l21.8-80.4h33.6L1439.1,710z M1515,710h-32.6V591.2h32.6V710z M1515,572.8h-32.6V546h32.6V572.8z
		 M1527.4,475.2v-70.1h-19.8v-21.8h19.8v-35.6h32.6v35.6h23.9v21.8H1560v58.8c0,5.5,0.9,9.2,2.8,11c1.8,1.8,5.5,2.8,11,2.8
		c1.8,0,3.6-0.1,5.3-0.2c1.7-0.2,3.3-0.4,4.8-0.7V502c-2.8,0.5-5.8,0.8-9.2,0.9c-3.4,0.1-6.7,0.2-9.9,0.2c-5.1,0-9.8-0.3-14.4-1
		c-4.5-0.7-8.5-2-11.9-4c-3.4-2-6.2-4.8-8.2-8.5C1528.4,486,1527.4,481.1,1527.4,475.2z M1610.6,710v-67.1c0-9.8-1.5-17.1-4.6-21.9
		c-3.1-4.8-8.5-7.2-16.3-7.2c-8.9,0-15.3,2.6-19.3,7.9c-4,5.3-6,14-6,26.1V710h-32.6V591.2h31v16.5h0.7c4.1-6.9,9.5-11.9,16.1-15.1
		c6.6-3.1,13.3-4.7,20.2-4.7c8.7,0,15.9,1.2,21.5,3.6c5.6,2.4,10,5.7,13.2,9.9c3.2,4.2,5.5,9.3,6.8,15.4c1.3,6.1,2,12.8,2,20.1V710
		H1610.6z M1696.5,710h-36.1v-35.4h36.1V710z"/>
	<path class="st1" d="M1042.2,900.1c-0.4-0.6-0.9-1.1-1.6-1.5c-0.7-0.4-1.5-0.6-2.5-0.6c-1,0-1.8,0.2-2.5,0.6
		c-0.7,0.4-1.2,0.9-1.6,1.5c-0.4,0.6-0.7,1.4-0.8,2.2c-0.2,0.8-0.2,1.7-0.2,2.5s0.1,1.7,0.2,2.5c0.2,0.8,0.4,1.5,0.8,2.2
		c0.4,0.6,0.9,1.2,1.6,1.5c0.7,0.4,1.5,0.6,2.5,0.6c1,0,1.8-0.2,2.5-0.6c0.7-0.4,1.2-0.9,1.6-1.5c0.4-0.6,0.7-1.4,0.8-2.2
		c0.2-0.8,0.2-1.6,0.2-2.5s-0.1-1.7-0.2-2.5C1042.9,901.4,1042.6,900.7,1042.2,900.1z"/>
	<path class="st1" d="M1197,897.9c-0.9,0-1.7,0.2-2.3,0.5c-0.6,0.3-1.1,0.7-1.5,1.2c-0.4,0.5-0.6,1-0.8,1.5c-0.2,0.5-0.2,1-0.3,1.4
		h9.5c-0.3-1.5-0.8-2.6-1.5-3.4C1199.5,898.3,1198.4,897.9,1197,897.9z"/>
	<path class="st1" d="M1255,900.1c-0.4-0.6-0.9-1.1-1.6-1.5c-0.7-0.4-1.5-0.6-2.5-0.6c-1,0-1.8,0.2-2.5,0.6
		c-0.7,0.4-1.2,0.9-1.6,1.5c-0.4,0.6-0.7,1.4-0.8,2.2c-0.2,0.8-0.2,1.7-0.2,2.5s0.1,1.7,0.2,2.5c0.2,0.8,0.4,1.5,0.8,2.2
		c0.4,0.6,0.9,1.2,1.6,1.5c0.7,0.4,1.5,0.6,2.5,0.6c1,0,1.8-0.2,2.5-0.6c0.7-0.4,1.2-0.9,1.6-1.5c0.4-0.6,0.7-1.4,0.8-2.2
		c0.2-0.8,0.2-1.6,0.2-2.5s-0.1-1.7-0.2-2.5C1255.6,901.4,1255.4,900.7,1255,900.1z"/>
	<path class="st1" d="M943.9,863c-0.3,0.1-0.6,0.1-0.9,0.1c-0.3,0-0.6,0.1-0.9,0.1c-0.3,0.1-0.6,0.1-0.9,0.2
		c-0.3,0.1-0.5,0.2-0.7,0.4c-0.2,0.2-0.4,0.4-0.5,0.6s-0.2,0.5-0.2,0.9c0,0.3,0.1,0.6,0.2,0.9c0.1,0.2,0.3,0.4,0.5,0.6
		c0.2,0.1,0.5,0.2,0.8,0.3c0.3,0.1,0.6,0.1,0.9,0.1c0.8,0,1.4-0.1,1.8-0.4c0.4-0.3,0.7-0.6,0.9-0.9c0.2-0.4,0.3-0.7,0.4-1.1
		c0-0.4,0.1-0.7,0.1-0.9v-1.5c-0.2,0.1-0.4,0.3-0.6,0.3C944.4,862.8,944.2,862.9,943.9,863z"/>
	<path class="st1" d="M780,865.4c0.3,0.4,0.6,0.8,1.1,1s1,0.4,1.6,0.4s1.2-0.1,1.7-0.4s0.8-0.6,1.1-1c0.3-0.4,0.5-0.9,0.6-1.5
		s0.2-1.1,0.2-1.7s-0.1-1.1-0.2-1.7c-0.1-0.5-0.3-1-0.6-1.5c-0.3-0.4-0.6-0.8-1.1-1s-1-0.4-1.7-0.4s-1.2,0.1-1.6,0.4s-0.8,0.6-1.1,1
		c-0.3,0.4-0.5,0.9-0.6,1.5c-0.1,0.5-0.2,1.1-0.2,1.7s0.1,1.1,0.2,1.7C779.5,864.5,779.7,865,780,865.4z"/>
</g>
</svg>
