<?xml version="1.0" encoding="utf-8"?>
<!-- Generator: Adobe Illustrator 21.1.0, SVG Export Plug-In . SVG Version: 6.00 Build 0)  -->
<svg version="1.1" id="Layer_1" xmlns="http://www.w3.org/2000/svg" xmlns:xlink="http://www.w3.org/1999/xlink" x="0px" y="0px"
	 width="887.094px" height="181.566px" viewBox="0 0 887.094 181.566" enable-background="new 0 0 887.094 181.566"
	 xml:space="preserve">
<path id="logo-main-1" d="M75.153,49.148h123.661c14.815,0,27.62,4.844,38.058,14.398c1.882,1.724,3.591,3.522,5.141,5.386
	c1.491-11.473,0-22.639-4.916-32.765c-18.934-39.002-81.376-47.84-139.463-19.743C39.545,44.521,7.804,98.916,26.736,137.918
	c8.623,17.76,26.27,29.262,48.417,33.875V49.148z"/>
<path id="logo-main-3" d="M101.387,149.21v24.836c20.524-0.483,42.976-5.824,64.812-16.386c5.378-2.602,10.531-5.43,15.438-8.45
	H101.387z"/>
<path id="logo-main-2" d="M226.621,99.179c0-6.885-2.528-12.407-7.958-17.38c-5.529-5.058-12.021-7.516-19.85-7.516h-97.426v49.79
	h97.426c7.833,0,14.326-2.458,19.851-7.516C224.093,111.588,226.621,106.066,226.621,99.179"/>
<g id="text">
	<g>
		<g>
			<path d="M278.513,158.092h8.94v-29.01h24.266v-7.937h-24.266v-17.333h24.266v-7.937h-33.207V158.092z M327.964,104.086
				c-6.295,6.112-9.396,13.775-9.396,23.08c0,9.031,3.102,16.603,9.396,22.624c6.203,6.021,14.049,9.031,23.354,9.031
				c9.852,0,17.972-3.01,24.449-9.031c6.477-6.021,9.67-13.593,9.67-22.807c0-9.123-3.193-16.786-9.579-22.898
				c-6.386-6.112-14.414-9.123-23.993-9.123C342.195,94.963,334.259,97.973,327.964,104.086L327.964,104.086z M369.29,110.198
				c4.653,4.47,6.933,10.035,6.933,16.603c0,6.842-2.281,12.498-6.933,16.968c-4.653,4.561-10.4,6.842-17.333,6.842
				s-12.681-2.189-17.242-6.66c-4.653-4.47-6.933-10.035-6.933-16.786c0-6.933,2.281-12.589,6.842-17.059
				c4.561-4.47,10.491-6.66,17.516-6.66C358.89,103.447,364.637,105.728,369.29,110.198L369.29,110.198z M439.729,131.18
				c0,4.926-0.365,8.393-1.186,10.4c-0.73,2.007-2.007,3.74-3.74,5.291c-3.375,2.737-7.663,4.105-12.954,4.105
				c-3.74,0-6.933-0.73-9.67-2.098c-2.737-1.368-4.744-3.193-6.112-5.474c-1.368-2.281-2.007-6.386-2.007-12.224V95.875h-8.94
				v35.213c0,5.018,0.365,8.758,1.003,11.038c0.639,2.372,1.551,4.379,2.554,6.021c1.003,1.551,2.281,3.01,3.74,4.379
				c4.926,4.196,11.403,6.295,19.522,6.295c7.937,0,14.414-2.098,19.34-6.386c1.46-1.277,2.737-2.737,3.74-4.288
				c1.004-1.642,1.916-3.649,2.646-6.112c0.639-2.463,1.004-6.021,1.004-10.856V95.875h-8.94V131.18z M510.44,144.225l-41.964-48.35
				h-7.207v62.217h8.393v-47.894l41.599,47.894h7.663V95.875h-8.484V144.225z M551.959,158.092c5.565,0,9.305-0.182,11.221-0.456
				c2.007-0.365,4.196-0.912,6.477-1.825c4.014-1.551,7.572-3.832,10.582-6.751c3.01-2.919,5.291-6.295,6.933-10.035
				c1.551-3.832,2.372-7.846,2.372-11.951c0-5.839-1.46-11.221-4.379-16.147c-2.919-4.926-6.842-8.667-11.768-11.221
				c-4.926-2.554-11.677-3.832-20.161-3.832h-20.982v62.217H551.959z M561.721,104.268c1.916,0.365,3.923,1.003,6.112,2.007
				c2.098,1.004,4.014,2.372,5.747,3.923c4.47,4.196,6.751,9.67,6.751,16.33c0,6.842-2.189,12.498-6.568,16.968
				c-1.368,1.368-2.919,2.463-4.561,3.467c-1.642,0.912-3.74,1.642-6.203,2.281c-2.463,0.639-5.93,0.912-10.4,0.912h-11.403v-46.343
				h11.13C556.612,103.812,559.714,103.994,561.721,104.268L561.721,104.268z M593.844,158.092h9.123l7.846-18.428h26.456
				l8.302,18.428h9.123L626.777,95.51h-6.203L593.844,158.092z M614.187,131.727l9.488-22.533l10.035,22.533H614.187z
				 M656.252,103.812h21.347v54.28h8.94v-54.28h21.712v-7.937h-51.999V103.812z M716.744,158.092h8.94V95.875h-8.94V158.092z
				 M746.123,104.086c-6.295,6.112-9.396,13.775-9.396,23.08c0,9.031,3.102,16.603,9.396,22.624
				c6.203,6.021,14.049,9.031,23.354,9.031c9.852,0,17.972-3.01,24.449-9.031c6.477-6.021,9.67-13.593,9.67-22.807
				c0-9.123-3.193-16.786-9.579-22.898c-6.386-6.112-14.414-9.123-23.993-9.123C760.354,94.963,752.417,97.973,746.123,104.086
				L746.123,104.086z M787.448,110.198c4.653,4.47,6.933,10.035,6.933,16.603c0,6.842-2.281,12.498-6.933,16.968
				c-4.653,4.561-10.4,6.842-17.333,6.842s-12.681-2.189-17.242-6.66c-4.653-4.47-6.933-10.035-6.933-16.786
				c0-6.933,2.281-12.589,6.842-17.059c4.561-4.47,10.491-6.66,17.516-6.66C777.049,103.447,782.796,105.728,787.448,110.198
				L787.448,110.198z M864,144.225l-41.964-48.35h-7.207v62.217h8.393v-47.894l41.599,47.894h7.663V95.875H864V144.225z"/>
			<path d="M812.954,171.407c0.255-0.128,0.73-0.182,1.441-0.182c0.821,0,1.514,0.219,2.079,0.657
				c0.547,0.456,0.821,1.003,0.821,1.66c0,0.638-0.255,1.167-0.766,1.605c-0.511,0.438-1.131,0.657-1.879,0.657
				c-0.857,0-1.733-0.292-2.626-0.857v1.824c0.948,0.492,1.933,0.73,2.936,0.73c1.222,0,2.225-0.365,2.991-1.094
				c0.766-0.748,1.149-1.696,1.149-2.863c0-1.131-0.383-2.061-1.167-2.809c-0.784-0.73-1.769-1.094-2.973-1.094
				c-0.128,0-0.255,0-0.383,0.018v-3.137h3.903v-1.587h-5.526V171.407z M821.932,166.538c-0.748,1.186-1.131,2.718-1.131,4.614
				c0,1.915,0.365,3.447,1.094,4.614c0.729,1.149,1.696,1.733,2.9,1.733c1.185,0,2.152-0.584,2.9-1.769
				c0.748-1.186,1.113-2.736,1.113-4.614c0-1.842-0.365-3.374-1.113-4.56c-0.748-1.204-1.696-1.806-2.827-1.806
				C823.665,164.75,822.68,165.352,821.932,166.538L821.932,166.538z M826.437,167.723c0.383,0.857,0.565,2.006,0.565,3.465
				c0,1.441-0.201,2.572-0.602,3.411c-0.383,0.839-0.93,1.258-1.623,1.258s-1.222-0.419-1.623-1.258
				c-0.383-0.839-0.584-1.988-0.584-3.465c0-1.441,0.201-2.59,0.602-3.429c0.401-0.839,0.948-1.258,1.623-1.258h0.091
				C825.525,166.446,826.054,166.866,826.437,167.723L826.437,167.723z M833.044,177.371h1.787v-12.439h-1.787V177.371z
				 M840.417,169.109c-0.511,1.313-0.766,2.663-0.766,4.067c0,1.386,0.255,2.736,0.766,4.049c0.328,0.821,0.657,1.496,0.967,2.024
				c0.328,0.511,0.821,1.185,1.496,1.988l0.274,0.328h1.003c-1.751-2.316-2.626-5.089-2.626-8.335c0-0.948,0.091-1.933,0.255-2.936
				c0.164-1.021,0.419-1.915,0.748-2.699c0.346-0.784,0.875-1.733,1.623-2.845h-1.003
				C841.858,166.355,840.946,167.796,840.417,169.109L840.417,169.109z M849.522,176.003c-0.857,0-1.55-0.255-2.061-0.748
				c-0.511-0.492-0.766-1.149-0.766-2.006c0-0.784,0.237-1.441,0.711-1.97c0.474-0.511,1.076-0.766,1.824-0.766
				c0.693,0,1.477,0.255,2.298,0.784v-1.733c-0.492-0.219-0.912-0.365-1.258-0.438c-0.328-0.091-0.711-0.128-1.131-0.128
				c-1.222,0-2.207,0.401-2.955,1.185c-0.748,0.802-1.131,1.842-1.131,3.119c0,1.295,0.383,2.316,1.149,3.064
				c0.766,0.766,1.806,1.149,3.082,1.149c0.784,0,1.587-0.146,2.407-0.456v-1.605C850.871,175.821,850.16,176.003,849.522,176.003
				L849.522,176.003z M855.508,178.885c0.365-0.602,0.657-1.222,0.875-1.842c0.474-1.24,0.711-2.535,0.711-3.885
				c0-1.404-0.255-2.772-0.784-4.085c-0.31-0.839-0.638-1.514-0.967-2.024c-0.31-0.529-0.821-1.167-1.477-1.97l-0.274-0.328h-1.003
				c0.638,0.857,1.131,1.733,1.514,2.608c0.365,0.857,0.638,1.787,0.839,2.754c0.182,0.967,0.274,1.97,0.274,3.009
				c0,0.894-0.073,1.824-0.237,2.79c-0.164,0.985-0.401,1.879-0.73,2.681c-0.328,0.821-0.894,1.806-1.66,2.973h1.003
				C854.523,180.399,855.161,179.505,855.508,178.885L855.508,178.885z M860.198,169.109c-0.511,1.313-0.766,2.663-0.766,4.067
				c0,1.386,0.255,2.736,0.766,4.049c0.328,0.821,0.657,1.496,0.967,2.024c0.328,0.511,0.821,1.185,1.496,1.988l0.274,0.328h1.003
				c-1.751-2.316-2.626-5.089-2.626-8.335c0-0.948,0.091-1.933,0.255-2.936c0.164-1.021,0.419-1.915,0.748-2.699
				c0.347-0.784,0.875-1.733,1.623-2.845h-1.003C861.639,166.355,860.727,167.796,860.198,169.109L860.198,169.109z
				 M867.442,171.772l0.164,0.018c0.711,0.091,1.185,0.182,1.404,0.274c0.219,0.109,0.401,0.255,0.584,0.456
				c0.31,0.383,0.456,0.802,0.456,1.295c0,0.584-0.182,1.058-0.547,1.423c-0.365,0.347-0.839,0.529-1.441,0.529
				c-0.894,0-1.806-0.292-2.736-0.875v1.933c0.875,0.456,1.787,0.693,2.736,0.693c1.113,0,2.024-0.347,2.736-1.058
				c0.729-0.711,1.094-1.605,1.094-2.699c0-0.438-0.055-0.857-0.182-1.24c-0.128-0.401-0.31-0.73-0.529-1.003
				c-0.237-0.274-0.584-0.511-1.076-0.711c0.565-0.292,0.967-0.675,1.222-1.094c0.255-0.438,0.383-0.967,0.383-1.605
				c0-1.04-0.328-1.86-0.985-2.462c-0.675-0.602-1.568-0.894-2.717-0.894c-0.857,0-1.641,0.182-2.371,0.547v1.696
				c0.784-0.401,1.514-0.602,2.152-0.602c0.638,0,1.167,0.164,1.568,0.511c0.383,0.347,0.584,0.802,0.584,1.35
				c0,0.62-0.201,1.076-0.62,1.404c-0.401,0.31-0.985,0.474-1.769,0.474h-0.109V171.772z M876.421,178.885
				c0.365-0.602,0.657-1.222,0.875-1.842c0.474-1.24,0.711-2.535,0.711-3.885c0-1.404-0.255-2.772-0.784-4.085
				c-0.31-0.839-0.638-1.514-0.967-2.024c-0.31-0.529-0.821-1.167-1.477-1.97l-0.274-0.328h-1.003
				c0.638,0.857,1.131,1.733,1.514,2.608c0.365,0.857,0.638,1.787,0.839,2.754c0.182,0.967,0.274,1.97,0.274,3.009
				c0,0.894-0.073,1.824-0.237,2.79c-0.164,0.985-0.401,1.879-0.73,2.681c-0.328,0.821-0.894,1.806-1.66,2.973h1.003
				C875.436,180.399,876.074,179.505,876.421,178.885L876.421,178.885z"/>
		</g>
		<g>
			<g>
				<path d="M500.389,51.674h-49.775V25.782h49.775c3.597,0,6.592,1.243,9.156,3.802c2.564,2.559,3.812,5.55,3.812,9.145
					c0,3.593-1.248,6.583-3.812,9.145C506.984,50.429,503.989,51.674,500.389,51.674 M500.389,14.931h-60.644v60.541
					c0,3.296,2.133,5.429,5.436,5.429c3.303,0,5.434-2.133,5.434-5.429V62.525h49.775c6.588,0,12.27-2.354,16.889-6.996
					c4.61-4.637,6.948-10.29,6.948-16.8c0-6.574-2.34-12.245-6.957-16.855C512.654,17.267,506.972,14.931,500.389,14.931"/>
				<path d="M605.315,15.481c-3.271,0-5.383,2.131-5.383,5.427v35.641c0,5.94-3.625,10.105-11.072,12.737
					c-5.256,1.848-11.855,2.781-19.612,2.781c-7.76,0-14.357-0.933-19.606-2.776c-7.457-2.637-11.081-6.802-11.081-12.742V20.907
					c0-3.296-2.112-5.427-5.383-5.427c-3.269,0-5.383,2.131-5.383,5.427v35.641c0,9.747,4.989,16.985,14.82,21.513
					c6.96,3.223,15.919,4.859,26.634,4.859c10.771,0,19.763-1.635,26.725-4.859c9.77-4.533,14.727-11.77,14.727-21.513V20.907
					C610.699,17.611,608.586,15.481,605.315,15.481"/>
				<path d="M694.675,70.598h-66.757V20.905c0-3.296-2.112-5.427-5.383-5.427c-3.271,0-5.383,2.13-5.383,5.427v60.452h77.524
					c3.273,0,5.383-2.096,5.383-5.335C700.059,72.728,697.949,70.598,694.675,70.598"/>
				<path d="M716.046,27.201c6.061-1.978,14.058-2.981,23.773-2.981c8.762,0,16.424,1.626,22.767,4.836
					c5.705,2.89,8.599,6.145,8.599,9.672c0,3.296,2.133,5.427,5.436,5.427c3.303,0,5.436-2.13,5.436-5.427
					c0-7.377-4.325-13.575-12.854-18.422c-8.009-4.541-17.897-6.845-29.385-6.845c-11.25,0-20.605,1.257-27.806,3.739
					c-9.578,3.305-14.437,8.479-14.437,15.374c0,4.9,2.263,11.544,13.059,15.374c3.748,1.291,11.62,2.833,24.07,4.717l9.049,1.293
					c10.99,1.499,18.326,2.876,21.82,4.097c5.611,1.914,5.611,4.389,5.611,5.199c0,1.838-2.769,3.796-7.598,5.374
					c-6.063,1.978-14.06,2.979-23.769,2.979c-8.771,0-16.433-1.626-22.774-4.836c-5.705-2.883-8.6-6.138-8.6-9.669
					c0-3.296-2.133-5.427-5.433-5.427c-3.303,0-5.436,2.131-5.436,5.427c0,7.379,4.325,13.577,12.856,18.415
					c8.004,4.548,17.89,6.852,29.387,6.852c11.241,0,20.593-1.259,27.799-3.741c9.58-3.305,14.439-8.476,14.439-15.374
					c0-4.897-2.181-11.517-12.557-15.267c-4.279-1.551-12.208-3.102-24.222-4.738l-9.104-1.282
					c-10.876-1.563-18.132-2.938-21.567-4.104c-4.088-1.389-6.161-3.171-6.161-5.29C708.446,30.736,711.215,28.779,716.046,27.201"
					/>
				<path d="M866.612,53.339c3.303,0,5.436-2.13,5.436-5.424c0-3.294-2.133-5.427-5.436-5.427h-68.176V25.782h68.176
					c3.303,0,5.436-2.131,5.436-5.427c0-3.296-2.133-5.424-5.436-5.424h-79.045v65.968h79.045c3.303,0,5.436-2.13,5.436-5.427
					c0-3.294-2.133-5.427-5.436-5.427h-68.176V53.339H866.612z"/>
			</g>
			<g>
				<path d="M338.95,80.358c2.005,0,3.298-1.286,3.298-3.278V55.534c0-3.588,2.222-6.106,6.788-7.699
					c3.221-1.12,7.263-1.681,12.019-1.681c4.756,0,8.798,0.561,12.017,1.679c4.569,1.594,6.791,4.113,6.791,7.701V77.08
					c0,1.991,1.293,3.278,3.298,3.278s3.298-1.286,3.298-3.278V55.534c0-5.892-3.057-10.267-9.081-13.002
					c-4.266-1.953-9.756-2.938-16.323-2.938c-6.601,0-12.112,0.985-16.378,2.938c-5.99,2.737-9.026,7.112-9.026,13.002V77.08
					C335.652,79.072,336.945,80.358,338.95,80.358"/>
				<path d="M432.884,64.37c1.809,0,2.977-1.17,2.977-2.984c0-1.811-1.168-2.984-2.977-2.984h-37.332v-9.188h37.332
					c1.809,0,2.977-1.172,2.977-2.986c0-1.813-1.168-2.984-2.977-2.984h-43.281v36.282h43.281c1.809,0,2.977-1.172,2.977-2.986
					c0-1.811-1.168-2.984-2.977-2.984h-37.332V64.37H432.884z"/>
				<path d="M325.383,44.434c-0.779-0.537-1.603-1.046-2.514-1.503c-4.421-2.215-10.128-3.337-16.966-3.337
					c-6.802,0-12.491,1.122-16.909,3.337c-0.933,0.465-1.775,0.985-2.571,1.533c-4.524,3.115-6.836,7.547-6.836,13.239v6.636
					c0,5.123,2.312,9.113,6.836,11.916c0.796,0.493,1.637,0.961,2.571,1.38c4.418,1.994,10.107,3.004,16.909,3.004
					c6.839,0,12.546-1.01,16.966-3.004c0.911-0.411,1.735-0.87,2.514-1.353c4.524-2.806,6.834-6.806,6.834-11.943v-6.636
					C332.217,51.995,329.906,47.551,325.383,44.434z M325.383,64.338c0,3.67-2.302,6.245-7.03,7.874
					c-3.335,1.141-7.525,1.718-12.45,1.718c-4.927,0-9.115-0.577-12.448-1.715c-4.733-1.631-7.032-4.206-7.032-7.876v-6.636
					c0-4.078,2.299-6.939,7.032-8.75c3.333-1.266,7.521-1.907,12.448-1.907c4.925,0,9.115,0.641,12.45,1.909
					c4.729,1.809,7.03,4.669,7.03,8.748V64.338z"/>
			</g>
		</g>
	</g>
	<g>
		<path d="M882.062,105.947c-2.813,0-5.002-2.258-5.002-5.002s2.217-5.03,5.03-5.03c2.813,0,5.003,2.259,5.003,5.002
			C887.094,103.66,884.877,105.947,882.062,105.947z M882.091,96.413c-2.564,0-4.503,2.037-4.503,4.532
			c0,2.494,1.926,4.504,4.475,4.504c2.564,0,4.505-2.037,4.505-4.532C886.567,98.422,884.641,96.413,882.091,96.413z M883.2,101.43
			l1.413,1.981h-1.192l-1.275-1.816h-1.095v1.816h-0.997v-5.253h2.341c1.22,0,2.023,0.624,2.023,1.677
			C884.419,100.695,883.92,101.221,883.2,101.43z M882.354,99.06h-1.302v1.662h1.302c0.652,0,1.039-0.318,1.039-0.832
			C883.393,99.351,883.006,99.06,882.354,99.06z"/>
	</g>
</g>
</svg>
