<?xml version="1.0" encoding="utf-8"?>
<!-- Generator: Adobe Illustrator 21.0.2, SVG Export Plug-In . SVG Version: 6.00 Build 0)  -->
<svg version="1.1" id="Layer_1" xmlns="http://www.w3.org/2000/svg" xmlns:xlink="http://www.w3.org/1999/xlink" x="0px" y="0px"
	 width="887.094px" height="181.566px" viewBox="0 0 887.094 181.566" enable-background="new 0 0 887.094 181.566"
	 xml:space="preserve">
<path id="logo-main-1" d="M75.153,49.148h123.661c14.815,0,27.62,4.844,38.058,14.398c1.882,1.724,3.591,3.522,5.141,5.386
	c1.491-11.473,0-22.639-4.916-32.765c-18.934-39.002-81.376-47.84-139.463-19.743C39.545,44.521,7.804,98.916,26.736,137.918
	c8.623,17.76,26.27,29.262,48.417,33.875V49.148z"/>
<path id="logo-main-3" d="M101.387,149.21v24.836c20.524-0.483,42.976-5.824,64.812-16.386c5.378-2.602,10.531-5.43,15.438-8.45
	H101.387z"/>
<path id="logo-main-2" d="M226.621,99.179c0-6.885-2.528-12.407-7.958-17.38c-5.529-5.058-12.021-7.516-19.85-7.516h-97.426v49.79
	h97.426c7.833,0,14.326-2.458,19.851-7.516C224.093,111.588,226.621,106.066,226.621,99.179"/>
<g id="text">
	<path fill="none" d="M763.446,106.081c-7.025,0-12.798,2.197-17.32,6.592c-4.522,4.394-6.783,10.005-6.783,16.831
		c0,6.621,2.268,12.129,6.805,16.523c4.536,4.394,10.215,6.592,17.034,6.592c6.848,0,12.563-2.241,17.144-6.723
		c4.58-4.482,6.871-10.063,6.871-16.743c0-6.504-2.291-11.975-6.871-16.413C775.746,108.301,770.119,106.081,763.446,106.081z"/>
	<polygon fill="none" points="609.51,133.986 628.599,133.986 618.695,111.75 	"/>
	<path fill="none" d="M815.2,166.678h-0.088c-0.674,0-1.208,0.415-1.604,1.244c-0.396,0.829-0.593,1.953-0.593,3.37
		c0,1.453,0.193,2.593,0.58,3.419c0.387,0.826,0.92,1.239,1.6,1.239c0.68,0,1.216-0.413,1.608-1.239
		c0.392-0.826,0.589-1.948,0.589-3.366c0-1.424-0.189-2.558-0.567-3.401S815.839,166.678,815.2,166.678z"/>
	<path fill="none" d="M563.677,108.894c-2.124-0.996-4.138-1.655-6.042-1.977c-1.905-0.322-4.966-0.483-9.184-0.483h-10.986v45.658
		h11.25c4.394,0,7.807-0.3,10.239-0.901c2.431-0.6,4.46-1.362,6.086-2.285c1.626-0.923,3.112-2.058,4.46-3.406
		c4.335-4.394,6.504-9.946,6.504-16.655c0-6.592-2.227-11.967-6.68-16.127C567.683,111.165,565.801,109.89,563.677,108.894z"/>
	<path fill="none" d="M350.988,106.081c-7.025,0-12.798,2.197-17.32,6.592c-4.522,4.394-6.783,10.005-6.783,16.831
		c0,6.621,2.268,12.129,6.805,16.523c4.536,4.394,10.215,6.592,17.034,6.592c6.848,0,12.563-2.241,17.144-6.723
		c4.58-4.482,6.871-10.063,6.871-16.743c0-6.504-2.291-11.975-6.871-16.413C363.288,108.301,357.661,106.081,350.988,106.081z"/>
	<path fill="none" d="M290.84,78.247c3.287,1.123,7.418,1.692,12.278,1.692c4.858,0,8.991-0.569,12.28-1.694
		c4.664-1.606,6.934-4.147,6.934-7.767v-6.545c0-4.023-2.27-6.844-6.934-8.628c-3.289-1.251-7.422-1.883-12.28-1.883
		c-4.86,0-8.991,0.632-12.278,1.881c-4.669,1.786-6.937,4.608-6.937,8.631v6.545C283.904,74.098,286.172,76.639,290.84,78.247z"/>
	<path fill="none" d="M494.952,32.448h-49.096v25.539h49.096c3.55,0,6.505-1.228,9.031-3.748c2.529-2.527,3.76-5.477,3.76-9.02
		c0-3.546-1.231-6.496-3.76-9.02C501.454,33.674,498.5,32.448,494.952,32.448z"/>
	<path d="M494.952,21.745h-59.817V81.46c0,3.251,2.104,5.355,5.362,5.355s5.359-2.104,5.359-5.355V68.69h49.096
		c6.498,0,12.102-2.322,16.659-6.901c4.547-4.574,6.853-10.149,6.853-16.571c0-6.484-2.308-12.078-6.862-16.625
		C507.05,24.049,501.445,21.745,494.952,21.745z M503.983,54.238c-2.527,2.52-5.481,3.748-9.031,3.748h-49.096V32.448h49.096
		c3.548,0,6.502,1.226,9.031,3.751c2.529,2.524,3.76,5.474,3.76,9.02C507.743,48.762,506.512,51.712,503.983,54.238z"/>
	<path d="M603.756,62.795V27.64c0-3.251-2.083-5.353-5.31-5.353s-5.31,2.101-5.31,5.353v35.155c0,5.859-3.575,9.967-10.921,12.564
		c-5.184,1.822-11.693,2.743-19.345,2.743c-7.654,0-14.161-0.92-19.338-2.738c-7.355-2.601-10.93-6.709-10.93-12.568V27.64
		c0-3.251-2.083-5.353-5.31-5.353c-3.224,0-5.31,2.101-5.31,5.353v35.155c0,9.614,4.921,16.753,14.618,21.219
		c6.865,3.179,15.702,4.792,26.27,4.792c10.624,0,19.493-1.613,26.36-4.792C598.867,79.543,603.756,72.404,603.756,62.795z"/>
	<path d="M691.897,82.002c0-3.249-2.081-5.35-5.31-5.35h-65.846V27.637c0-3.251-2.083-5.353-5.31-5.353
		c-3.226,0-5.31,2.101-5.31,5.353v59.628h76.466C689.816,87.265,691.897,85.197,691.897,82.002z"/>
	<path d="M754.56,74.708c-5.98,1.951-13.869,2.938-23.444,2.938c-8.651,0-16.208-1.604-22.463-4.77
		c-5.627-2.844-8.482-6.055-8.482-9.538c0-3.251-2.104-5.353-5.359-5.353c-3.258,0-5.362,2.101-5.362,5.353
		c0,7.279,4.266,13.392,12.681,18.164c7.895,4.486,17.646,6.759,28.986,6.759c11.088,0,20.312-1.242,27.42-3.69
		c9.45-3.26,14.242-8.361,14.242-15.165c0-4.831-2.151-11.36-12.386-15.059c-4.221-1.53-12.042-3.06-23.892-4.673l-8.98-1.264
		c-10.728-1.541-17.885-2.898-21.273-4.048c-4.032-1.37-6.077-3.127-6.077-5.218c0-1.811,2.732-3.742,7.497-5.299
		c5.978-1.951,13.867-2.941,23.449-2.941c8.642,0,16.2,1.604,22.457,4.77c5.627,2.851,8.482,6.061,8.482,9.54
		c0,3.251,2.104,5.353,5.362,5.353s5.362-2.101,5.362-5.353c0-7.276-4.266-13.389-12.678-18.171
		c-7.9-4.48-17.653-6.752-28.984-6.752c-11.097,0-20.324,1.24-27.427,3.688c-9.448,3.26-14.24,8.363-14.24,15.165
		c0,4.833,2.232,11.387,12.881,15.164c3.697,1.274,11.461,2.795,23.741,4.653l8.925,1.276c10.84,1.478,18.076,2.837,21.523,4.041
		c5.535,1.888,5.535,4.329,5.535,5.128C762.054,71.221,759.323,73.151,754.56,74.708z"/>
	<path d="M861.54,81.46c0-3.249-2.104-5.353-5.362-5.353h-67.246V59.629h67.246c3.258,0,5.362-2.101,5.362-5.35
		c0-3.249-2.104-5.353-5.362-5.353h-67.246V32.448h67.246c3.258,0,5.362-2.101,5.362-5.353c0-3.251-2.104-5.35-5.362-5.35h-77.967
		v65.068h77.967C859.436,86.813,861.54,84.711,861.54,81.46z"/>
	<path d="M335.715,86.279c1.978,0,3.253-1.269,3.253-3.233V61.794c0-3.539,2.191-6.023,6.696-7.594
		c3.177-1.105,7.164-1.658,11.855-1.658c4.691,0,8.678,0.554,11.853,1.656c4.507,1.573,6.698,4.057,6.698,7.596v21.253
		c0,1.964,1.276,3.233,3.253,3.233c1.978,0,3.253-1.269,3.253-3.233V61.794c0-5.812-3.015-10.127-8.957-12.825
		c-4.207-1.926-9.623-2.898-16.1-2.898c-6.511,0-11.947,0.972-16.154,2.898c-5.908,2.7-8.903,7.015-8.903,12.825v21.253
		C332.462,85.01,333.738,86.279,335.715,86.279z"/>
	<path d="M431.303,82.515c0-1.786-1.152-2.943-2.936-2.943h-36.822V70.51h36.822c1.784,0,2.936-1.154,2.936-2.943
		c0-1.786-1.152-2.943-2.936-2.943h-36.822v-9.063h36.822c1.784,0,2.936-1.156,2.936-2.945c0-1.789-1.152-2.943-2.936-2.943h-42.69
		V85.46h42.69C430.152,85.46,431.303,84.304,431.303,82.515z"/>
	<path d="M286.44,83.593c4.358,1.966,9.97,2.963,16.679,2.963c6.745,0,12.375-0.997,16.735-2.963
		c6.118-2.763,9.22-7.175,9.22-13.115v-6.545c0-6.599-3.103-11.502-9.22-14.57c-2.692-1.349-5.923-2.236-9.547-2.756h-14.344
		c-3.61,0.52-6.832,1.407-9.523,2.756c-6.156,3.067-9.279,7.969-9.279,14.57v6.545C277.161,76.42,280.284,80.832,286.44,83.593z
		 M283.904,63.933c0-4.023,2.268-6.844,6.937-8.631c3.287-1.249,7.418-1.881,12.278-1.881c4.858,0,8.991,0.632,12.28,1.883
		c4.664,1.784,6.934,4.606,6.934,8.628v6.545c0,3.62-2.27,6.16-6.934,7.767c-3.289,1.125-7.422,1.694-12.28,1.694
		c-4.86,0-8.991-0.569-12.278-1.692c-4.669-1.609-6.937-4.149-6.937-7.769V63.933z"/>
	<path d="M615.687,98.259l-26.368,61.741h9.032l7.671-18.193h26.191l8.182,18.193h8.995l-27.526-61.741H615.687z M609.51,133.986
		l9.185-22.236l9.905,22.236H609.51z"/>
	<path d="M569.192,102.368c-4.863-2.505-11.469-3.757-19.819-3.757h-20.698v61.302h19.423c5.449,0,9.14-0.154,11.074-0.461
		c1.934-0.308,4.057-0.915,6.372-1.824c3.955-1.494,7.427-3.706,10.415-6.636c2.929-2.841,5.185-6.137,6.767-9.887
		c1.582-3.75,2.373-7.675,2.373-11.777c0-5.742-1.436-11.044-4.307-15.908C577.922,108.557,574.055,104.873,569.192,102.368z
		 M569.5,145.499c-1.348,1.348-2.834,2.483-4.46,3.406c-1.626,0.923-3.655,1.685-6.086,2.285c-2.432,0.601-5.845,0.901-10.239,0.901
		h-11.25v-45.658h10.986c4.219,0,7.28,0.161,9.184,0.483c1.904,0.323,3.918,0.982,6.042,1.977c2.124,0.996,4.006,2.271,5.647,3.823
		c4.453,4.16,6.68,9.536,6.68,16.127C576.003,135.553,573.835,141.105,569.5,145.499z"/>
	<polygon points="650.884,106.345 671.933,106.345 671.933,160.001 680.766,160.001 680.766,106.345 702.166,106.345 
		702.166,98.523 650.884,98.523 	"/>
	<rect x="710.56" y="98.611" width="8.789" height="61.39"/>
	<path d="M763.095,97.732c-9.486,0-17.332,3.003-23.538,9.009c-6.207,6.006-9.31,13.594-9.31,22.763
		c0,8.936,3.081,16.369,9.244,22.302c6.162,5.932,13.87,8.899,23.121,8.899c9.69,0,17.719-2.966,24.087-8.899
		c6.368-5.932,9.552-13.425,9.552-22.477s-3.155-16.581-9.464-22.587C780.477,100.735,772.58,97.732,763.095,97.732z
		 M780.327,145.895c-4.581,4.482-10.296,6.723-17.144,6.723c-6.82,0-12.498-2.197-17.034-6.592
		c-4.537-4.394-6.805-9.902-6.805-16.523c0-6.826,2.261-12.436,6.783-16.831c4.522-4.394,10.295-6.592,17.32-6.592
		c6.673,0,12.299,2.219,16.881,6.658c4.58,4.438,6.871,9.909,6.871,16.413C787.198,135.831,784.907,141.412,780.327,145.895z"/>
	<path d="M350.637,97.732c-9.486,0-17.332,3.003-23.538,9.009c-6.207,6.006-9.31,13.594-9.31,22.763
		c0,8.936,3.081,16.369,9.244,22.302c6.162,5.932,13.87,8.899,23.121,8.899c9.69,0,17.719-2.966,24.087-8.899
		c6.368-5.932,9.552-13.425,9.552-22.477s-3.155-16.581-9.464-22.587C368.019,100.735,360.122,97.732,350.637,97.732z
		 M367.869,145.895c-4.581,4.482-10.296,6.723-17.144,6.723c-6.82,0-12.498-2.197-17.034-6.592
		c-4.537-4.394-6.805-9.902-6.805-16.523c0-6.826,2.261-12.436,6.783-16.831c4.522-4.394,10.295-6.592,17.32-6.592
		c6.673,0,12.299,2.219,16.881,6.658c4.58,4.438,6.871,9.909,6.871,16.413C374.74,135.831,372.449,141.412,367.869,145.895z"/>
	<polygon points="507.099,146.292 465.704,98.611 458.585,98.611 458.585,160.001 466.847,160.001 466.847,112.721 507.89,160.001 
		515.449,160.001 515.449,98.611 507.099,98.611 	"/>
	<polygon points="278.371,160.001 287.16,160.001 287.16,131.393 311.109,131.393 311.109,123.571 287.16,123.571 287.16,106.433 
		311.109,106.433 311.109,98.611 278.371,98.611 	"/>
	<path d="M437.316,133.459c0,4.834-0.381,8.247-1.143,10.239c-0.762,1.993-2.007,3.721-3.735,5.185
		c-3.281,2.725-7.53,4.087-12.744,4.087c-3.662,0-6.841-0.681-9.536-2.043c-2.696-1.362-4.702-3.171-6.02-5.427
		c-1.318-2.256-1.977-6.269-1.977-12.041V98.611h-8.833v34.76c0,4.951,0.33,8.584,0.989,10.898c0.659,2.315,1.494,4.27,2.505,5.867
		c1.011,1.597,2.248,3.04,3.713,4.328c4.834,4.16,11.25,6.24,19.247,6.24c7.851,0,14.208-2.094,19.072-6.284
		c1.465-1.259,2.703-2.687,3.713-4.285c1.011-1.596,1.86-3.596,2.549-5.998c0.688-2.402,1.033-5.961,1.033-10.678V98.611h-8.833
		V133.459z"/>
	<polygon points="855.795,146.292 814.4,98.611 807.281,98.611 807.281,160.001 815.542,160.001 815.542,112.721 856.586,160.001 
		864.144,160.001 864.144,98.611 855.795,98.611 	"/>
	<rect x="823.251" y="165.166" width="1.758" height="12.278"/>
	<path d="M815.183,165.008c-1.19,0-2.156,0.584-2.9,1.753c-0.744,1.169-1.116,2.685-1.116,4.548c0,1.887,0.36,3.401,1.081,4.544
		c0.721,1.143,1.676,1.714,2.865,1.714c1.172,0,2.125-0.583,2.861-1.749c0.735-1.166,1.103-2.681,1.103-4.544
		c0-1.816-0.368-3.315-1.103-4.495C817.238,165.599,816.308,165.008,815.183,165.008z M816.703,174.711
		c-0.393,0.826-0.929,1.239-1.608,1.239c-0.68,0-1.213-0.413-1.6-1.239c-0.387-0.826-0.58-1.966-0.58-3.419
		c0-1.418,0.198-2.541,0.593-3.37c0.395-0.829,0.93-1.244,1.604-1.244h0.088c0.639,0,1.147,0.422,1.525,1.266
		s0.567,1.977,0.567,3.401C817.292,172.763,817.096,173.885,816.703,174.711z"/>
	<path d="M832.615,167.803c0.331-0.773,0.863-1.705,1.595-2.795h-0.993c-1.283,1.576-2.18,3.007-2.689,4.293
		c-0.51,1.286-0.765,2.621-0.765,4.003c0,1.359,0.255,2.689,0.765,3.99c0.316,0.814,0.634,1.477,0.954,1.986
		c0.319,0.51,0.81,1.163,1.472,1.96l0.264,0.325h0.993c-1.729-2.273-2.593-5.01-2.593-8.209c0-0.932,0.083-1.897,0.25-2.896
		C832.035,169.463,832.284,168.576,832.615,167.803z"/>
	<path d="M805.41,169.816c-0.129,0-0.255,0.006-0.378,0.018v-3.102h3.849v-1.564h-5.449v6.389c0.252-0.117,0.726-0.176,1.424-0.176
		c0.814,0,1.494,0.218,2.039,0.655c0.545,0.437,0.817,0.98,0.817,1.63c0,0.627-0.25,1.156-0.751,1.586s-1.121,0.646-1.859,0.646
		c-0.844,0-1.708-0.287-2.593-0.861v1.81c0.937,0.48,1.904,0.721,2.9,0.721c1.207,0,2.19-0.362,2.949-1.085
		c0.759-0.724,1.138-1.662,1.138-2.817c0-1.119-0.384-2.04-1.151-2.764C807.577,170.178,806.599,169.816,805.41,169.816z"/>
	<path d="M837.484,175.361c-0.501-0.486-0.751-1.143-0.751-1.969c0-0.785,0.231-1.431,0.694-1.938
		c0.463-0.507,1.055-0.76,1.775-0.76c0.691,0,1.441,0.258,2.25,0.773v-1.705c-0.486-0.217-0.895-0.365-1.226-0.444
		c-0.331-0.079-0.705-0.119-1.121-0.119c-1.195,0-2.159,0.39-2.892,1.169c-0.732,0.779-1.099,1.805-1.099,3.076
		c0,1.26,0.376,2.265,1.129,3.015c0.753,0.75,1.762,1.125,3.028,1.125c0.767,0,1.553-0.149,2.355-0.448v-1.582
		c-0.797,0.357-1.503,0.536-2.118,0.536C838.66,176.091,837.985,175.848,837.484,175.361z"/>
	<path d="M860.876,171.653c-0.223-0.273-0.574-0.503-1.055-0.69c0.551-0.304,0.952-0.669,1.204-1.093
		c0.252-0.424,0.378-0.947,0.378-1.568c0-1.025-0.327-1.833-0.98-2.424c-0.653-0.591-1.545-0.887-2.676-0.887
		c-0.844,0-1.623,0.179-2.338,0.536v1.679c0.779-0.398,1.488-0.598,2.127-0.598c0.633,0,1.144,0.17,1.534,0.51
		c0.39,0.34,0.584,0.782,0.584,1.327c0,0.604-0.201,1.063-0.602,1.38c-0.401,0.316-0.986,0.475-1.753,0.475h-0.105v1.617
		l0.158,0.018c0.709,0.088,1.17,0.18,1.384,0.277c0.214,0.097,0.409,0.248,0.584,0.453c0.299,0.363,0.448,0.788,0.448,1.274
		c0,0.58-0.18,1.046-0.541,1.397c-0.36,0.352-0.836,0.527-1.428,0.527c-0.873,0-1.772-0.29-2.698-0.87v1.916
		c0.867,0.451,1.767,0.677,2.698,0.677c1.09,0,1.992-0.35,2.707-1.051c0.715-0.701,1.072-1.587,1.072-2.66
		c0-0.434-0.062-0.844-0.185-1.231C861.271,172.255,861.098,171.926,860.876,171.653z"/>
	<path d="M852.135,167.803c0.331-0.773,0.863-1.705,1.595-2.795h-0.993c-1.283,1.576-2.18,3.007-2.689,4.293
		c-0.51,1.286-0.765,2.621-0.765,4.003c0,1.359,0.255,2.689,0.765,3.99c0.316,0.814,0.634,1.477,0.954,1.986
		c0.319,0.51,0.81,1.163,1.472,1.96l0.264,0.325h0.993c-1.729-2.273-2.593-5.01-2.593-8.209c0-0.932,0.083-1.897,0.25-2.896
		C851.555,169.463,851.804,168.576,852.135,167.803z"/>
	<path d="M845.253,167.267c-0.319-0.51-0.807-1.154-1.463-1.934l-0.272-0.325h-0.984c0.621,0.85,1.115,1.704,1.481,2.562
		c0.366,0.858,0.642,1.765,0.826,2.72c0.185,0.955,0.277,1.942,0.277,2.962c0,0.879-0.079,1.797-0.237,2.755
		c-0.158,0.958-0.399,1.837-0.721,2.637c-0.322,0.8-0.864,1.774-1.626,2.922h0.984c0.914-1.154,1.545-2.033,1.894-2.637
		c0.349-0.604,0.637-1.21,0.866-1.819c0.463-1.225,0.694-2.499,0.694-3.823c0-1.383-0.255-2.725-0.765-4.025
		C845.891,168.442,845.573,167.777,845.253,167.267z"/>
	<path d="M866.83,169.262c-0.316-0.82-0.634-1.485-0.954-1.995c-0.319-0.51-0.807-1.154-1.463-1.934l-0.272-0.325h-0.984
		c0.621,0.85,1.115,1.704,1.481,2.562c0.366,0.858,0.642,1.765,0.826,2.72c0.185,0.955,0.277,1.942,0.277,2.962
		c0,0.879-0.079,1.797-0.237,2.755c-0.158,0.958-0.398,1.837-0.721,2.637c-0.322,0.8-0.864,1.774-1.626,2.922h0.984
		c0.914-1.154,1.545-2.033,1.894-2.637c0.349-0.604,0.637-1.21,0.866-1.819c0.463-1.225,0.694-2.499,0.694-3.823
		C867.595,171.905,867.34,170.563,866.83,169.262z"/>
</g>
</svg>
