<?xml version="1.0" encoding="utf-8"?>
<!-- Generator: Adobe Illustrator 21.1.0, SVG Export Plug-In . SVG Version: 6.00 Build 0)  -->
<svg version="1.1" id="Layer_1" xmlns="http://www.w3.org/2000/svg" xmlns:xlink="http://www.w3.org/1999/xlink" x="0px" y="0px"
	 width="305px" height="95px" viewBox="0 0 305 95" style="enable-background:new 0 0 305 95;" xml:space="preserve">
<path d="M115.586,75.091c-3.58,1.633-7.103,3.745-11.177,1.082c-1.231-0.805-1.859,0.986-2.476,1.888
	c-1.215,1.774-3.154,3.324-4.908,2.425c-2.454-1.258-0.496-3.43,0.138-5.187c0.212-0.587,0.441-1.168,0.901-2.382
	c-3.423,0.969-6.196,0.589-8.775-1.217c-2.03-1.422-2.954,0.222-3.739,1.775c-1.12,2.216-2.242,4.428-4.1,6.148
	c-1.538,1.424-3.131,2.835-4.883,0.33c-1.193-1.705-2.445-0.753-3.388,0.006c-2.191,1.763-4.896,2.058-7.405,2.791
	c-5.143,1.503-6.261,0.705-7.283-4.818c-3.165,2.829-7.07,4.919-10.766,4.38c-4.037-0.588-6.554-0.082-9.344,2.885
	c-1.94,2.063-4.813,1.91-5.322-1.796c-0.497-3.619-2.276-2.592-4.068-1.388c-1.916,1.289-3.544,3.032-5.519,4.202
	c-6.545,3.877-9.525,3.264-14.642-2.696c-4.032-4.697-4.787-4.525-7.332,1.487c-1.406-8.26,2.969-15.086,6.701-21.921
	c5.134-9.403,8.656-19.823,16.051-27.834c3.995-4.328,7.953-8.813,13.118-11.992c3.269-2.012,7.011-3.207,9.682-0.694
	c2.635,2.479,1.693,6.579,0.012,9.712c-2.684,5-6.663,9.002-10.94,12.681c-1.491,1.282-3.139,2.393-3.976,4.302
	c6.51,2.351,8.262,6.312,6.599,14.255c-1.1,5.252-3.589,9.814-6.893,14.103c2.478,1.116,3.484-0.306,4.772-1.722
	c4.349-4.782,8.649-9.625,14.106-13.261c1.608-1.072,3.038-2.017,4.794-0.589c2.039,1.658,0.597,3.387-0.25,4.817
	c-2.423,4.092-6.701,6.938-8.009,11.813c6.072,0.208,13.728-5.373,15.17-11.055c0.284-1.119,0.378-2.311,0.821-3.359
	c0.418-0.989,1.467-1.387,2.507-1.227c1.053,0.163,1.015,1.131,1.052,1.955c0.223,4.917,1.324,10.015-3.249,14.103
	c7.951-1.645,15.179-3.193,18.349-12.032c2.038-5.681,5.679-10.803,8.767-16.079c0.719-1.228,2.079-2.097,3.199-3.067
	c0.766-0.664,1.881-1.39,2.639-0.576c0.535,0.574,0.603,1.941,0.367,2.815c-1.308,4.834-3.509,9.247-6.296,13.434
	c-2.2,3.305-1.081,5.471,2.806,6.224c5.318,1.029,9.599-0.555,12.932-4.899c2.124-2.767,5.885-6.633,8.182-4.442
	c2.851,2.72-1.831,5.834-3.796,8.376c-1.211,1.567-2.676,2.775-2.709,5.393c8.226-1.361,13.574-5.978,17.35-12.778
	c0.551-0.992,0.203-3.217,2.306-2.202c1.384,0.668,0.995,2.246,0.662,3.577c-1.169,4.678-4.483,8.072-7.071,11.9
	c-0.346,0.512-0.803,0.95-1.315,1.545c7.591,1.029,9.38,0.059,12.04-6.548c2.184-5.424,7.163-8.553,10.577-12.972
	c1.149-1.488,3.158-1.053,4.513,0.157c1.922,1.717,1.61,3.997,0.555,5.927c-1.406,2.572-3.223,4.919-5.219,7.893
	c2.823,0.451,5.055,0.315,7.409-0.428c1.384-0.437,3.704-1.471,4.078,0.878c0.292,1.83-1.55,3.552-3.431,3.663
	c-2.781,0.164-5.631-0.189-8.396-0.652c-1.332-0.223-2.706-0.895-3.791,0.066c-3.915,3.468-9.017,3.895-13.64,5.521
	C118.89,81.805,117.371,80.997,115.586,75.091z M17.786,58.735c0.818-2.72,1.933-4.313,3.415-5.19
	c5.624-3.328,9.954-8.12,14.672-12.472c3.826-3.529,7.903-6.86,9.49-12.192c0.452-1.519,1.063-2.95-0.339-4.098
	c-1.423-1.165-3.109-1.089-4.631-0.079c-2.49,1.653-5.139,3.148-7.349,5.125c-12.979,11.611-18.62,27.73-25.998,42.774
	c-0.704,1.435-0.586,2.88,0.363,4.244c2.788,4.007,16.198,5.786,19.643,2.21c5.015-5.205,8.882-11.207,9.244-18.755
	c0.116-2.43,0.383-5.687-1.749-6.856c-2.525-1.385-5.733-1.092-8.48,0.852C23.734,55.945,21.493,57.897,17.786,58.735z
	 M145.679,59.328c-7.041,4.788-10.296,9.145-10.502,13.344C139.013,69.045,143.028,65.56,145.679,59.328z M10.887,81.794
	c5.449,4.015,8.376,4.011,11.943,0.234C18.919,82.644,15.241,82.796,10.887,81.794z M36.208,82.328
	c3.614-1.86,6.615-3.213,8.25-7.583C40.015,76.154,37.504,78.024,36.208,82.328z M87.918,64.052
	c1.94-4.192,4.149-6.739,3.964-10.356C90.668,56.687,87.69,58.89,87.918,64.052z"/>
<path d="M232.132,49.144c0.644-0.154,1.374-0.162,1.918-0.484c5.343-3.158,6.409-2.618,7.243,3.864
	c3.731-0.953,5.745-4.332,8.829-6.112c1.342-0.774,2.995-2.371,4.515-0.941c1.756,1.653,0.197,3.364-0.795,4.865
	c-1.46,2.208-3.095,4.308-4.438,6.583c-0.948,1.606-1.583,3.694,0.192,4.984c1.537,1.117,3.509,0.592,5.163-0.427
	c1.775-1.095,2.722-2.917,3.749-4.593c3.117-5.09,7.787-8.467,12.574-11.729c1.259-0.858,2.718-1.563,4.196-0.664
	c1.831,1.114,1.049,2.994,0.881,4.545c-0.12,1.108-0.72,2.185-1.207,3.229c-2.422,5.19-2.268,5.648,3.155,6.882
	c6.053,1.378,12.155,1.843,18.292,0.465c0.484-0.109,0.977-0.19,1.47-0.252c2.89-0.361,7.409-1.236,7.617,1.831
	c0.23,3.39-4.335,2.258-6.977,2.401c-7.582,0.41-15.176,2.067-22.737-0.462c-2.262-0.757-4.511-1.227-5.575-3.672
	c-1.149-2.642-2.27-1.698-3.41,0.018c-3.762,5.662-9.961,5.854-15.697,6.559c-4.518,0.556-7.028-2.854-5.957-7.324
	c0.337-1.405,1.144-2.698,2.366-5.473c-5.905,3.59-10.277,7.034-14.006,11.18c-1.14,1.267-1.754,3.171-3.615,1.894
	c-1.768-1.213,0.03-2.553,0.551-3.865c1.621-4.079,6.348-6.362,6.782-11.576c-3.149,0.053-4.704,2.233-6.316,3.857
	c-4.416,4.45-9.788,7.949-13.296,13.31c-0.715,1.093-1.974,1.594-3.034,0.848c-1.088-0.766-0.733-2.11-0.218-3.186
	c1.755-3.673,5.347-6.216,6.468-10.648c-5.004,0.873-9.851,1.457-13.127,5.989c-1.868,2.583-4.457,4.53-7.339,5.878
	c-2.976,1.392-5.422-0.456-5.142-3.654c0.539-6.149,10.781-18.05,16.939-19.904c3.072-0.924,4.185-0.832,3.089,2.954
	c-0.546,1.884-0.96,4.05-1.472,7.153c5.264-2.817,11.179-2.315,14.359-7.618c0.859-1.433,2.438-1.462,3.506-0.81
	c1.837,1.12-0.325,2.187-0.429,3.329c-0.275,0.454-0.55,0.907-0.826,1.361C231.167,50.153,231.773,50.017,232.132,49.144z
	 M199.404,63.145c1.599-0.7,3.334-1.168,4.699-2.15c1.075-0.773,2.896-1.183,2.706-3.153c-0.086-0.892-0.76-1.021-1.394-0.974
	c-1.666,0.124-3.771-0.978-4.69,1.445C200.179,59.751,198.436,60.807,199.404,63.145z M271.635,48.585
	c-4.72,1.308-6.652,5.278-8.975,8.883C266.831,55.714,269.338,52.229,271.635,48.585z M211.432,47.765
	c-2.305,1.949-5.33,2.827-6.352,5.73c-0.296,0.841,1.377,1.477,2.279,1.356c3.469-0.465,3.638-3.636,4.662-6.077
	C212.059,48.687,211.874,48.507,211.432,47.765z"/>
<path d="M195.591,45.132c-1.324-0.119-3,0.24-3.913-0.435c-5.695-4.207-8.713-0.389-11.61,3.68
	c-3.635,5.104-7.153,10.293-10.696,15.462c-0.7,1.021-0.87,3.031-2.564,2.384c-1.792-0.685-1.38-2.567-0.66-3.89
	c4.036-7.409,8-14.868,12.4-22.058c1.159-1.894,2.615-3.17,1.559-5.582c-0.335-0.765-0.536-2.167,0.889-2.344
	c1.038-0.129,1.897,0.567,2.152,1.677c0.977,4.25,1.706,2.642,3.984,0.419c9.131-8.911,16.405-19.536,26.047-27.933
	c2.58-2.247,5.289-4.453,8.255-6.112c1.782-0.997,4.289-1.093,6.19,0.246c2.682,1.888,4.454,4.483,4.314,7.926
	c-0.053,1.306-0.355,2.702-0.925,3.871c-6.085,12.481-12.865,24.411-26.224,30.658C201.907,44.45,198.854,45.305,195.591,45.132z
	 M193.932,42.039c0.769-0.112,1.422-0.211,2.077-0.302c15.468-2.156,27.255-16.683,31.913-31.861c0.5-1.63,1.895-3.404-0.736-5.098
	c-2.409-1.55-4.461-1.437-6.413,0.007c-3.029,2.241-5.909,4.714-8.668,7.285c-7.293,6.793-12.972,15.153-20.881,21.398
	c-1.645,1.299-3.727,3.771-3.134,5.851C188.725,41.551,191.796,41.543,193.932,42.039z"/>
</svg>
